<svg width="18" height="18" viewBox="0 0 18 18" fill="none" xmlns="http://www.w3.org/2000/svg">
<path d="M4.04611 0.657227H14.1297C16.1154 0.657227 17.731 2.27276 17.731 4.2585V14.3421C17.731 16.3278 16.1154 17.9433 14.1297 17.9433H4.04611C2.06037 17.9433 0.444838 16.3278 0.444838 14.3421V4.2585C0.444838 2.27276 2.06037 0.657227 4.04611 0.657227ZM12.4781 9.80807L10.6177 11.6685C10.3361 11.9501 10.3361 12.4053 10.6177 12.6869C10.7582 12.8274 10.9426 12.898 11.1269 12.898C11.3113 12.898 11.4957 12.8274 11.6362 12.6869L13.4966 10.8265C13.905 10.4188 14.1297 9.87577 14.1297 9.29813C14.1297 8.72048 13.905 8.17813 13.4966 7.76974L11.6362 5.90933C11.3545 5.62771 10.8993 5.62771 10.6177 5.90933C10.3361 6.19095 10.3361 6.64615 10.6177 6.92777L12.4781 8.78818C12.6143 8.92431 12.6892 9.1051 12.6892 9.29741C12.6892 9.48971 12.6143 9.67194 12.4781 9.80807ZM4.67922 10.8301L6.53964 12.6905C6.68009 12.831 6.86447 12.9016 7.04886 12.9016C7.23324 12.9016 7.41763 12.831 7.55808 12.6905C7.8397 12.4089 7.8397 11.9537 7.55808 11.6721L5.69766 9.81167C5.56225 9.67554 5.48662 9.49475 5.48662 9.30173C5.48662 9.1087 5.56153 8.92863 5.69766 8.79251L7.55808 6.93137C7.8397 6.64975 7.8397 6.19383 7.55808 5.91293C7.27646 5.63131 6.82125 5.63131 6.53964 5.91293L4.67922 7.77335C4.27155 8.18101 4.04611 8.72408 4.04611 9.30101C4.04611 9.87793 4.27083 10.4217 4.67922 10.8301Z" fill="black"/>
</svg>
