<svg width="22" height="20" viewBox="0 0 22 20" fill="none" xmlns="http://www.w3.org/2000/svg">
<path d="M15.2 5.20012C14.7226 5.20012 14.2648 5.01048 13.9272 4.67291C13.5897 4.33535 13.4 3.87751 13.4 3.40012C13.4 2.92273 13.5897 2.46489 13.9272 2.12733C14.2648 1.78976 14.7226 1.60012 15.2 1.60012C15.6774 1.60012 16.1352 1.78976 16.4728 2.12733C16.8104 2.46489 17 2.92273 17 3.40012C17 3.87751 16.8104 4.33535 16.4728 4.67291C16.1352 5.01048 15.6774 5.20012 15.2 5.20012ZM16.7912 5.94412C17.2338 5.66722 17.5965 5.27961 17.8433 4.81961C18.0902 4.35961 18.2128 3.84315 18.199 3.32126C18.1851 2.79938 18.0353 2.29014 17.7643 1.84389C17.4934 1.39764 17.1107 1.02982 16.654 0.776791C16.1974 0.523759 15.6826 0.394276 15.1606 0.401138C14.6386 0.408 14.1274 0.550971 13.6775 0.815919C13.2277 1.08087 12.8548 1.45862 12.5956 1.91184C12.3365 2.36506 12.2001 2.87805 12.2 3.40012H8.60001C7.80436 3.40012 7.0413 3.71619 6.47869 4.2788C5.91608 4.84141 5.60001 5.60447 5.60001 6.40012V8.50012C5.60001 9.32572 6.07641 10.0397 6.76881 10.3829L5.95161 11.2001H2.30001C2.02424 11.2001 1.75116 11.2544 1.49638 11.36C1.24159 11.4655 1.01009 11.6202 0.815088 11.8152C0.620085 12.0102 0.4654 12.2417 0.359865 12.4965C0.25433 12.7513 0.200012 13.0243 0.200012 13.3001C0.200012 13.5759 0.25433 13.849 0.359865 14.1038C0.4654 14.3585 0.620085 14.59 0.815088 14.785C1.01009 14.98 1.24159 15.1347 1.49638 15.2403C1.75116 15.3458 2.02424 15.4001 2.30001 15.4001H5.82321C6.58761 15.4001 7.33041 15.1517 7.94121 14.6945L9.14361 13.7921L11 15.6485V17.5001C11 18.0571 11.2213 18.5912 11.6151 18.985C12.0089 19.3789 12.5431 19.6001 13.1 19.6001C13.657 19.6001 14.1911 19.3789 14.5849 18.985C14.9788 18.5912 15.2 18.0571 15.2 17.5001V13.6001C15.2002 13.5213 15.1848 13.4432 15.1547 13.3703C15.1246 13.2974 15.0805 13.2311 15.0248 13.1753L13.0484 11.2001L14 10.2485L14.1164 10.3649C14.6516 10.9001 15.3764 11.2001 16.1324 11.2001H19.7C20.257 11.2001 20.7911 10.9789 21.1849 10.585C21.5788 10.1912 21.8 9.65707 21.8 9.10012C21.8 8.54317 21.5788 8.00902 21.1849 7.6152C20.7911 7.22137 20.257 7.00012 19.7 7.00012H17.8484L16.7912 5.94412ZM15.5336 6.38212L17.1752 8.02492C17.231 8.0806 17.2973 8.12474 17.3702 8.1548C17.4431 8.18486 17.5212 8.20026 17.6 8.20012H19.7C19.9387 8.20012 20.1676 8.29494 20.3364 8.46373C20.5052 8.63251 20.6 8.86143 20.6 9.10012C20.6 9.33882 20.5052 9.56773 20.3364 9.73652C20.1676 9.9053 19.9387 10.0001 19.7 10.0001H16.1324C15.6944 10.0001 15.2744 9.82612 14.9648 9.51652L14.4248 8.97652C14.3691 8.92065 14.3029 8.87631 14.23 8.84607C14.1571 8.81582 14.0789 8.80025 14 8.80025C13.9211 8.80025 13.8429 8.81582 13.7701 8.84607C13.6972 8.87631 13.6309 8.92065 13.5752 8.97652L11.7752 10.7765C11.6627 10.889 11.5995 11.0416 11.5995 11.2007C11.5995 11.3598 11.6627 11.5124 11.7752 11.6249L14 13.8485V17.5001C14 17.7388 13.9052 17.9677 13.7364 18.1365C13.5676 18.3053 13.3387 18.4001 13.1 18.4001C12.8613 18.4001 12.6324 18.3053 12.4636 18.1365C12.2948 17.9677 12.2 17.7388 12.2 17.5001V15.4001C12.2002 15.3213 12.1848 15.2432 12.1547 15.1703C12.1246 15.0974 12.0805 15.0311 12.0248 14.9753L9.62481 12.5753C9.52259 12.4731 9.38691 12.4113 9.24272 12.4011C9.09854 12.391 8.95553 12.4332 8.84001 12.5201L7.22121 13.7345C6.81792 14.037 6.32733 14.2004 5.82321 14.2001H2.30001C2.06132 14.2001 1.8324 14.1053 1.66362 13.9365C1.49483 13.7677 1.40001 13.5388 1.40001 13.3001C1.40001 13.0614 1.49483 12.8325 1.66362 12.6637C1.8324 12.4949 2.06132 12.4001 2.30001 12.4001H6.20001C6.27886 12.4003 6.35696 12.3849 6.42985 12.3548C6.50274 12.3247 6.56899 12.2806 6.62481 12.2249L8.35161 10.4969C8.77282 10.3594 9.13975 10.0923 9.3999 9.7336C9.66006 9.37495 9.80011 8.9432 9.80001 8.50012V7.60012H11C11.1591 7.60012 11.3118 7.53691 11.4243 7.42439C11.5368 7.31186 11.6 7.15925 11.6 7.00012C11.6 6.84099 11.5368 6.68838 11.4243 6.57586C11.3118 6.46334 11.1591 6.40012 11 6.40012H9.20001C9.04088 6.40012 8.88827 6.46334 8.77575 6.57586C8.66323 6.68838 8.60001 6.84099 8.60001 7.00012V8.50012C8.60001 8.73882 8.50519 8.96773 8.33641 9.13652C8.16763 9.3053 7.93871 9.40012 7.70001 9.40012C7.46132 9.40012 7.2324 9.3053 7.06362 9.13652C6.89483 8.96773 6.80001 8.73882 6.80001 8.50012V6.40012C6.80001 5.92273 6.98965 5.46489 7.32722 5.12733C7.66479 4.78976 8.12262 4.60012 8.60001 4.60012H12.4496C12.7059 5.18765 13.1435 5.67765 13.6985 5.99834C14.2535 6.31902 14.8966 6.45352 15.5336 6.38212Z" fill="white"/>
</svg>
