<svg width="13" height="13" viewBox="0 0 13 13" fill="none" xmlns="http://www.w3.org/2000/svg">
<path d="M11.8563 8.24648L12.75 7.35274L11.8563 6.45898L9.625 8.69024L4.26875 3.33398L6.5 1.10273L5.60625 0.208984L4.7125 1.10273L3.81875 0.208984L2.48125 1.54648L1.5875 0.652734L0.69375 1.54648L1.5875 2.44023L0.25 3.77773L1.14375 4.67148L0.25 5.56523L1.14375 6.45898L3.375 4.22774L8.73125 9.58399L6.5 11.8152L7.39375 12.709L8.2875 11.8152L9.18125 12.709L10.5188 11.3715L11.4125 12.2652L12.3063 11.3715L11.4125 10.4777L12.75 9.14024L11.8563 8.24648Z" fill="white"/>
</svg>
