<svg width="24" height="24" viewBox="0 0 24 24" fill="none" xmlns="http://www.w3.org/2000/svg">
<path d="M8.5 6.5C8.5 6.36739 8.55268 6.24021 8.64645 6.14645C8.74021 6.05268 8.86739 6 9 6H15C15.1326 6 15.2598 6.05268 15.3536 6.14645C15.4473 6.24021 15.5 6.36739 15.5 6.5C15.5 6.63261 15.4473 6.75979 15.3536 6.85355C15.2598 6.94732 15.1326 7 15 7H9C8.86739 7 8.74021 6.94732 8.64645 6.85355C8.55268 6.75979 8.5 6.63261 8.5 6.5ZM8 12C7.73478 12 7.48043 12.1054 7.29289 12.2929C7.10536 12.4804 7 12.7348 7 13C7 13.2652 7.10536 13.5196 7.29289 13.7071C7.48043 13.8946 7.73478 14 8 14C8.26522 14 8.51957 13.8946 8.70711 13.7071C8.89464 13.5196 9 13.2652 9 13C9 12.7348 8.89464 12.4804 8.70711 12.2929C8.51957 12.1054 8.26522 12 8 12ZM16 12C15.7348 12 15.4804 12.1054 15.2929 12.2929C15.1054 12.4804 15 12.7348 15 13C15 13.2652 15.1054 13.5196 15.2929 13.7071C15.4804 13.8946 15.7348 14 16 14C16.2652 14 16.5196 13.8946 16.7071 13.7071C16.8946 13.5196 17 13.2652 17 13C17 12.7348 16.8946 12.4804 16.7071 12.2929C16.5196 12.1054 16.2652 12 16 12ZM11 13C11 12.7348 11.1054 12.4804 11.2929 12.2929C11.4804 12.1054 11.7348 12 12 12C12.2652 12 12.5196 12.1054 12.7071 12.2929C12.8946 12.4804 13 12.7348 13 13C13 13.2652 12.8946 13.5196 12.7071 13.7071C12.5196 13.8946 12.2652 14 12 14C11.7348 14 11.4804 13.8946 11.2929 13.7071C11.1054 13.5196 11 13.2652 11 13ZM8 16C7.73478 16 7.48043 16.1054 7.29289 16.2929C7.10536 16.4804 7 16.7348 7 17C7 17.2652 7.10536 17.5196 7.29289 17.7071C7.48043 17.8946 7.73478 18 8 18C8.26522 18 8.51957 17.8946 8.70711 17.7071C8.89464 17.5196 9 17.2652 9 17C9 16.7348 8.89464 16.4804 8.70711 16.2929C8.51957 16.1054 8.26522 16 8 16ZM11 17C11 16.7348 11.1054 16.4804 11.2929 16.2929C11.4804 16.1054 11.7348 16 12 16C12.2652 16 12.5196 16.1054 12.7071 16.2929C12.8946 16.4804 13 16.7348 13 17C13 17.2652 12.8946 17.5196 12.7071 17.7071C12.5196 17.8946 12.2652 18 12 18C11.7348 18 11.4804 17.8946 11.2929 17.7071C11.1054 17.5196 11 17.2652 11 17Z" fill="white"/>
<path d="M13.623 3H10.377C9.277 3 8.419 3 7.732 3.056C7.034 3.113 6.467 3.231 5.957 3.49C5.11005 3.92147 4.42147 4.61005 3.99 5.457C3.73 5.967 3.613 6.534 3.556 7.232C3.5 7.92 3.5 8.776 3.5 9.877V14.123C3.5 15.223 3.5 16.081 3.556 16.768C3.613 17.466 3.731 18.033 3.99 18.543C4.42147 19.39 5.11005 20.0785 5.957 20.51C6.467 20.77 7.034 20.887 7.732 20.944C8.42 21 9.276 21 10.377 21H13.623C14.723 21 15.581 21 16.268 20.944C16.966 20.887 17.533 20.769 18.043 20.51C18.89 20.0785 19.5785 19.39 20.01 18.543C20.27 18.033 20.387 17.466 20.444 16.768C20.5 16.081 20.5 15.224 20.5 14.123V9.877C20.5 8.777 20.5 7.919 20.444 7.232C20.387 6.534 20.269 5.967 20.01 5.457C19.5785 4.61005 18.89 3.92147 18.043 3.49C17.533 3.23 16.966 3.113 16.268 3.056C15.58 3 14.724 3 13.623 3ZM6.41 4.381C6.756 4.205 7.176 4.105 7.813 4.053C8.455 4 9.272 4 10.4 4H13.6C14.728 4 15.545 4 16.186 4.053C16.823 4.105 17.243 4.205 17.589 4.381C18.2478 4.7166 18.7834 5.2522 19.119 5.911C19.295 6.257 19.395 6.677 19.447 7.314C19.485 7.771 19.496 8.316 19.499 9H4.5C4.504 8.316 4.514 7.77 4.552 7.314C4.604 6.677 4.704 6.257 4.88 5.911C5.2156 5.2522 5.7512 4.7166 6.41 4.381ZM4.5 10H19.5V14.1C19.5 15.228 19.5 16.045 19.447 16.686C19.395 17.323 19.295 17.743 19.119 18.089C18.7834 18.7478 18.2478 19.2834 17.589 19.619C17.243 19.795 16.823 19.895 16.187 19.947C15.545 20 14.728 20 13.6 20H10.4C9.272 20 8.455 20 7.814 19.947C7.177 19.895 6.757 19.795 6.411 19.619C5.7522 19.2834 5.2166 18.7478 4.881 18.089C4.705 17.743 4.605 17.323 4.553 16.687C4.5 16.045 4.5 15.228 4.5 14.1V10Z" fill="white"/>
</svg>
