<svg width="135" height="140" viewBox="0 0 135 140" fill="none" xmlns="http://www.w3.org/2000/svg">
<g opacity="0.5" clip-path="url(#clip0_1_2015)">
<g opacity="0.2">
<path d="M8.78378 251.633C-60.5415 251.633 -117 195.174 -117 125.849C-117 56.5234 -60.5415 0.0649414 8.78378 0.0649414C78.1091 0.0649414 134.568 56.5234 134.568 125.849C134.568 195.174 78.1091 251.633 8.78378 251.633ZM8.78378 0.952305C-60.0978 0.952305 -116.113 56.9671 -116.113 125.849C-116.113 194.73 -60.0978 250.856 8.8947 250.856C77.7763 250.856 133.902 194.841 133.902 125.849C133.791 56.9671 77.6654 0.952305 8.78378 0.952305Z" fill="white"/>
<path d="M8.784 230.78C-49.0055 230.78 -96.1467 183.749 -96.1467 125.849C-96.1467 68.0594 -49.1165 20.9182 8.784 20.9182C66.6845 20.9182 113.715 68.0594 113.715 125.849C113.715 183.749 66.6845 230.78 8.784 230.78ZM8.784 21.8056C-48.5619 21.8056 -95.2594 68.5031 -95.2594 125.849C-95.2594 183.195 -48.5619 229.892 8.784 229.892C66.1299 229.892 112.827 183.195 112.827 125.849C112.827 68.5031 66.1299 21.8056 8.784 21.8056Z" fill="white"/>
<path d="M8.78391 209.815C-37.5808 209.815 -75.1829 172.102 -75.1829 125.849C-75.1829 79.4839 -37.4699 41.8818 8.78391 41.8818C55.1487 41.8818 92.7507 79.5948 92.7507 125.849C92.7507 172.213 55.1487 209.815 8.78391 209.815ZM8.78391 42.6583C-37.0262 42.6583 -74.4064 79.9275 -74.4064 125.849C-74.4064 171.77 -37.1372 209.039 8.78391 209.039C54.5941 209.039 91.9742 171.77 91.9742 125.849C91.9742 79.9275 54.705 42.6583 8.78391 42.6583Z" fill="white"/>
<path d="M8.78365 188.962C-26.0454 188.962 -54.3301 160.677 -54.3301 125.848C-54.3301 91.0193 -26.0454 62.7346 8.78365 62.7346C43.6127 62.7346 71.8974 91.0193 71.8974 125.848C71.8974 160.677 43.6127 188.962 8.78365 188.962ZM8.78365 63.622C-25.6017 63.622 -53.4427 91.5739 -53.4427 125.848C-53.4427 160.123 -25.4908 188.075 8.78365 188.075C43.0581 188.075 71.01 160.123 71.01 125.848C71.01 91.5739 43.169 63.622 8.78365 63.622Z" fill="white"/>
<path d="M8.78388 168.109C-14.5094 168.109 -33.4768 149.142 -33.4768 125.849C-33.4768 102.555 -14.5094 83.5879 8.78388 83.5879C32.0772 83.5879 51.0446 102.555 51.0446 125.849C51.0446 149.142 32.0772 168.109 8.78388 168.109ZM8.78388 84.4752C-14.0657 84.4752 -32.5894 102.999 -32.5894 125.849C-32.5894 148.698 -14.0657 167.222 8.78388 167.222C31.6335 167.222 50.1572 148.698 50.1572 125.849C50.1572 102.999 31.6335 84.4752 8.78388 84.4752Z" fill="white"/>
<path d="M8.78355 147.145C-2.97402 147.145 -12.5132 137.606 -12.5132 125.848C-12.5132 114.091 -2.97402 104.552 8.78355 104.552C20.5411 104.552 30.0803 114.091 30.0803 125.848C30.0803 137.606 20.5411 147.145 8.78355 147.145ZM8.78355 105.328C-2.53034 105.328 -11.7367 114.535 -11.7367 125.848C-11.7367 137.162 -2.53034 146.369 8.78355 146.369C20.0974 146.369 29.3038 137.162 29.3038 125.848C29.3038 114.535 20.0974 105.328 8.78355 105.328Z" fill="white"/>
</g>
</g>
<defs>
<clipPath id="clip0_1_2015">
<rect width="251.568" height="251.568" fill="white" transform="translate(-117 0.0649414)"/>
</clipPath>
</defs>
</svg>
