<svg width="250" height="86" viewBox="0 0 250 86" fill="none" xmlns="http://www.w3.org/2000/svg">
<g opacity="0.5" clip-path="url(#clip0_1_1765)">
<g opacity="0.2">
<path d="M124.977 248.856C56.5751 248.856 0.868896 193.15 0.868896 124.748C0.868896 56.3466 56.5751 0.640381 124.977 0.640381C193.378 0.640381 249.084 56.3466 249.084 124.748C249.084 193.15 193.378 248.856 124.977 248.856ZM124.977 1.51592C57.0128 1.51592 1.74444 56.7843 1.74444 124.748C1.74444 192.712 57.0128 248.09 125.086 248.09C193.05 248.09 248.428 192.821 248.428 124.748C248.318 56.7843 192.94 1.51592 124.977 1.51592Z" fill="white"/>
<path d="M124.977 228.28C67.9576 228.28 21.4446 181.877 21.4446 124.748C21.4446 67.7283 67.8481 21.2153 124.977 21.2153C182.106 21.2153 228.51 67.7283 228.51 124.748C228.51 181.877 182.106 228.28 124.977 228.28ZM124.977 22.0909C68.3954 22.0909 22.3201 68.1661 22.3201 124.748C22.3201 181.33 68.3954 227.405 124.977 227.405C181.559 227.405 227.634 181.33 227.634 124.748C227.634 68.1661 181.559 22.0909 124.977 22.0909Z" fill="white"/>
<path d="M124.977 207.596C79.2299 207.596 42.1289 170.386 42.1289 124.748C42.1289 79.0014 79.3393 41.9004 124.977 41.9004C170.724 41.9004 207.825 79.1108 207.825 124.748C207.825 170.495 170.724 207.596 124.977 207.596ZM124.977 42.6665C79.7771 42.6665 42.895 79.4391 42.895 124.748C42.895 170.057 79.6676 206.83 124.977 206.83C170.176 206.83 207.059 170.057 207.059 124.748C207.059 79.4391 170.286 42.6665 124.977 42.6665Z" fill="white"/>
<path d="M124.977 187.02C90.6122 187.02 62.7043 159.112 62.7043 124.748C62.7043 90.3827 90.6122 62.4749 124.977 62.4749C159.342 62.4749 187.25 90.3827 187.25 124.748C187.25 159.112 159.342 187.02 124.977 187.02ZM124.977 63.3504C91.0499 63.3504 63.5799 90.9299 63.5799 124.748C63.5799 158.565 91.1594 186.145 124.977 186.145C158.795 186.145 186.374 158.565 186.374 124.748C186.374 90.9299 158.904 63.3504 124.977 63.3504Z" fill="white"/>
<path d="M124.977 166.445C101.994 166.445 83.2791 147.731 83.2791 124.748C83.2791 101.765 101.994 83.0503 124.977 83.0503C147.959 83.0503 166.674 101.765 166.674 124.748C166.674 147.731 147.959 166.445 124.977 166.445ZM124.977 83.9258C102.431 83.9258 84.1546 102.203 84.1546 124.748C84.1546 147.293 102.431 165.57 124.977 165.57C147.522 165.57 165.799 147.293 165.799 124.748C165.799 102.203 147.522 83.9258 124.977 83.9258Z" fill="white"/>
</g>
</g>
<defs>
<clipPath id="clip0_1_1765">
<rect width="248.215" height="248.215" fill="white" transform="translate(0.870117 0.640137)"/>
</clipPath>
</defs>
</svg>
