<svg width="70" height="70" viewBox="0 0 70 70" fill="none" xmlns="http://www.w3.org/2000/svg">
<path d="M56.1475 52.166L3.14672 69.8765C2.7256 70.0175 2.27351 70.0383 1.84122 69.9366C1.40893 69.8348 1.01356 69.6146 0.699536 69.3005C0.385509 68.9865 0.165257 68.5912 0.0635177 68.1589C-0.0382211 67.7266 -0.0174162 67.2745 0.123595 66.8534L17.834 13.8525L56.1475 52.166Z" fill="black"/>
<path d="M56.148 52.1684C56.148 52.1684 48.3422 50.4005 33.98 36.0241C19.9986 22.0558 17.9342 14.2642 17.8357 13.8573V13.843C17.8357 13.843 25.6557 15.612 40.0227 29.979C54.3897 44.346 56.148 52.1684 56.148 52.1684Z" fill="#333333"/>
<path d="M21.8968 63.6095L14.0424 66.2316C12.3932 64.7603 10.6372 63.1111 8.76262 61.2365C6.888 59.3619 5.2388 57.6059 3.76758 55.9567L6.38968 48.1023C8.38295 50.5108 10.8152 53.2041 13.8051 56.194C16.795 59.1839 19.4883 61.6162 21.8968 63.6095Z" fill="white"/>
<path d="M43.2777 56.467L34.8419 59.2789C30.2024 55.9464 25.8632 52.2146 21.8738 48.1261C17.7853 44.1367 14.0535 39.7975 10.7209 35.158L13.5329 26.7222C17.3226 32.6923 21.8159 38.1855 26.9163 43.0836C31.8143 48.184 37.3075 52.6773 43.2777 56.467Z" fill="#333333"/>
<path d="M29.103 24.214C28.8683 24.2139 28.639 24.1443 28.4439 24.0139C28.2489 23.8836 28.0968 23.6983 28.007 23.4815C27.9173 23.2648 27.8938 23.0262 27.9395 22.7961C27.9853 22.566 28.0983 22.3546 28.2641 22.1887C30.5836 20.0002 32.1155 17.1071 32.6218 13.9586C33.1281 10.8101 32.5806 7.58255 31.0642 4.77722C30.9733 4.64354 30.9108 4.49269 30.8803 4.33395C30.8498 4.1752 30.8521 4.01191 30.887 3.85408C30.9219 3.69625 30.9887 3.54722 31.0833 3.41613C31.1779 3.28504 31.2982 3.17466 31.437 3.09176C31.5757 3.00885 31.73 2.95518 31.8902 2.93403C32.0505 2.91288 32.2134 2.9247 32.3689 2.96875C32.5244 3.01281 32.6693 3.08819 32.7946 3.19025C32.92 3.29231 33.0232 3.41891 33.0978 3.56228C34.8769 6.82392 35.5318 10.5808 34.9613 14.2521C34.3908 17.9233 32.6267 21.3043 29.9418 23.8723C29.8314 23.9818 29.7005 24.0683 29.5565 24.127C29.4126 24.1856 29.2584 24.2152 29.103 24.214Z" fill="#333333"/>
<path d="M27.1188 12.3017C26.8042 12.3017 26.5024 12.1766 26.28 11.9541L24.2938 9.96915C24.1837 9.85891 24.0963 9.72806 24.0367 9.58406C23.9771 9.44006 23.9465 9.28574 23.9465 9.12989C23.9466 8.97405 23.9773 8.81975 24.037 8.67579C24.0967 8.53183 24.1842 8.40104 24.2944 8.29089C24.517 8.06841 24.8189 7.94349 25.1337 7.9436C25.2895 7.94366 25.4438 7.97441 25.5878 8.0341C25.7317 8.09379 25.8625 8.18124 25.9727 8.29148L27.9576 10.2764C28.1235 10.4424 28.2365 10.6538 28.2822 10.8839C28.328 11.114 28.3045 11.3525 28.2147 11.5693C28.1249 11.7861 27.9729 11.9713 27.7778 12.1017C27.5828 12.2321 27.3534 12.3017 27.1188 12.3017Z" fill="#FA260C"/>
<path d="M41.0156 10.3166C40.7009 10.3166 40.3991 10.1916 40.1766 9.96914C39.9541 9.74663 39.8291 9.44485 39.8291 9.13018V7.14521C39.8291 6.83054 39.9541 6.52876 40.1766 6.30625C40.3991 6.08374 40.7009 5.95874 41.0156 5.95874C41.3302 5.95874 41.632 6.08374 41.8545 6.30625C42.077 6.52876 42.202 6.83054 42.202 7.14521V9.13018C42.202 9.44485 42.077 9.74663 41.8545 9.96914C41.632 10.1916 41.3302 10.3166 41.0156 10.3166Z" fill="white"/>
<path d="M43.0017 18.2589H41.0156C40.7009 18.2589 40.3991 18.1339 40.1766 17.9114C39.9541 17.6889 39.8291 17.3871 39.8291 17.0725C39.8291 16.7578 39.9541 16.456 40.1766 16.2335C40.3991 16.011 40.7009 15.886 41.0156 15.886H43.0017C43.3164 15.886 43.6182 16.011 43.8407 16.2335C44.0632 16.456 44.1882 16.7578 44.1882 17.0725C44.1882 17.3871 44.0632 17.6889 43.8407 17.9114C43.6182 18.1339 43.3164 18.2589 43.0017 18.2589Z" fill="#FA260C"/>
<path d="M46.9702 42.0833C46.7355 42.0833 46.5062 42.0137 46.3111 41.8833C46.1161 41.7529 45.964 41.5676 45.8742 41.3509C45.7845 41.1341 45.761 40.8956 45.8067 40.6654C45.8525 40.4353 45.9654 40.2239 46.1313 40.058C48.6995 37.373 52.0807 35.6088 55.7521 35.0384C59.4236 34.4679 63.1807 35.1229 66.4425 36.902C66.7017 37.0686 66.8859 37.3296 66.9561 37.6296C67.0264 37.9296 66.9771 38.2452 66.8188 38.5096C66.6605 38.7739 66.4055 38.9663 66.1079 39.0461C65.8103 39.1258 65.4933 39.0866 65.224 38.9368C62.4254 37.3923 59.1904 36.8287 56.0343 37.336C52.8783 37.8432 49.9827 39.392 47.809 41.7357C47.5865 41.9582 47.2848 42.0832 46.9702 42.0833Z" fill="#333333"/>
<path d="M60.87 46.0533C60.5555 46.0535 60.2538 45.9289 60.0311 45.7068L58.045 43.7207C57.8288 43.4969 57.7093 43.1972 57.712 42.8861C57.7147 42.575 57.8394 42.2775 58.0594 42.0575C58.2794 41.8375 58.577 41.7127 58.8881 41.71C59.1992 41.7073 59.4989 41.8269 59.7226 42.043L61.7088 44.028C61.8747 44.1939 61.9876 44.4053 62.0334 44.6354C62.0791 44.8655 62.0557 45.1041 61.9659 45.3208C61.8761 45.5376 61.7241 45.7229 61.529 45.8533C61.3339 45.9836 61.1046 46.0532 60.87 46.0533Z" fill="#FA260C"/>
<path d="M43.0009 26.2001C42.7663 26.2 42.5369 26.1304 42.3419 26C42.1468 25.8696 41.9948 25.6844 41.905 25.4676C41.8152 25.2508 41.7917 25.0123 41.8375 24.7822C41.8832 24.5521 41.9962 24.3407 42.1621 24.1748C42.6631 23.6885 43.2639 23.317 43.9227 23.0859C44.5816 22.8549 45.2828 22.7697 45.9778 22.8364H46.0039C46.3815 22.8985 46.7683 22.8728 47.1343 22.7613C47.5003 22.6498 47.8358 22.4554 48.1146 22.1933C48.3789 21.9108 48.5744 21.5712 48.6859 21.2007C48.7975 20.8303 48.822 20.4392 48.7577 20.0577C48.681 19.3618 48.7616 18.6575 48.9936 17.9969C49.2256 17.3363 49.603 16.7362 50.098 16.241C50.5929 15.7458 51.1928 15.3681 51.8533 15.1358C52.5138 14.9035 53.2181 14.8226 53.9141 14.8989C54.2975 14.976 54.694 14.9572 55.0683 14.844C55.4426 14.7309 55.7832 14.527 56.0597 14.2505C56.3363 13.9739 56.5402 13.6334 56.6533 13.259C56.7664 12.8847 56.7853 12.4882 56.7082 12.1048C56.6421 11.4092 56.7279 10.7075 56.9595 10.0483C57.1912 9.38907 57.5633 8.78803 58.0501 8.28673C58.1593 8.17118 58.2905 8.07874 58.4361 8.0149C58.5817 7.95107 58.7386 7.91714 58.8976 7.91513C59.0566 7.91313 59.2143 7.94308 59.3614 8.00322C59.5086 8.06336 59.6422 8.15246 59.7542 8.26522C59.8662 8.37799 59.9545 8.51212 60.0137 8.65965C60.0729 8.80718 60.1018 8.9651 60.0988 9.12404C60.0958 9.28297 60.0609 9.43968 59.9961 9.58486C59.9314 9.73004 59.8381 9.86072 59.7218 9.96915C59.4576 10.2518 59.2619 10.5914 59.1498 10.9617C59.0377 11.332 59.0122 11.7231 59.0752 12.1048C59.1517 12.8011 59.0709 13.5056 58.8386 14.1665C58.6063 14.8273 58.2286 15.4276 57.7333 15.9229C57.238 16.4182 56.6378 16.7959 55.9769 17.0281C55.3161 17.2604 54.6115 17.3413 53.9153 17.2648C53.5328 17.1878 53.1372 17.2067 52.7638 17.3198C52.3904 17.4328 52.0508 17.6365 51.7752 17.9127C51.4996 18.1889 51.2966 18.5289 51.1844 18.9026C51.0721 19.2762 51.0541 19.6718 51.1318 20.0541C51.1991 20.7492 51.1142 21.4505 50.8831 22.1095C50.6519 22.7684 50.2801 23.3691 49.7935 23.8698C49.2904 24.3532 48.6894 24.7228 48.0311 24.9537C47.3728 25.1846 46.6725 25.2714 45.9778 25.2082H45.9505C45.5731 25.1457 45.1864 25.1713 44.8204 25.2828C44.4545 25.3944 44.1193 25.5889 43.8409 25.8512C43.7307 25.9618 43.5998 26.0495 43.4557 26.1093C43.3115 26.1692 43.157 26.2 43.0009 26.2001Z" fill="#FDC70E"/>
<path d="M46.9718 12.3017C46.7768 12.3018 46.5848 12.2539 46.4128 12.1621C46.2408 12.0703 46.094 11.9375 45.9855 11.7756C45.877 11.6136 45.8101 11.4273 45.7907 11.2333C45.7713 11.0393 45.8 10.8435 45.8743 10.6632C46.5045 9.26282 46.8345 7.74599 46.843 6.21034C46.8516 4.6747 46.5386 3.15427 45.9241 1.74691C45.7756 1.46937 45.7434 1.14419 45.8346 0.842918C45.9259 0.541644 46.133 0.28895 46.4106 0.140425C46.6881 -0.00809961 47.0133 -0.0402889 47.3146 0.0509387C47.6158 0.142166 47.8685 0.349338 48.017 0.626878C48.7963 2.34381 49.2037 4.20607 49.2127 6.09152C49.2217 7.97697 48.832 9.84303 48.0693 11.5673C47.9797 11.7847 47.8275 11.9706 47.6321 12.1013C47.4367 12.2321 47.2069 12.3018 46.9718 12.3017Z" fill="white"/>
<path d="M58.8825 24.214C58.6076 24.2143 58.3412 24.1191 58.1286 23.9447C57.9161 23.7703 57.7708 23.5276 57.7174 23.2579C57.664 22.9882 57.706 22.7084 57.836 22.4662C57.9661 22.224 58.1762 22.0345 58.4305 21.9301C60.1548 21.1664 62.0211 20.7763 63.9069 20.7853C65.7927 20.7943 67.6552 21.2022 69.3721 21.9823C69.6496 22.1308 69.8568 22.3835 69.9481 22.6848C70.0393 22.986 70.0071 23.3112 69.8586 23.5887C69.71 23.8663 69.4573 24.0735 69.1561 24.1647C68.8548 24.2559 68.5296 24.2237 68.2521 24.0752C66.8446 23.4602 65.324 23.1469 63.788 23.1554C62.2521 23.164 60.735 23.4943 59.3346 24.125C59.1911 24.1838 59.0376 24.214 58.8825 24.214Z" fill="#333333" fill-opacity="0.6"/>
</svg>
