<svg width="20" height="20" viewBox="0 0 20 20" fill="none" xmlns="http://www.w3.org/2000/svg">
<path d="M3.28125 2.5C2.74253 2.5 2.22587 2.71401 1.84494 3.09494C1.46401 3.47587 1.25 3.99253 1.25 4.53125V9.48125C1.9378 8.60514 2.93388 8.02435 4.03512 7.85731C5.13637 7.69027 6.25987 7.94956 7.17654 8.5823C8.09321 9.21504 8.73403 10.1736 8.96834 11.2625C9.20264 12.3514 9.0128 13.4887 8.4375 14.4425V15.625H16.7188C17.2575 15.625 17.7741 15.411 18.1551 15.0301C18.536 14.6491 18.75 14.1325 18.75 13.5938V4.53125C18.75 3.99253 18.536 3.47587 18.1551 3.09494C17.7741 2.71401 17.2575 2.5 16.7188 2.5H3.28125ZM5.625 6.25H14.375C14.5408 6.25 14.6997 6.31585 14.8169 6.43306C14.9342 6.55027 15 6.70924 15 6.875C15 7.04076 14.9342 7.19973 14.8169 7.31694C14.6997 7.43415 14.5408 7.5 14.375 7.5H5.625C5.45924 7.5 5.30027 7.43415 5.18306 7.31694C5.06585 7.19973 5 7.04076 5 6.875C5 6.70924 5.06585 6.55027 5.18306 6.43306C5.30027 6.31585 5.45924 6.25 5.625 6.25ZM10 11.25C10 11.0842 10.0658 10.9253 10.1831 10.8081C10.3003 10.6908 10.4592 10.625 10.625 10.625H14.375C14.5408 10.625 14.6997 10.6908 14.8169 10.8081C14.9342 10.9253 15 11.0842 15 11.25C15 11.4158 14.9342 11.5747 14.8169 11.6919C14.6997 11.8092 14.5408 11.875 14.375 11.875H10.625C10.4592 11.875 10.3003 11.8092 10.1831 11.6919C10.0658 11.5747 10 11.4158 10 11.25ZM8.125 12.1875C8.125 13.0992 7.76284 13.9735 7.11818 14.6182C6.47352 15.2628 5.59918 15.625 4.6875 15.625C3.77582 15.625 2.90148 15.2628 2.25682 14.6182C1.61216 13.9735 1.25 13.0992 1.25 12.1875C1.25 11.2758 1.61216 10.4015 2.25682 9.75682C2.90148 9.11216 3.77582 8.75 4.6875 8.75C5.59918 8.75 6.47352 9.11216 7.11818 9.75682C7.76284 10.4015 8.125 11.2758 8.125 12.1875ZM7.5 15.5387C6.71283 16.2015 5.71649 16.5641 4.6875 16.5625C3.65851 16.5641 2.66217 16.2015 1.875 15.5387V18.125C1.87503 18.2364 1.90484 18.3458 1.96136 18.4419C2.01788 18.5379 2.09904 18.6171 2.19644 18.6712C2.29385 18.7253 2.40394 18.7524 2.51534 18.7497C2.62673 18.7469 2.73537 18.7145 2.83 18.6556L4.6875 17.4994L6.545 18.6556C6.63967 18.7145 6.74837 18.747 6.85982 18.7497C6.97127 18.7524 7.08141 18.7252 7.17883 18.671C7.27625 18.6168 7.35741 18.5376 7.41388 18.4414C7.47035 18.3453 7.50008 18.2359 7.5 18.1244V15.5387Z" fill="white"/>
</svg>
