<svg width="20" height="20" viewBox="0 0 20 20" fill="none" xmlns="http://www.w3.org/2000/svg">
<path fill-rule="evenodd" clip-rule="evenodd" d="M9.68271 19.4977C14.9239 19.4977 19.1728 15.2489 19.1728 10.0077C19.1728 4.76643 14.9239 0.517578 9.68271 0.517578C4.44148 0.517578 0.192627 4.76643 0.192627 10.0077C0.192627 15.2489 4.44148 19.4977 9.68271 19.4977Z" fill="black"/>
<path d="M11.9999 9.42326L10.3917 11.017C10.0546 11.3507 9.71863 11.6843 9.38334 12.0174C9.16888 12.23 8.80385 12.23 8.58813 12.0174C8.52234 11.9515 8.45654 11.8863 8.39202 11.8211C7.9264 11.3588 7.46206 10.8978 6.99708 10.4349C6.77503 10.2154 6.79021 9.86983 6.99708 9.64717C7.20205 9.42514 7.58415 9.44082 7.79229 9.64717C7.85871 9.7124 7.92451 9.77763 7.98903 9.84286C8.32179 10.1728 8.65455 10.5046 8.98605 10.8345C9.51303 10.312 10.0387 9.79143 10.5651 9.26897L11.5735 8.2692C11.7955 8.04905 12.1441 8.0641 12.3687 8.2692C12.592 8.47429 12.5762 8.85187 12.3681 9.05823C12.246 9.17928 12.122 9.30221 11.9999 9.42326Z" fill="white"/>
</svg>
