<svg width="95" height="95" viewBox="0 0 95 95" fill="none" xmlns="http://www.w3.org/2000/svg">
<path d="M81.4229 58.8209L87.0833 53.1605L81.4229 47.5001L67.2917 61.6313L33.3687 27.7084L47.5 13.5772L41.8396 7.91675L36.1792 13.5772L30.5187 7.91675L22.0479 16.3876L16.3875 10.7272L10.7271 16.3876L16.3875 22.048L7.91666 30.5188L13.5771 36.1793L7.91666 41.8397L13.5771 47.5001L27.7083 33.3688L61.6312 67.2918L47.5 81.423L53.1604 87.0834L58.8208 81.423L64.4812 87.0834L72.9521 78.6126L78.6125 84.273L84.2729 78.6126L78.6125 72.9522L87.0833 64.4813L81.4229 58.8209Z" fill="black"/>
</svg>
