<svg width="15" height="16" viewBox="0 0 15 16" fill="none" xmlns="http://www.w3.org/2000/svg">
<path d="M12.8563 10.2465L13.75 9.35274L12.8563 8.45898L10.625 10.6902L5.26875 5.33398L7.5 3.10273L6.60625 2.20898L5.7125 3.10273L4.81875 2.20898L3.48125 3.54648L2.5875 2.65273L1.69375 3.54648L2.5875 4.44023L1.25 5.77773L2.14375 6.67148L1.25 7.56523L2.14375 8.45898L4.375 6.22774L9.73125 11.584L7.5 13.8152L8.39375 14.709L9.2875 13.8152L10.1813 14.709L11.5188 13.3715L12.4125 14.2652L13.3063 13.3715L12.4125 12.4777L13.75 11.1402L12.8563 10.2465Z" fill="white"/>
</svg>
