<svg width="34" height="28" viewBox="0 0 34 28" fill="none" xmlns="http://www.w3.org/2000/svg">
<path d="M30.75 0.25H3.25C2.58696 0.25 1.95107 0.513392 1.48223 0.982233C1.01339 1.45107 0.75 2.08696 0.75 2.75V25.25C0.75 25.913 1.01339 26.5489 1.48223 27.0178C1.95107 27.4866 2.58696 27.75 3.25 27.75H5.34375C5.58044 27.7507 5.81234 27.6833 6.0118 27.5558C6.21126 27.4284 6.36988 27.2463 6.46875 27.0312C7.08036 25.7513 8.04174 24.6705 9.24175 23.9139C10.4418 23.1574 11.8314 22.7559 13.25 22.7559C14.6686 22.7559 16.0582 23.1574 17.2582 23.9139C18.4583 24.6705 19.4196 25.7513 20.0312 27.0312C20.1301 27.2463 20.2887 27.4284 20.4882 27.5558C20.6877 27.6833 20.9196 27.7507 21.1562 27.75H30.75C31.413 27.75 32.0489 27.4866 32.5178 27.0178C32.9866 26.5489 33.25 25.913 33.25 25.25V2.75C33.25 2.08696 32.9866 1.45107 32.5178 0.982233C32.0489 0.513392 31.413 0.25 30.75 0.25ZM13.25 20.25C12.2611 20.25 11.2944 19.9568 10.4721 19.4073C9.6499 18.8579 9.00904 18.077 8.6306 17.1634C8.25216 16.2498 8.15315 15.2445 8.34607 14.2745C8.539 13.3046 9.0152 12.4137 9.71447 11.7145C10.4137 11.0152 11.3046 10.539 12.2745 10.3461C13.2445 10.1531 14.2498 10.2522 15.1634 10.6306C16.077 11.009 16.8579 11.6499 17.4073 12.4721C17.9568 13.2944 18.25 14.2611 18.25 15.25C18.2459 16.5748 17.7178 17.8442 16.781 18.781C15.8442 19.7178 14.5748 20.2459 13.25 20.25ZM30.75 25.25H21.9062C21.3647 24.3107 20.6733 23.4663 19.8594 22.75H27C27.3315 22.75 27.6495 22.6183 27.8839 22.3839C28.1183 22.1495 28.25 21.8315 28.25 21.5V6.5C28.25 6.16848 28.1183 5.85054 27.8839 5.61612C27.6495 5.3817 27.3315 5.25 27 5.25H7C6.66848 5.25 6.35054 5.3817 6.11612 5.61612C5.8817 5.85054 5.75 6.16848 5.75 6.5V21.5C5.75159 21.7759 5.8444 22.0435 6.01398 22.2611C6.18356 22.4787 6.42037 22.6342 6.6875 22.7031C5.85389 23.4308 5.14642 24.2914 4.59375 25.25H3.25V2.75H30.75V25.25Z" fill="black"/>
</svg>
