<svg width="173" height="139" viewBox="0 0 173 139" fill="none" xmlns="http://www.w3.org/2000/svg">
<g clip-path="url(#clip0_1_1967)">
<path d="M99.3575 80.985C99.1034 80.8577 98.9764 80.8577 98.7224 80.7304C98.7224 80.7304 98.7224 80.7304 98.7224 80.603L99.3575 80.985Z" fill="white"/>
<path d="M131.365 106.579C131.492 106.325 131.746 106.07 131.873 105.815C133.651 102.759 134.159 100.213 133.778 97.7933C133.397 96.0106 132.508 94.4826 130.984 93.2092C132.508 88.3705 132 84.0411 129.332 80.3484C131.238 76.783 131.619 73.4723 130.349 70.4162C128.951 66.7235 125.268 64.0495 120.95 63.6675C110.789 62.7761 100.374 65.4502 91.4832 68.1242C90.34 68.5062 88.6889 68.7609 87.7998 68.1242C87.0378 67.6149 86.5297 66.2142 86.2757 63.9222C87.1648 56.5367 87.1648 50.4246 86.1487 45.3312C84.1165 35.6538 75.0987 29.287 65.8269 31.197C62.6516 31.8337 59.8574 33.3617 57.8252 35.6538C55.9201 37.6911 55.793 40.7472 57.3172 43.0392L67.4781 57.1734C69.6372 60.2294 70.5263 63.9222 70.0183 67.6149C64.8108 103.269 65.9539 121.478 73.8286 132.174C76.7499 136.121 81.5763 138.541 86.7837 138.541H86.9108C104.819 138.413 119.299 133.447 130.095 123.897C131.492 122.624 132.508 121.223 133.27 119.695C134.794 116.257 134.54 112.437 132.508 108.235C132 107.471 131.619 106.961 131.365 106.579ZM129.968 98.5573C130.349 100.213 129.586 102.377 127.808 105.051L109.646 107.471C106.851 107.853 104.057 106.834 102.406 104.797C101.136 103.269 100.755 101.613 102.533 98.1753C103.676 98.5573 104.946 98.812 106.216 98.812C106.724 98.812 107.36 98.812 107.868 98.6846L128.189 96.0106C129.205 96.7746 129.84 97.5386 129.968 98.5573ZM127.173 92.1905L107.487 94.7373C104.692 95.1193 101.898 94.1006 100.247 92.0632C98.9768 90.5352 98.5958 88.7525 100.501 85.1871C101.263 85.3145 102.025 85.4418 102.66 85.4418C103.168 85.4418 103.803 85.4418 104.311 85.3145L126.157 82.3857C128.062 85.3145 128.443 88.3705 127.173 92.1905ZM97.9607 70.1616C105.2 68.2516 113.075 66.7235 120.569 67.4875C123.363 67.7422 125.903 69.3976 126.792 71.8169C127.554 73.9816 127.3 76.2737 125.776 78.8204L103.803 81.7491C102.279 82.0037 100.755 81.7491 99.3578 81.1124C99.1038 80.9851 98.9768 80.9851 98.7228 80.8577C97.8337 80.3484 97.0716 79.8391 96.5636 79.075C95.0395 77.165 94.7854 75.1277 97.9607 70.1616ZM86.5297 134.466C82.5924 134.466 78.9091 132.683 76.6229 129.627C69.3832 119.822 68.4941 102.505 73.5746 67.8695C74.2096 63.1581 73.0665 58.4468 70.3993 54.6267L60.2384 40.4925C59.7304 39.7285 59.7304 38.7098 60.4924 37.9458C62.0166 36.2904 64.0488 35.1444 66.462 34.7624C73.5746 33.2344 80.6872 38.3278 82.3384 45.8406C83.3544 50.552 83.3544 56.2821 82.4654 63.4128V63.6675V63.9222C82.7194 66.2142 83.2274 69.5249 85.6406 71.1803C87.4188 72.3263 89.705 72.5809 92.6263 71.6896C92.7533 71.6896 92.8803 71.6896 93.0073 71.5623C91.6102 74.873 91.2291 78.1837 93.7694 81.3671C94.6584 82.5131 95.8015 83.4044 97.0716 84.0411C95.2935 87.6065 94.6584 91.1719 97.4527 94.6099C98.0877 95.2466 98.7228 95.8833 99.3578 96.5199C97.4527 100.085 96.8176 103.778 99.6119 107.343C100.628 108.617 102.025 109.635 103.549 110.399C101.898 113.838 101.517 116.894 103.803 119.95C105.581 122.369 108.503 123.642 111.551 123.642C112.059 123.642 112.44 123.642 112.948 123.515L126.665 121.605C116.504 130.009 103.041 134.338 86.5297 134.466ZM129.459 117.658L112.313 120.077C110.027 120.459 107.614 119.44 106.343 117.658C105.2 116.257 104.946 114.602 106.724 111.163C107.36 111.291 107.995 111.291 108.63 111.291C109.138 111.291 109.773 111.291 110.281 111.163L128.443 108.744C130.095 112.182 130.476 115.111 129.459 117.658Z" fill="white"/>
<path d="M132.127 107.98C131.873 107.471 131.619 106.961 131.365 106.452C131.492 106.197 131.746 105.943 131.873 105.688L132.127 107.98Z" fill="white"/>
<path d="M154.481 14.3886C150.797 14.3886 147.749 11.3326 147.749 7.63988C147.749 3.94716 150.797 0.891113 154.481 0.891113C158.164 0.891113 161.212 3.94716 161.212 7.63988C161.212 11.3326 158.164 14.3886 154.481 14.3886ZM154.481 3.43782C152.194 3.43782 150.289 5.34784 150.289 7.63988C150.289 9.93191 152.194 11.8419 154.481 11.8419C156.767 11.8419 158.672 9.93191 158.672 7.63988C158.672 5.34784 156.767 3.43782 154.481 3.43782Z" fill="#4CD964"/>
<path d="M23.5482 83.0859C19.8649 83.0859 16.8167 80.0299 16.8167 76.3371C16.8167 72.6444 19.8649 69.5884 23.5482 69.5884C27.2316 69.5884 30.2798 72.6444 30.2798 76.3371C30.2798 80.0299 27.3586 83.0859 23.5482 83.0859ZM23.5482 72.1351C21.262 72.1351 19.3569 74.0451 19.3569 76.3371C19.3569 78.6292 21.262 80.5392 23.5482 80.5392C25.8344 80.5392 27.7396 78.6292 27.7396 76.3371C27.7396 74.0451 25.9614 72.1351 23.5482 72.1351Z" fill="#FA260C"/>
<path d="M169.468 79.4569C167.562 79.4569 166.038 77.9289 166.038 76.0189C166.038 74.1088 167.562 72.5808 169.468 72.5808C171.373 72.5808 172.897 74.1088 172.897 76.0189C172.897 77.9289 171.373 79.4569 169.468 79.4569ZM169.468 73.9815C168.325 73.9815 167.308 75.0002 167.308 76.1462C167.308 77.2922 168.325 78.3109 169.468 78.3109C170.611 78.3109 171.627 77.2922 171.627 76.1462C171.627 75.0002 170.738 73.9815 169.468 73.9815Z" fill="#FA260C"/>
<path d="M20.754 35.0298C22.9285 35.0298 24.6913 33.2625 24.6913 31.0824C24.6913 28.9023 22.9285 27.135 20.754 27.135C18.5795 27.135 16.8167 28.9023 16.8167 31.0824C16.8167 33.2625 18.5795 35.0298 20.754 35.0298Z" fill="#4CD964"/>
<path d="M157.402 122.751C158.945 122.751 160.196 121.497 160.196 119.95C160.196 118.402 158.945 117.148 157.402 117.148C155.858 117.148 154.607 118.402 154.607 119.95C154.607 121.497 155.858 122.751 157.402 122.751Z" fill="white"/>
<path d="M50.7401 138.462C52.9146 138.462 54.6774 136.694 54.6774 134.514C54.6774 132.334 52.9146 130.567 50.7401 130.567C48.5655 130.567 46.8027 132.334 46.8027 134.514C46.8027 136.694 48.5655 138.462 50.7401 138.462Z" fill="#FA260C"/>
<path d="M143.773 99.0957C145.948 99.0957 147.711 97.3284 147.711 95.1483C147.711 92.9682 145.948 91.2009 143.773 91.2009C141.599 91.2009 139.836 92.9682 139.836 95.1483C139.836 97.3284 141.599 99.0957 143.773 99.0957Z" fill="white"/>
<path d="M46.6476 41.2561H45.3774V47.1135H46.6476V41.2561Z" fill="#4CD964"/>
<path d="M48.9338 43.5481H43.0913V44.8214H48.9338V43.5481Z" fill="#4CD964"/>
<path fill-rule="evenodd" clip-rule="evenodd" d="M101.39 7.64014H102.66V9.93197H104.946V11.2053H102.66V13.4976H101.39V11.2053H99.1038V9.93197H101.39V7.64014Z" fill="white"/>
<path fill-rule="evenodd" clip-rule="evenodd" d="M127.554 36.6724H128.824V38.9642H131.11V40.2375H128.824V42.5298H127.554V40.2375H125.268V38.9642H127.554V36.6724Z" fill="#4CD964"/>
</g>
<defs>
<clipPath id="clip0_1_1967">
<rect width="172.227" height="137.395" fill="white" transform="translate(0.670166 0.891602)"/>
</clipPath>
</defs>
</svg>
