<svg width="20" height="20" viewBox="0 0 20 20" fill="none" xmlns="http://www.w3.org/2000/svg">
<g opacity="0.5">
<path d="M14.8497 12.2621H13.2491V13.8627H14.8497M14.8497 9.06096H13.2491V10.6615H14.8497M16.4503 15.4632H10.048V13.8627H11.6486V12.2621H10.048V10.6615H11.6486V9.06096H10.048V7.46039H16.4503M8.44743 5.85982H6.84687V4.25926H8.44743M8.44743 9.06096H6.84687V7.46039H8.44743M8.44743 12.2621H6.84687V10.6615H8.44743M8.44743 15.4632H6.84687V13.8627H8.44743M5.2463 5.85982H3.64573V4.25926H5.2463M5.2463 9.06096H3.64573V7.46039H5.2463M5.2463 12.2621H3.64573V10.6615H5.2463M5.2463 15.4632H3.64573V13.8627H5.2463M10.048 5.85982V2.65869H2.04517V17.0638H18.0508V5.85982H10.048Z" fill="black"/>
</g>
</svg>
