<svg width="24" height="28" viewBox="0 0 24 28" fill="none" xmlns="http://www.w3.org/2000/svg">
<path d="M22.6623 4.6114H18.971C18.6946 3.33703 17.9634 2.19198 16.9005 1.36924C15.8377 0.546495 14.5082 0.096369 13.1362 0.0947266L10.7547 0.0947266C9.38273 0.096369 8.05328 0.546495 6.99044 1.36924C5.92761 2.19198 5.19638 3.33703 4.92001 4.6114H1.22866C0.912852 4.6114 0.609978 4.73036 0.386668 4.94212C0.163357 5.15388 0.0379028 5.44109 0.0379028 5.74056C0.0379028 6.04004 0.163357 6.32725 0.386668 6.53901C0.609978 6.75077 0.912852 6.86973 1.22866 6.86973H2.41942V21.5489C2.42131 23.0457 3.04919 24.4807 4.16533 25.5391C5.28148 26.5975 6.79475 27.193 8.37321 27.1947H15.5178C17.0962 27.193 18.6095 26.5975 19.7256 25.5391C20.8418 24.4807 21.4697 23.0457 21.4716 21.5489V6.86973H22.6623C22.9781 6.86973 23.281 6.75077 23.5043 6.53901C23.7276 6.32725 23.8531 6.04004 23.8531 5.74056C23.8531 5.44109 23.7276 5.15388 23.5043 4.94212C23.281 4.73036 22.9781 4.6114 22.6623 4.6114ZM10.7547 2.35306H13.1362C13.8748 2.35392 14.5951 2.57142 15.1982 2.97573C15.8013 3.38005 16.2577 3.95139 16.5049 4.6114H7.38607C7.63325 3.95139 8.08969 3.38005 8.69279 2.97573C9.2959 2.57142 10.0161 2.35392 10.7547 2.35306ZM19.09 21.5489C19.09 22.4473 18.7137 23.309 18.0437 23.9442C17.3738 24.5795 16.4652 24.9364 15.5178 24.9364H8.37321C7.42579 24.9364 6.51716 24.5795 5.84723 23.9442C5.1773 23.309 4.80094 22.4473 4.80094 21.5489V6.86973H19.09V21.5489Z" fill="white"/>
<path d="M9.07126 20.625C9.28906 20.625 9.49794 20.506 9.65194 20.2943C9.80595 20.0825 9.89247 19.7953 9.89247 19.4958V12.7208C9.89247 12.4214 9.80595 12.1342 9.65194 11.9224C9.49794 11.7106 9.28906 11.5917 9.07126 11.5917C8.85346 11.5917 8.64458 11.7106 8.49057 11.9224C8.33657 12.1342 8.25005 12.4214 8.25005 12.7208V19.4958C8.25005 19.7953 8.33657 20.0825 8.49057 20.2943C8.64458 20.506 8.85346 20.625 9.07126 20.625Z" fill="white"/>
<path d="M14.8197 20.625C15.0375 20.625 15.2464 20.506 15.4004 20.2943C15.5544 20.0825 15.641 19.7953 15.641 19.4958V12.7208C15.641 12.4214 15.5544 12.1342 15.4004 11.9224C15.2464 11.7106 15.0375 11.5917 14.8197 11.5917C14.6019 11.5917 14.3931 11.7106 14.2391 11.9224C14.0851 12.1342 13.9985 12.4214 13.9985 12.7208V19.4958C13.9985 19.7953 14.0851 20.0825 14.2391 20.2943C14.3931 20.506 14.6019 20.625 14.8197 20.625Z" fill="white"/>
</svg>
