<svg width="32" height="32" viewBox="0 0 32 32" fill="none" xmlns="http://www.w3.org/2000/svg">
<path d="M10.8223 22.052C11.113 22.052 11.3566 21.9534 11.553 21.756C11.7486 21.5596 11.8463 21.3156 11.8463 21.024C11.8463 20.7325 11.7477 20.4889 11.5503 20.2934C11.353 20.0978 11.109 20 10.8183 20C10.5277 20 10.2841 20.0987 10.0877 20.296C9.89123 20.4934 9.79345 20.7374 9.79434 21.028C9.79523 21.3187 9.8939 21.5618 10.0903 21.7574C10.2868 21.9529 10.5308 22.052 10.8223 22.052ZM10.8223 17.0254C11.113 17.0254 11.3566 16.9272 11.553 16.7307C11.7486 16.5334 11.8463 16.2889 11.8463 15.9974C11.8463 15.7058 11.7477 15.4627 11.5503 15.268C11.353 15.0734 11.109 14.9756 10.8183 14.9747C10.5277 14.9738 10.2841 15.072 10.0877 15.2694C9.89123 15.4667 9.79345 15.7112 9.79434 16.0027C9.79523 16.2943 9.8939 16.5374 10.0903 16.732C10.2868 16.9267 10.5308 17.0245 10.8223 17.0254ZM10.8223 12C11.113 12 11.3566 11.9018 11.553 11.7054C11.7486 11.508 11.8463 11.2636 11.8463 10.972C11.8463 10.6805 11.7477 10.4374 11.5503 10.2427C11.353 10.048 11.109 9.95026 10.8183 9.94937C10.5277 9.94849 10.2841 10.0467 10.0877 10.244C9.89212 10.4414 9.79434 10.6854 9.79434 10.976C9.79434 11.2667 9.89301 11.5103 10.0903 11.7067C10.2877 11.9032 10.5317 12.0009 10.8223 12ZM14.9223 21.6934H22.1023V20.36H14.9223V21.6934ZM14.9223 16.6667H22.1023V15.3334H14.9223V16.6667ZM14.9223 11.64H22.1023V10.3067H14.9223V11.64ZM7.48767 26.6667C6.87345 26.6667 6.36101 26.4614 5.95034 26.0507C5.53967 25.64 5.3339 25.1272 5.33301 24.512V7.48804C5.33301 6.87382 5.53879 6.36137 5.95034 5.95071C6.3619 5.54004 6.87434 5.33426 7.48767 5.33337H24.513C25.1263 5.33337 25.6388 5.53915 26.0503 5.95071C26.4619 6.36226 26.6672 6.87471 26.6663 7.48804V24.5134C26.6663 25.1267 26.461 25.6392 26.0503 26.0507C25.6397 26.4623 25.1268 26.6676 24.5117 26.6667H7.48767ZM7.48767 25.3334H24.513C24.7175 25.3334 24.9055 25.248 25.077 25.0774C25.2486 24.9067 25.3339 24.7183 25.333 24.512V7.48804C25.333 7.28271 25.2477 7.09426 25.077 6.92271C24.9063 6.75115 24.7179 6.66582 24.5117 6.66671H7.48767C7.28234 6.66671 7.0939 6.75204 6.92234 6.92271C6.75079 7.09337 6.66545 7.28182 6.66634 7.48804V24.5134C6.66634 24.7178 6.75167 24.9058 6.92234 25.0774C7.09301 25.2489 7.28101 25.3343 7.48634 25.3334" fill="white"/>
</svg>
