<svg width="20" height="20" viewBox="0 0 20 20" fill="none" xmlns="http://www.w3.org/2000/svg">
<path d="M16.8999 5.63867L12.6968 1.43359C12.5796 1.31641 12.4194 1.25 12.2534 1.25H3.9585C3.61279 1.25 3.3335 1.5293 3.3335 1.875V18.125C3.3335 18.4707 3.61279 18.75 3.9585 18.75H16.4585C16.8042 18.75 17.0835 18.4707 17.0835 18.125V6.08008C17.0835 5.91406 17.0171 5.75586 16.8999 5.63867ZM8.021 7.85156C8.45264 7.85156 8.80225 8.20117 8.80225 8.63281C8.80225 9.06445 8.45264 9.41406 8.021 9.41406C7.58935 9.41406 7.23975 9.06445 7.23975 8.63281C7.23975 8.20117 7.58935 7.85156 8.021 7.85156ZM13.8022 13.5938H6.61475C6.48389 13.5938 6.41162 13.4434 6.4917 13.3418L8.44092 10.8574C8.45553 10.8387 8.47421 10.8236 8.49553 10.8133C8.51685 10.8029 8.54025 10.7975 8.56396 10.7975C8.58768 10.7975 8.61108 10.8029 8.6324 10.8133C8.65372 10.8236 8.6724 10.8387 8.68701 10.8574L9.48975 11.8809L11.0093 9.94336C11.0239 9.92468 11.0426 9.90958 11.0639 9.89919C11.0852 9.88881 11.1086 9.88341 11.1323 9.88341C11.156 9.88341 11.1794 9.88881 11.2008 9.89919C11.2221 9.90958 11.2408 9.92468 11.2554 9.94336L13.9214 13.3418C14.0054 13.4434 13.9312 13.5938 13.8022 13.5938ZM11.9663 6.36719V2.69141L15.6421 6.36719H11.9663Z" fill="white"/>
</svg>
