<svg width="18" height="24" viewBox="0 0 18 24" fill="none" xmlns="http://www.w3.org/2000/svg">
<path fill-rule="evenodd" clip-rule="evenodd" d="M10.3998 0.391113L11.0098 0.399113L11.3115 0.400066L17.5998 6.79706V21.1001C17.5998 22.2599 16.6596 23.2001 15.4998 23.2001H2.8998C1.74001 23.2001 0.799805 22.2599 0.799805 21.1001V2.50007C0.799805 1.34027 1.74001 0.400066 2.8998 0.400066L10.3988 0.399113L10.3998 0.391113ZM10.3988 1.59911L2.8998 1.60007C2.40275 1.60007 1.9998 2.00301 1.9998 2.50007V21.1001C1.9998 21.5971 2.40275 22.0001 2.8998 22.0001H15.4998C15.9969 22.0001 16.3998 21.5971 16.3998 21.1001V7.64011L12.4998 7.60007C11.34 7.60007 10.3998 6.65986 10.3998 5.50007L10.3988 1.59911ZM11.5998 5.50007V2.40501L15.5588 6.43205L12.5061 6.4001C12.0027 6.40007 11.5998 5.99712 11.5998 5.50007Z" fill="white"/>
</svg>
