<svg width="20" height="20" viewBox="0 0 20 20" fill="none" xmlns="http://www.w3.org/2000/svg">
<path d="M10.6275 3.33338C10.6275 3.16707 10.5614 3.00757 10.4438 2.88997C10.3262 2.77237 10.1667 2.7063 10.0004 2.7063C9.8341 2.7063 9.6746 2.77237 9.557 2.88997C9.4394 3.00757 9.37333 3.16707 9.37333 3.33338V3.72005H9.33083C8.45583 3.72005 7.9475 4.38255 7.84667 5.02005C7.74583 5.64922 8.01333 6.43672 8.8175 6.72672L10.7858 7.43588C10.8542 7.46088 10.88 7.49422 10.8933 7.51922C10.91 7.55255 10.9208 7.60255 10.91 7.66088C10.9031 7.70882 10.8809 7.75324 10.8467 7.78755C10.8258 7.80672 10.7892 7.83005 10.7117 7.83005H9.33083C9.29538 7.82961 9.26035 7.8222 9.22776 7.80823C9.19517 7.79425 9.16565 7.774 9.14089 7.74862C9.11612 7.72324 9.0966 7.69322 9.08344 7.6603C9.07027 7.62737 9.06373 7.59217 9.06417 7.55672C9.06417 7.39051 8.99814 7.23112 8.88062 7.1136C8.7631 6.99607 8.6037 6.93005 8.4375 6.93005C8.2713 6.93005 8.1119 6.99607 7.99438 7.1136C7.87686 7.23112 7.81083 7.39051 7.81083 7.55672C7.81083 8.39505 8.48583 9.08422 9.33083 9.08422H9.39417V9.58338C9.39417 9.7497 9.46024 9.9092 9.57784 10.0268C9.69544 10.1444 9.85494 10.2105 10.0213 10.2105C10.1876 10.2105 10.3471 10.1444 10.4647 10.0268C10.5823 9.9092 10.6483 9.7497 10.6483 9.58338V9.08422H10.7117C12.3483 9.08422 12.7333 6.80505 11.2108 6.25588L9.24333 5.54755C9.21513 5.53895 9.18898 5.52468 9.16649 5.50563C9.14399 5.48657 9.12562 5.46312 9.1125 5.43672C9.08074 5.36831 9.07085 5.29178 9.08417 5.21755C9.09317 5.14715 9.12441 5.08146 9.17333 5.03005C9.20333 5.00005 9.2475 4.97422 9.33083 4.97422H10.67C10.8117 4.97422 10.9358 5.09088 10.9358 5.24755C10.9358 5.41386 11.0019 5.57336 11.1195 5.69096C11.2371 5.80856 11.3966 5.87463 11.5629 5.87463C11.7292 5.87463 11.8887 5.80856 12.0063 5.69096C12.1239 5.57336 12.19 5.41386 12.19 5.24755C12.19 4.40922 11.515 3.72005 10.67 3.72005H10.6275V3.33338ZM7.86083 10.8317C7.14167 10.8317 6.5925 11.0034 6.14167 11.285C5.725 11.545 5.42083 11.885 5.1775 12.1567L5.15167 12.1859C4.88833 12.4792 4.68583 12.6975 4.42417 12.8575C4.18083 13.0067 3.85333 13.1234 3.33333 13.1234C3.25098 13.1232 3.16939 13.1392 3.09326 13.1706C3.01713 13.2021 2.94796 13.2482 2.88972 13.3064C2.83149 13.3647 2.78534 13.4338 2.75392 13.51C2.72251 13.5861 2.70645 13.6677 2.70667 13.75V16.6667C2.70667 17.0134 2.9875 17.2934 3.33333 17.2934H11.2517C12.705 17.2934 14.1067 16.51 15.0875 15.8067C15.6759 15.3816 16.2285 14.9092 16.74 14.3942L16.7433 14.3909C17.0467 14.1409 17.235 13.8175 17.2825 13.4601C17.3308 13.0967 17.2242 12.7517 17.0325 12.4851C16.8178 12.1846 16.4942 11.9799 16.1307 11.9145C15.7673 11.8491 15.3926 11.9283 15.0867 12.135C14.9222 12.2517 14.7614 12.3673 14.6042 12.4817C14.1283 12.8267 13.6692 13.1601 13.1767 13.4392C12.535 13.8034 11.9075 14.0326 11.2517 14.0326H8.75C8.58333 14.0326 8.51417 13.9809 8.49 13.9559C8.47333 13.9396 8.46026 13.9199 8.45165 13.8983C8.44303 13.8766 8.43907 13.8534 8.44 13.8301C8.43895 13.8066 8.44286 13.7832 8.45147 13.7614C8.46009 13.7395 8.47322 13.7198 8.49 13.7034C8.515 13.6784 8.58333 13.6267 8.75 13.6267H10.4183C10.8625 13.6267 11.2567 13.4875 11.5467 13.2192C11.6834 13.0931 11.7926 12.94 11.8672 12.7696C11.9419 12.5993 11.9804 12.4152 11.9804 12.2292C11.9804 12.0432 11.9419 11.8592 11.8672 11.6888C11.7926 11.5184 11.6834 11.3653 11.5467 11.2392C11.2567 10.9709 10.8625 10.8309 10.4183 10.8309L7.86083 10.8317Z" fill="white"/>
</svg>
