<svg width="19" height="19" viewBox="0 0 19 19" fill="none" xmlns="http://www.w3.org/2000/svg">
<g clip-path="url(#clip0_484_570)">
<path fill-rule="evenodd" clip-rule="evenodd" d="M13.8603 3.44427C12.6505 2.5735 11.2076 2.08498 9.71762 2.04166C8.22763 1.99835 6.75881 2.40221 5.50042 3.20122C4.24204 4.00024 3.25176 5.15778 2.65719 6.52469C2.06262 7.8916 1.89101 9.40524 2.16448 10.8706C2.20953 11.1338 2.1493 11.4042 1.99679 11.6235C1.84427 11.8428 1.61169 11.9933 1.34919 12.0426C1.0867 12.0919 0.815341 12.0361 0.593634 11.8872C0.371926 11.7382 0.217639 11.5081 0.164048 11.2465C-0.189616 9.35376 0.0402934 7.39825 0.823299 5.63916C1.6063 3.88007 2.90543 2.40049 4.54846 1.39653C6.1915 0.392578 8.10085 -0.0883319 10.0234 0.0175502C11.946 0.123432 13.791 0.811106 15.3138 1.98942L16.1444 1.15884C16.2392 1.06378 16.3601 0.998987 16.4918 0.97266C16.6234 0.946334 16.76 0.959659 16.884 1.01095C17.0081 1.06224 17.1142 1.14919 17.1889 1.2608C17.2635 1.3724 17.3034 1.50365 17.3034 1.63792V4.74984C17.3034 4.92981 17.2319 5.10241 17.1047 5.22967C16.9774 5.35692 16.8048 5.42842 16.6248 5.42842H13.5129C13.3789 5.42812 13.248 5.38816 13.1367 5.31358C13.0254 5.239 12.9386 5.13313 12.8874 5.00932C12.8362 4.88551 12.8227 4.74931 12.8488 4.61787C12.8748 4.48644 12.9392 4.36567 13.0338 4.27077L13.8603 3.44427ZM17.6481 6.94163C17.9134 6.8916 18.1877 6.949 18.4106 7.1012C18.6336 7.2534 18.7869 7.48793 18.837 7.7532C19.1909 9.64615 18.9612 11.602 18.1781 13.3614C17.3951 15.1207 16.0958 16.6006 14.4525 17.6046C12.8092 18.6086 10.8995 19.0894 8.97664 18.9833C7.05381 18.8772 5.20865 18.1891 3.68583 17.0103L2.85526 17.8422C2.76036 17.9373 2.63934 18.0022 2.50755 18.0285C2.37576 18.0547 2.23913 18.0413 2.11499 17.9898C1.99085 17.9384 1.88478 17.8512 1.81024 17.7394C1.73569 17.6276 1.69602 17.4962 1.69626 17.3618V14.2498C1.69626 14.0699 1.76775 13.8973 1.89501 13.77C2.02227 13.6428 2.19487 13.5713 2.37483 13.5713H5.48676C5.62115 13.571 5.75258 13.6107 5.86439 13.6852C5.97621 13.7598 6.06337 13.8659 6.11483 13.99C6.16629 14.1141 6.17973 14.2508 6.15344 14.3826C6.12716 14.5144 6.06234 14.6354 5.96719 14.7303L5.13933 15.5568C6.34917 16.4275 7.79205 16.9161 9.28205 16.9594C10.772 17.0027 12.2409 16.5988 13.4992 15.7998C14.7576 15.0008 15.7479 13.8433 16.3425 12.4764C16.937 11.1095 17.1087 9.59581 16.8352 8.13049C16.8104 7.99895 16.8119 7.86382 16.8394 7.73283C16.867 7.60185 16.9201 7.47759 16.9957 7.36716C17.0714 7.25673 17.1681 7.16231 17.2802 7.08929C17.3924 7.01627 17.5179 6.96609 17.6495 6.94163H17.6481ZM10.3508 4.96292C10.3508 4.69296 10.2435 4.43407 10.0526 4.24318C9.86175 4.0523 9.60286 3.94506 9.3329 3.94506C9.06295 3.94506 8.80406 4.0523 8.61317 4.24318C8.42229 4.43407 8.31505 4.69296 8.31505 4.96292V5.42842C7.78446 5.5162 7.30106 5.78617 6.94802 6.19186C6.59497 6.59756 6.39437 7.11362 6.38071 7.65124C6.36705 8.18887 6.5412 8.71445 6.87319 9.13754C7.20518 9.56064 7.67425 9.8548 8.19969 9.96942L9.90969 10.3426C10.0111 10.3684 10.0998 10.4298 10.1595 10.5157C10.2192 10.6016 10.2459 10.7062 10.2347 10.8102C10.2235 10.9142 10.1751 11.0107 10.0984 11.0818C10.0217 11.153 9.92196 11.1941 9.81741 11.1976H8.84841C8.75921 11.1973 8.67228 11.1695 8.59944 11.118C8.52659 11.0665 8.47137 10.9939 8.44126 10.9099C8.39671 10.7838 8.32775 10.6677 8.23833 10.5683C8.14892 10.4689 8.04079 10.388 7.92012 10.3303C7.79945 10.2727 7.66861 10.2394 7.53507 10.2323C7.40152 10.2252 7.26789 10.2445 7.1418 10.289C7.01571 10.3336 6.89962 10.4025 6.80018 10.492C6.70074 10.5814 6.61988 10.6895 6.56222 10.8102C6.50457 10.9308 6.47125 11.0617 6.46416 11.1952C6.45707 11.3288 6.47635 11.4624 6.52091 11.5885C6.66055 11.9835 6.89836 12.3365 7.21198 12.6142C7.52561 12.892 7.90473 13.0854 8.31369 13.1763V13.6676C8.31369 13.9376 8.42093 14.1965 8.61181 14.3874C8.8027 14.5782 9.0616 14.6855 9.33155 14.6855C9.6015 14.6855 9.8604 14.5782 10.0513 14.3874C10.2422 14.1965 10.3494 13.9376 10.3494 13.6676V13.1763C10.8976 13.0535 11.3876 12.7474 11.7384 12.3086C12.0893 11.8698 12.28 11.3245 12.2792 10.7627C12.2784 10.2008 12.0861 9.65608 11.7341 9.21827C11.382 8.78045 10.8912 8.47574 10.3426 8.35442L8.63262 7.97984C8.56627 7.96488 8.50775 7.92601 8.46822 7.87066C8.42869 7.81531 8.41092 7.74734 8.41831 7.67972C8.42569 7.61211 8.4577 7.54957 8.50825 7.50405C8.55879 7.45853 8.62432 7.43321 8.69233 7.43292H9.81605C9.90524 7.43326 9.99217 7.46106 10.065 7.51253C10.1379 7.56401 10.1931 7.63667 10.2232 7.72063C10.3132 7.97529 10.5006 8.18376 10.7443 8.3002C10.865 8.35786 10.9958 8.39118 11.1294 8.39827C11.2629 8.40536 11.3966 8.38608 11.5227 8.34152C11.6487 8.29697 11.7648 8.22801 11.8643 8.1386C11.9637 8.04918 12.0446 7.94105 12.1022 7.82038C12.1599 7.69972 12.1932 7.56888 12.2003 7.43533C12.2074 7.30179 12.1881 7.16815 12.1435 7.04206C12.0038 6.6469 11.7658 6.29381 11.4519 6.01603C11.138 5.73824 10.7586 5.5449 10.3494 5.4542V4.96563L10.3508 4.96292Z" fill="white"/>
</g>
<defs>
<clipPath id="clip0_484_570">
<rect width="19" height="19" fill="white"/>
</clipPath>
</defs>
</svg>
