<svg width="22" height="22" viewBox="0 0 22 22" fill="none" xmlns="http://www.w3.org/2000/svg">
<path fill-rule="evenodd" clip-rule="evenodd" d="M19.667 4.96455C19.7541 5.09674 19.7929 5.25494 19.7769 5.41242C19.7608 5.56991 19.6909 5.71704 19.579 5.82897L11.1521 14.255C11.0659 14.3411 10.9583 14.4028 10.8404 14.4337L7.33049 15.3504C7.21446 15.3806 7.09254 15.38 6.97683 15.3486C6.86112 15.3172 6.75563 15.2561 6.67085 15.1713C6.58606 15.0865 6.52493 14.981 6.49351 14.8653C6.46209 14.7496 6.46148 14.6277 6.49174 14.5116L7.4084 11.0026C7.43516 10.8973 7.48564 10.7995 7.55599 10.7166L16.0141 2.26405C16.143 2.1353 16.3177 2.06299 16.4999 2.06299C16.6821 2.06299 16.8568 2.1353 16.9857 2.26405L19.579 4.85638C19.6119 4.88939 19.6414 4.92563 19.667 4.96455ZM18.1206 5.34222L16.4999 3.72247L8.69174 11.5306L8.11882 13.7242L10.3124 13.1513L18.1206 5.34222Z" fill="#E6E6E6"/>
<path d="M18.0043 15.7301C18.2549 13.5887 18.3349 11.4308 18.2436 9.27673C18.2416 9.22598 18.2501 9.17536 18.2686 9.12805C18.287 9.08073 18.315 9.03773 18.3508 9.00173L19.2528 8.09973C19.2775 8.07494 19.3088 8.0578 19.3429 8.05036C19.3771 8.04292 19.4127 8.04551 19.4454 8.0578C19.4781 8.0701 19.5066 8.09158 19.5274 8.11967C19.5482 8.14776 19.5604 8.18126 19.5627 8.21614C19.7324 10.7748 19.668 13.3436 19.3702 15.8905C19.1538 17.744 17.6652 19.1969 15.8199 19.4031C12.6165 19.7579 9.38369 19.7579 6.18026 19.4031C4.33593 19.1969 2.84634 17.744 2.63001 15.8905C2.24996 12.6413 2.24996 9.35884 2.63001 6.10964C2.84634 4.25614 4.33501 2.80323 6.18026 2.59698C8.6116 2.32737 11.0613 2.26206 13.5035 2.40173C13.5385 2.40423 13.572 2.41671 13.6 2.43767C13.6281 2.45863 13.6496 2.4872 13.662 2.51999C13.6743 2.55279 13.677 2.58843 13.6697 2.62271C13.6624 2.65699 13.6455 2.68846 13.6208 2.71339L12.7106 3.62273C12.6749 3.65825 12.6324 3.68609 12.5856 3.70453C12.5387 3.72298 12.4886 3.73164 12.4383 3.72998C10.4004 3.6607 8.36005 3.73882 6.33334 3.96373C5.74112 4.02927 5.18829 4.29256 4.76415 4.71104C4.34001 5.12952 4.06933 5.67877 3.99584 6.27006C3.6283 9.41268 3.6283 12.5874 3.99584 15.7301C4.06933 16.3213 4.34001 16.8706 4.76415 17.2891C5.18829 17.7076 5.74112 17.9708 6.33334 18.0364C9.40876 18.3801 12.5914 18.3801 15.6678 18.0364C16.26 17.9708 16.8128 17.7076 17.2369 17.2891C17.6611 16.8706 17.9308 16.3213 18.0043 15.7301Z" fill="#E6E6E6"/>
</svg>
