<svg width="20" height="20" viewBox="0 0 20 20" fill="none" xmlns="http://www.w3.org/2000/svg">
<path d="M14.0494 3.38184H6.04658C3.64573 3.38184 2.04517 4.58226 2.04517 7.38325V12.9852C2.04517 15.7862 3.64573 16.9867 6.04658 16.9867H14.0494C16.4503 16.9867 18.0508 15.7862 18.0508 12.9852V7.38325C18.0508 4.58226 16.4503 3.38184 14.0494 3.38184ZM14.4255 8.25556L11.9207 10.2563C11.3925 10.6804 10.7202 10.8885 10.048 10.8885C9.37576 10.8885 8.69552 10.6804 8.17534 10.2563L5.67045 8.25556C5.41436 8.04749 5.37434 7.66335 5.57441 7.40726C5.78249 7.15117 6.15862 7.10315 6.41471 7.31123L8.9196 9.31193C9.52781 9.80011 10.5602 9.80011 11.1684 9.31193L13.6733 7.31123C13.9294 7.10315 14.3135 7.14317 14.5136 7.40726C14.7217 7.66335 14.6816 8.04749 14.4255 8.25556Z" fill="black"/>
</svg>
