<svg width="95" height="95" viewBox="0 0 95 95" fill="none" xmlns="http://www.w3.org/2000/svg">
<path d="M60.3646 25.7292C62.7267 25.7292 64.992 24.7909 66.6622 23.1207C68.3325 21.4504 69.2708 19.1851 69.2708 16.823C69.2708 14.4609 68.3325 12.1956 66.6622 10.5253C64.992 8.85508 62.7267 7.91675 60.3646 7.91675C58.0025 7.91675 55.7372 8.85508 54.0669 10.5253C52.3967 12.1956 51.4583 14.4609 51.4583 16.823C51.4583 19.1851 52.3967 21.4504 54.0669 23.1207C55.7372 24.7909 58.0025 25.7292 60.3646 25.7292ZM42.4729 34.204C40.0049 34.8176 38.3206 35.7399 36.9609 36.8838C34.9224 38.6017 33.2757 41.0797 31.0511 44.9747C30.5302 45.8862 29.6684 46.5534 28.6555 46.8295C27.6426 47.1057 26.5615 46.9681 25.65 46.4472C24.7385 45.9262 24.0713 45.0645 23.7951 44.0516C23.519 43.0386 23.6565 41.9575 24.1775 41.046C26.3922 37.1728 28.6306 33.5489 31.8626 30.8296C35.2351 27.9875 39.3636 26.3804 44.931 25.7609C47.2585 25.5036 49.8196 25.5551 52.2203 26.6258C54.7398 27.752 56.5804 29.7687 57.8352 32.4644C59.5254 36.0922 60.7822 38.2514 61.7876 39.5042C62.2725 40.1039 62.6109 40.383 62.8029 40.5077C62.9553 40.6066 63.0206 40.6146 63.0444 40.6185C63.2166 40.6383 63.7767 40.6185 65.4154 39.8922C66.1299 39.5755 66.9097 39.1955 67.8636 38.7304L68.0912 38.6196C69.258 38.0439 70.4351 37.4897 71.6221 36.9571C72.5804 36.5363 73.6663 36.5123 74.6424 36.8902C75.6184 37.268 76.405 38.0171 76.8302 38.9734C77.2554 39.9298 77.2845 41.0156 76.9112 41.9934C76.5379 42.9711 75.7926 43.7613 74.8382 44.1909C73.7382 44.6845 72.6475 45.1985 71.5667 45.7327L71.3074 45.8594C70.395 46.3047 69.4767 46.7539 68.6157 47.1339C66.8345 47.9216 64.5584 48.7766 62.0904 48.4778C59.4858 48.1611 57.479 46.6906 55.8263 44.7174L50.4173 55.1535L57.8985 64.8871C58.3438 65.4689 58.6189 66.1616 58.6961 66.89L60.3428 82.7154C60.4055 83.2368 60.3639 83.7655 60.2203 84.2706C60.0767 84.7758 59.834 85.2473 59.5064 85.6577C59.1788 86.0681 58.7727 86.4093 58.312 86.6612C57.8512 86.9132 57.3449 87.071 56.8226 87.1253C56.3002 87.1797 55.7723 87.1296 55.2695 86.9779C54.7667 86.8262 54.2992 86.576 53.894 86.2418C53.4889 85.9076 53.1543 85.4962 52.9098 85.0314C52.6653 84.5667 52.5157 84.0579 52.4697 83.5348L50.9378 68.8236L46.3936 62.9099L46.3541 62.9831L46.1878 62.6427L37.7922 51.7177C37.3795 51.1807 37.1114 50.5468 37.0137 49.8766C36.916 49.2065 36.9919 48.5224 37.2341 47.89L42.4729 34.204Z" fill="black"/>
<path d="M36.48 57.4097L33.5667 65.2472L22.0875 64.3368C21.5656 64.2883 21.0393 64.344 20.539 64.5005C20.0388 64.6571 19.5747 64.9115 19.1736 65.2488C18.7724 65.5862 18.4423 65.9999 18.2024 66.4659C17.9624 66.9319 17.8174 67.4409 17.7757 67.9634C17.734 68.4859 17.7965 69.0115 17.9596 69.5096C18.1227 70.0077 18.383 70.4685 18.7256 70.8652C19.0682 71.2619 19.4861 71.5867 19.9552 71.8205C20.4243 72.0544 20.9351 72.1928 21.4581 72.2277L35.9219 73.3756C36.7803 73.4439 37.6375 73.2304 38.3636 72.7675C39.0898 72.3047 39.6451 71.6176 39.9455 70.8106L42.1721 64.8177L36.48 57.4097Z" fill="black"/>
</svg>
