<svg width="11" height="13" viewBox="0 0 11 13" fill="none" xmlns="http://www.w3.org/2000/svg">
<path d="M7.53124 3.02148C7.9042 3.02148 8.26189 2.87333 8.52561 2.6096C8.78933 2.34588 8.93749 1.9882 8.93749 1.61523C8.93749 1.24227 8.78933 0.884588 8.52561 0.620865C8.26189 0.357142 7.9042 0.208984 7.53124 0.208984C7.15828 0.208984 6.8006 0.357142 6.53687 0.620865C6.27315 0.884588 6.12499 1.24227 6.12499 1.61523C6.12499 1.9882 6.27315 2.34588 6.53687 2.6096C6.8006 2.87333 7.15828 3.02148 7.53124 3.02148ZM4.70624 4.35961C4.31655 4.45648 4.05062 4.60211 3.83593 4.78273C3.51405 5.05398 3.25405 5.44523 2.9028 6.06023C2.82054 6.20416 2.68448 6.30951 2.52455 6.35311C2.36462 6.39671 2.19391 6.37499 2.04999 6.29273C1.90607 6.21048 1.80072 6.07441 1.75712 5.91448C1.71352 5.75455 1.73523 5.58384 1.81749 5.43992C2.16718 4.82836 2.52062 4.25617 3.03093 3.8268C3.56343 3.37805 4.2153 3.1243 5.09437 3.02648C5.46187 2.98586 5.86624 2.99398 6.2453 3.16305C6.64312 3.34086 6.93374 3.6593 7.13187 4.08492C7.39874 4.65773 7.59718 4.99867 7.75593 5.19648C7.83249 5.29117 7.88593 5.33523 7.91624 5.35492C7.9403 5.37055 7.95062 5.3718 7.95437 5.37242C7.98155 5.37555 8.06999 5.37242 8.32874 5.25773C8.44155 5.20773 8.56468 5.14773 8.7153 5.0743L8.75124 5.0568C8.93546 4.96591 9.12133 4.8784 9.30874 4.7943C9.46006 4.72787 9.63152 4.72407 9.78563 4.78374C9.93974 4.8434 10.0639 4.96167 10.1311 5.11267C10.1982 5.26367 10.2028 5.43512 10.1439 5.5895C10.0849 5.74389 9.96724 5.86864 9.81655 5.93648C9.64287 6.01441 9.47065 6.09557 9.29999 6.17992L9.25905 6.19992C9.11499 6.27023 8.96999 6.34117 8.83405 6.40117C8.5528 6.52555 8.19343 6.66055 7.80374 6.61336C7.39249 6.56336 7.07562 6.33117 6.81468 6.01961L5.96062 7.66742L7.14187 9.2043C7.21218 9.29617 7.25562 9.40555 7.2678 9.52055L7.5278 12.0193C7.53771 12.1016 7.53113 12.1851 7.50846 12.2649C7.48579 12.3446 7.44747 12.4191 7.39574 12.4839C7.34401 12.5487 7.2799 12.6025 7.20714 12.6423C7.13439 12.6821 7.05445 12.707 6.97197 12.7156C6.8895 12.7242 6.80614 12.7163 6.72676 12.6923C6.64737 12.6684 6.57354 12.6289 6.50958 12.5761C6.44561 12.5233 6.39278 12.4584 6.35417 12.385C6.31556 12.3116 6.29194 12.2313 6.28468 12.1487L6.0428 9.82586L5.3253 8.89211L5.31905 8.90367L5.2928 8.84992L3.96718 7.12492C3.90201 7.04014 3.85969 6.94005 3.84426 6.83423C3.82883 6.72842 3.84081 6.62041 3.87905 6.52055L4.70624 4.35961Z" fill="white"/>
<path d="M3.75998 8.02368L3.29998 9.26118L1.48748 9.11743C1.40507 9.10978 1.32197 9.11857 1.24299 9.14329C1.16401 9.16801 1.09072 9.20818 1.02738 9.26145C0.964049 9.31472 0.911924 9.38004 0.874035 9.45362C0.836145 9.52719 0.813246 9.60756 0.806666 9.69006C0.800086 9.77256 0.809956 9.85554 0.835704 9.9342C0.861451 10.0129 0.902563 10.0856 0.956654 10.1482C1.01074 10.2109 1.07674 10.2622 1.1508 10.2991C1.22487 10.336 1.30553 10.3579 1.3881 10.3634L3.67185 10.5446C3.80739 10.5554 3.94275 10.5217 4.0574 10.4486C4.17205 10.3755 4.25974 10.267 4.30717 10.1396L4.65873 9.19337L3.75998 8.02368Z" fill="white"/>
</svg>
