<svg width="223" height="177" viewBox="0 0 223 177" fill="none" xmlns="http://www.w3.org/2000/svg">
<g clip-path="url(#clip0_1_512)">
<path opacity="0.1" d="M12.1661 175.736C10.34 172.326 7.86186 166.817 7.14449 159.604C6.03583 148.521 9.23138 135.405 16.6659 128.322C27.4265 118.092 40.3392 126.879 60.4908 124.387C98.4462 119.797 99.5548 82.9412 140.901 74.0224C146.836 72.7763 174.683 67.53 197.443 84.5151C199.726 86.2202 210.682 94.6143 217.464 110.157C230.768 140.717 216.03 171.015 213.682 175.671C146.51 175.671 79.338 175.671 12.1661 175.736Z" fill="white"/>
<path d="M4.7965 176.457H219.812C220.203 176.457 220.595 176.13 220.595 175.671C220.595 175.211 220.268 174.884 219.812 174.884H4.7965C4.40521 174.884 4.01392 175.211 4.01392 175.671C4.01392 176.13 4.40521 176.457 4.7965 176.457Z" fill="#231F20"/>
<path d="M153.272 32.2769V85.134C153.272 86.7079 151.968 88.0195 150.403 88.0195H35.493C33.9278 88.0195 32.6235 86.7079 32.6235 85.134V32.2769C32.6235 30.7029 33.9278 29.3914 35.493 29.3914H150.338C151.968 29.3914 153.272 30.7029 153.272 32.2769Z" fill="#231F20"/>
<path d="M149.099 86.3144H34.1237C32.7542 86.3144 31.6455 85.1995 31.6455 83.8223V30.8341C31.6455 29.4569 32.7542 28.342 34.1237 28.342H149.099C150.468 28.342 151.577 29.4569 151.577 30.8341V83.8223C151.577 85.1995 150.468 86.3144 149.099 86.3144Z" fill="white"/>
<path d="M149.033 86.642H34.1888C32.6236 86.642 31.3193 85.3305 31.3193 83.7565V30.8994C31.3193 29.3255 32.6236 28.0139 34.1888 28.0139H149.033C150.598 28.0139 151.903 29.3255 151.903 30.8994V83.7565C151.903 85.3305 150.598 86.642 149.033 86.642ZM34.1888 28.7353C32.9497 28.7353 31.9715 29.719 31.9715 30.965V83.8221C31.9715 85.0681 32.9497 86.0518 34.1888 86.0518H149.033C150.272 86.0518 151.251 85.0681 151.251 83.8221V30.8994C151.251 29.6534 150.272 28.6697 149.033 28.6697H34.1888V28.7353Z" fill="#231F20"/>
<path d="M110.556 41.13H72.6659C71.0355 41.13 69.7312 39.8184 69.7312 38.1789V6.1105C69.7312 4.47101 71.0355 3.15942 72.6659 3.15942H110.556C112.186 3.15942 113.491 4.47101 113.491 6.1105V38.1789C113.491 39.8184 112.186 41.13 110.556 41.13Z" fill="white"/>
<path d="M110.491 41.4579H72.7313C70.9052 41.4579 69.4053 39.9496 69.4053 38.1133V6.1761C69.4053 4.33987 70.9052 2.83154 72.7313 2.83154H110.491C112.317 2.83154 113.817 4.33987 113.817 6.1761V38.0478C113.817 39.9496 112.317 41.4579 110.491 41.4579ZM72.7313 3.48734C71.2965 3.48734 70.0574 4.73335 70.0574 6.1761V38.0478C70.0574 39.5561 71.2313 40.7365 72.7313 40.7365H110.491C111.991 40.7365 113.165 39.5561 113.165 38.0478V6.1761C113.165 4.66777 111.991 3.48734 110.491 3.48734H72.7313Z" fill="#231F20"/>
<path d="M128.294 62.9025H54.9269C50.9487 62.9025 47.7532 59.6891 47.7532 55.6888V55.2953C47.7532 51.2949 50.9487 48.0815 54.9269 48.0815H128.294C132.272 48.0815 135.468 51.2949 135.468 55.2953V55.6888C135.468 59.6891 132.272 62.9025 128.294 62.9025Z" fill="white"/>
<path d="M128.034 63.296H55.1229C50.8839 63.296 47.3623 59.8203 47.3623 55.4921C47.3623 51.2294 50.8187 47.6881 55.1229 47.6881H128.034C132.273 47.6881 135.795 51.1638 135.795 55.4921C135.795 59.7548 132.338 63.296 128.034 63.296ZM55.1229 48.4095C51.21 48.4095 48.0797 51.6229 48.0797 55.4921C48.0797 59.4269 51.2752 62.5747 55.1229 62.5747H128.034C131.947 62.5747 135.077 59.3613 135.077 55.4921C135.077 51.5573 131.882 48.4095 128.034 48.4095H55.1229Z" fill="#231F20"/>
<path d="M105.991 78.379H73.9705C71.6227 78.379 69.7314 76.4772 69.7314 74.1163V73.854C69.7314 71.4931 71.6227 69.5913 73.9705 69.5913H105.991C108.339 69.5913 110.23 71.4931 110.23 73.854V74.1163C110.23 76.4772 108.339 78.379 105.991 78.379Z" fill="black"/>
<path d="M102.274 18.1771H99.7955V15.8162C99.7955 11.0289 95.6869 7.22528 90.861 7.68433C86.622 8.07781 83.4916 11.8158 83.4916 16.0785V18.2426H80.9482C80.1004 18.2426 79.3831 18.964 79.3831 19.8166V34.3752C79.3831 35.2277 80.1004 35.9491 80.9482 35.9491H102.274C103.121 35.9491 103.839 35.2277 103.839 34.3752V19.751C103.839 18.8984 103.121 18.1771 102.274 18.1771ZM92.5566 27.227V29.1288C92.5566 29.7191 92.1653 30.2437 91.5784 30.3749C90.861 30.506 90.2088 29.9158 90.2088 29.1944V27.227C90.2088 27.0303 90.1436 26.8336 90.0132 26.7024C89.6219 26.3089 89.361 25.7843 89.361 25.2597C89.361 24.0136 90.4697 23.03 91.7088 23.2267C92.4914 23.3578 93.1435 23.9481 93.3392 24.735C93.5348 25.522 93.274 26.2434 92.7522 26.7024C92.6218 26.8336 92.5566 27.0303 92.5566 27.227ZM96.1434 18.1771H87.0785V15.9474C87.0785 13.2586 89.4262 11.0945 92.2305 11.4224C94.513 11.7503 96.1434 13.7832 96.1434 16.0785V18.1771Z" fill="#090909"/>
<path d="M124.903 53.3278L125.751 54.8361L123.86 55.4919L125.751 56.0821L124.838 57.656L123.338 56.3445L123.729 58.3118H121.968L122.36 56.3445L120.86 57.7216L119.947 56.0821L121.773 55.4263L119.947 54.8361L120.795 53.3278L122.36 54.6394L121.968 52.672H123.729L123.338 54.6394L124.903 53.3278Z" fill="black"/>
<path d="M112.447 53.3278L113.295 54.8361L111.404 55.4919L113.295 56.0821L112.382 57.656L110.882 56.3445L111.273 58.3118H109.512L109.904 56.3445L108.404 57.7216L107.491 56.0821L109.317 55.4263L107.491 54.8361L108.339 53.3278L109.904 54.6394L109.512 52.672H111.273L110.882 54.6394L112.447 53.3278Z" fill="black"/>
<path d="M99.9261 53.3278L100.774 54.8361L98.8827 55.4919L100.774 56.0821L99.8609 57.656L98.3609 56.3445L98.7522 58.3118H96.9914L97.3827 56.3445L95.8827 57.7216L94.9697 56.0821L96.7958 55.4263L94.9697 54.8361L95.8175 53.3278L97.3827 54.6394L96.9914 52.672H98.7522L98.3609 54.6394L99.9261 53.3278Z" fill="black"/>
<path d="M87.4049 53.3278L88.2527 54.8361L86.3614 55.4919L88.2527 56.0821L87.3396 57.656L85.8397 56.3445L86.231 58.3118H84.4702L84.8615 56.3445L83.3615 57.7216L82.4485 56.0821L84.2745 55.4263L82.4485 54.8361L83.2963 53.3278L84.8615 54.6394L84.4702 52.672H86.231L85.8397 54.6394L87.4049 53.3278Z" fill="black"/>
<path d="M74.9488 53.3278L75.7966 54.8361L73.9054 55.4919L75.7966 56.0821L74.8836 57.656L73.3836 56.3445L73.7749 58.3118H72.0141L72.4054 56.3445L70.9054 57.7216L69.9924 56.0821L71.8185 55.4263L69.9924 54.8361L70.8402 53.3278L72.4054 54.6394L72.0141 52.672H73.7749L73.3836 54.6394L74.9488 53.3278Z" fill="black"/>
<path d="M62.4271 53.3278L63.2749 54.8361L61.3836 55.4919L63.2749 56.0821L62.3619 57.656L60.8619 56.3445L61.2532 58.3118H59.4924L59.8837 56.3445L58.3837 57.7216L57.4707 56.0821L59.2967 55.4263L57.4707 54.8361L58.3185 53.3278L59.8837 54.6394L59.4924 52.672H61.2532L60.8619 54.6394L62.4271 53.3278Z" fill="black"/>
<path d="M77.5575 74.6409V75.6246H76.8401V72.7391H77.9487C78.2748 72.7391 78.5357 72.8047 78.7313 73.0015C78.927 73.1982 78.9922 73.3949 78.9922 73.6573C78.9922 73.854 78.927 73.9851 78.8618 74.1163C78.7966 74.2475 78.6661 74.3786 78.5357 74.4442C78.4053 74.5098 78.2096 74.5754 77.9487 74.5754H77.5575V74.6409ZM78.34 73.7228C78.34 73.4605 78.2096 73.3294 77.9487 73.3294H77.6227V74.0507H77.8835C78.1444 74.0507 78.34 73.9196 78.34 73.7228Z" fill="white"/>
<path d="M81.5353 75.1003H80.4919L80.2962 75.625H79.5789L80.6223 72.8051H81.4049L82.4483 75.625H81.731L81.5353 75.1003ZM81.3397 74.5757L81.0136 73.5264L80.6875 74.5757H81.3397Z" fill="white"/>
<path d="M85.0571 75.2313C84.9919 75.3625 84.8614 75.4281 84.731 75.5592C84.6006 75.6248 84.4049 75.6904 84.2093 75.6904C83.8832 75.6904 83.6223 75.6248 83.4267 75.4281C83.231 75.2969 83.1006 75.0346 83.1006 74.7723H83.818C83.818 74.9034 83.8832 74.969 83.9484 75.0346C84.0136 75.1002 84.0788 75.1002 84.2093 75.1002C84.2745 75.1002 84.3397 75.1002 84.4049 75.0346C84.4701 74.969 84.4701 74.9034 84.4701 74.8379C84.4701 74.7723 84.4701 74.7067 84.4049 74.6411C84.3397 74.5755 84.2745 74.5755 84.2093 74.51C84.1441 74.51 84.0136 74.4444 83.9484 74.3788C83.7528 74.3132 83.6223 74.2476 83.4919 74.1821C83.3615 74.1165 83.2963 74.0509 83.1658 73.9197C83.1006 73.7886 83.0354 73.6574 83.0354 73.4607C83.0354 73.2639 83.1006 73.1328 83.1658 73.0016C83.231 72.8705 83.3615 72.8049 83.4919 72.7393C83.6223 72.6737 83.818 72.6082 84.0136 72.6082C84.3397 72.6082 84.6006 72.6737 84.7962 72.8049C84.9919 72.936 85.0571 73.1328 85.1223 73.4607H84.4049C84.4049 73.3951 84.3397 73.2639 84.2745 73.2639C84.2093 73.1984 84.1441 73.1984 84.0788 73.1984C84.0136 73.1984 83.9484 73.1984 83.8832 73.2639C83.818 73.3295 83.818 73.3951 83.818 73.4607C83.818 73.5263 83.818 73.5918 83.8832 73.6574C83.9484 73.723 84.0136 73.723 84.0788 73.7886C84.1441 73.7886 84.2745 73.8542 84.3397 73.9197C84.5354 73.9853 84.6658 74.0509 84.7962 74.1165C84.9266 74.1821 84.9919 74.2476 85.1223 74.3788C85.1875 74.51 85.2527 74.6411 85.2527 74.8379C85.1223 74.969 85.1223 75.1002 85.0571 75.2313Z" fill="white"/>
<path d="M87.8613 75.2313C87.7961 75.3625 87.6656 75.4281 87.5352 75.5592C87.4048 75.6248 87.2091 75.6904 87.0135 75.6904C86.6874 75.6904 86.4265 75.6248 86.2309 75.4281C86.0353 75.2969 85.9048 75.0346 85.9048 74.7723H86.6222C86.6222 74.9034 86.6874 74.969 86.7526 75.0346C86.8178 75.1002 86.883 75.1002 87.0135 75.1002C87.0787 75.1002 87.1439 75.1002 87.2091 75.0346C87.2743 74.969 87.2743 74.9034 87.2743 74.8379C87.2743 74.7723 87.2743 74.7067 87.2091 74.6411C87.1439 74.5755 87.0787 74.5755 87.0135 74.51C86.9483 74.51 86.8178 74.4444 86.7526 74.3788C86.557 74.3132 86.4265 74.2476 86.2961 74.1821C86.1657 74.1165 86.1005 74.0509 85.97 73.9197C85.9048 73.7886 85.8396 73.6574 85.8396 73.4607C85.8396 73.2639 85.9048 73.1328 85.97 73.0016C86.0352 72.8705 86.1657 72.8049 86.2961 72.7393C86.4265 72.6737 86.6222 72.6082 86.8178 72.6082C87.1439 72.6082 87.4048 72.6737 87.6004 72.8049C87.7961 72.936 87.8613 73.1328 87.9265 73.4607H87.2091C87.2091 73.3951 87.1439 73.2639 87.0787 73.2639C87.0135 73.1984 86.9483 73.1984 86.8831 73.1984C86.8178 73.1984 86.7526 73.1984 86.6874 73.2639C86.6222 73.3295 86.6222 73.3951 86.6222 73.4607C86.6222 73.5263 86.6222 73.5918 86.6874 73.6574C86.7526 73.723 86.8178 73.723 86.8831 73.7886C86.9483 73.7886 87.0787 73.8542 87.1439 73.9197C87.3396 73.9853 87.47 74.0509 87.6004 74.1165C87.7309 74.1821 87.7961 74.2476 87.9265 74.3788C87.9917 74.51 88.0569 74.6411 88.0569 74.8379C87.9917 74.969 87.9265 75.1002 87.8613 75.2313Z" fill="white"/>
<path d="M92.6219 72.7391L91.9698 75.6246H91.122L90.6654 73.7228L90.2089 75.6246H89.3611L88.709 72.7391H89.4264L89.8177 74.8377L90.3394 72.7391H91.122L91.6437 74.8377L92.035 72.7391H92.6219Z" fill="white"/>
<path d="M95.4917 72.9359C95.6874 73.067 95.883 73.2638 96.0134 73.4605C96.1439 73.6572 96.2091 73.9196 96.2091 74.2475C96.2091 74.5754 96.1439 74.7721 96.0134 75.0344C95.883 75.2312 95.6874 75.4279 95.4917 75.5591C95.2961 75.6902 95.0352 75.7558 94.7743 75.7558C94.5135 75.7558 94.2526 75.6902 94.057 75.5591C93.8613 75.4279 93.6657 75.2312 93.5352 75.0344C93.4048 74.8377 93.3396 74.5754 93.3396 74.2475C93.3396 73.9196 93.4048 73.7228 93.5352 73.4605C93.6657 73.2638 93.8613 73.067 94.057 72.9359C94.2526 72.8047 94.5135 72.7391 94.7743 72.7391C95.0352 72.7391 95.2309 72.8047 95.4917 72.9359ZM94.1874 73.5917C94.057 73.7228 93.9918 73.9196 93.9918 74.1819C93.9918 74.4442 94.057 74.6409 94.1874 74.7721C94.3178 74.9033 94.5135 74.9688 94.7091 74.9688C94.9048 74.9688 95.1004 74.9033 95.2308 74.7721C95.3613 74.6409 95.4265 74.4442 95.4265 74.1819C95.4265 73.9196 95.3613 73.7228 95.2308 73.5917C95.1004 73.4605 94.9048 73.3949 94.7091 73.3949C94.5135 73.3949 94.3178 73.4605 94.1874 73.5917Z" fill="white"/>
<path d="M98.4264 75.6246L97.8395 74.5754H97.7091V75.6246H96.9917V72.7391H98.1656C98.3612 72.7391 98.5569 72.8047 98.7525 72.8703C98.8829 72.9359 99.0134 73.067 99.0786 73.1982C99.1438 73.3294 99.209 73.4605 99.209 73.6573C99.209 73.854 99.1438 74.0507 99.0134 74.1819C98.8829 74.313 98.7525 74.4442 98.4917 74.5098L99.1438 75.6246H98.4264ZM97.6439 74.0507H98.1004C98.2308 74.0507 98.3612 74.0507 98.4264 73.9851C98.4917 73.9196 98.4917 73.854 98.4917 73.7228C98.4917 73.5917 98.4264 73.5261 98.3612 73.4605C98.296 73.3949 98.1656 73.3949 98.0351 73.3949H97.5786V74.0507H97.6439Z" fill="white"/>
<path d="M102.339 74.9692C102.209 75.1659 102.078 75.3627 101.817 75.4938C101.622 75.625 101.361 75.6906 101.035 75.6906H99.9915V72.8051H101.035C101.361 72.8051 101.622 72.8706 101.817 73.0018C102.013 73.133 102.209 73.2641 102.339 73.5264C102.47 73.7232 102.535 73.9855 102.535 74.2478C102.535 74.5101 102.47 74.7069 102.339 74.9692ZM101.557 74.7724C101.687 74.6413 101.752 74.4445 101.752 74.1822C101.752 73.9199 101.687 73.7232 101.557 73.592C101.426 73.4609 101.231 73.3953 100.904 73.3953H100.578V75.0348H100.904C101.231 75.0348 101.426 74.9692 101.557 74.7724Z" fill="white"/>
<path d="M55.364 109.818C55.3574 109.87 55.3442 109.92 55.3247 109.968L55.1833 110.399C55.0575 110.774 54.8768 111.327 54.6214 112.038C54.1264 113.46 53.3799 115.511 52.3938 118.019C49.8501 124.565 46.8094 130.904 43.2986 136.981C42.3083 138.707 41.4405 140.501 40.7016 142.349C40.0349 144.084 39.5683 145.889 39.3108 147.73C38.9267 150.859 38.9267 154.023 39.3108 157.152C39.5976 159.83 39.9827 161.979 40.2302 163.472C40.3559 164.203 40.4541 164.78 40.5248 165.183C40.5563 165.368 40.5799 165.515 40.5956 165.625C40.6064 165.676 40.613 165.727 40.6152 165.779C40.5983 165.73 40.5852 165.68 40.5759 165.629C40.5523 165.522 40.5209 165.376 40.4856 165.187C40.407 164.792 40.293 164.215 40.1516 163.484C39.8805 162.003 39.4719 159.858 39.1655 157.163C38.7644 154.016 38.7565 150.831 39.1419 147.683C39.394 145.827 39.8594 144.007 40.5288 142.259C41.2685 140.394 42.1403 138.586 43.1375 136.847C46.6411 130.775 49.6942 124.452 52.272 117.928C53.2778 115.432 54.0439 113.389 54.5625 111.975C54.8218 111.276 55.0222 110.731 55.1597 110.347L55.3208 109.925C55.3404 109.865 55.364 109.818 55.364 109.818Z" fill="white"/>
<path d="M51.5606 133.509C51.5249 133.589 51.4828 133.665 51.4348 133.738L51.042 134.374C50.6962 134.927 50.1815 135.717 49.5451 136.689C48.2721 138.637 46.457 141.287 44.6301 144.329C43.7265 145.854 42.9211 147.339 42.2453 148.718C41.5696 150.097 41.0274 151.373 40.5991 152.451C40.1709 153.53 39.8566 154.426 39.6602 155.039C39.558 155.331 39.4794 155.568 39.4166 155.75C39.3934 155.834 39.3604 155.914 39.3184 155.991C39.3276 155.904 39.3474 155.819 39.3773 155.738C39.4284 155.552 39.4991 155.311 39.5816 155.015C39.7584 154.387 40.0609 153.494 40.4616 152.4C40.8624 151.305 41.4006 150.029 42.0724 148.635C42.7443 147.24 43.5458 145.751 44.4572 144.222C46.2841 141.173 48.1228 138.534 49.4233 136.606L50.9752 134.331L51.4034 133.714C51.4487 133.641 51.5014 133.572 51.5606 133.509Z" fill="#263238"/>
<path d="M55.3245 109.818C55.4227 108.854 54.3855 107.895 53.4819 107.555C52.5507 107.28 51.5607 107.28 50.6296 107.555C47.8996 108.209 45.4149 109.641 43.4731 111.678C41.5312 113.715 40.2142 116.272 39.6799 119.043C42.202 117.789 44.7956 116.686 47.4472 115.74L46.9993 115.87C48.2854 115.61 49.4998 115.071 50.5587 114.292C51.6175 113.513 52.4956 112.512 53.1322 111.359C53.3391 110.897 53.6161 110.471 53.9533 110.095C54.1262 109.911 54.3519 109.785 54.599 109.735C54.8461 109.686 55.1024 109.715 55.3323 109.818" fill="#455A64"/>
<path d="M55.3323 109.81C57.8391 108.067 60.9214 107.372 63.9285 107.871C65.4163 108.134 66.8281 108.725 68.0633 109.599C69.2984 110.474 70.3268 111.611 71.0751 112.931C71.7956 114.263 72.1767 115.754 72.1842 117.271C72.1918 118.788 71.8256 120.282 71.1183 121.622C69.7275 118.718 68.2385 115.696 65.6533 113.792C65.0443 113.35 64.3607 112.943 64.0189 112.267C63.626 111.477 63.7871 110.525 63.4453 109.719C63.0288 108.728 61.8738 108.436 60.8091 108.38C59.7443 108.325 56.6366 109.316 55.3323 109.794" fill="#455A64"/>
<path d="M55.2656 109.763C57.8351 108.996 60.7424 110.26 62.4947 112.196C64.2469 114.132 65.1309 116.731 65.4334 119.331C65.7359 121.93 65.4923 124.557 65.2291 127.16C63.2165 124.139 61.72 120.801 60.8013 117.284C60.4085 115.704 60.0863 114.061 59.3437 112.599C58.9176 111.85 58.3303 111.206 57.6246 110.714C56.919 110.223 56.113 109.896 55.2656 109.759" fill="#455A64"/>
<path d="M55.179 109.818C57.2338 108.862 58.3928 106.705 58.656 104.442C58.776 103.306 58.6108 102.159 58.1757 101.104C57.7405 100.05 57.0492 99.1219 56.1652 98.4055C55.1534 99.362 54.4353 100.59 54.0955 101.944C53.7558 103.298 53.8086 104.721 54.2479 106.046C54.684 107.29 55.4737 108.534 55.179 109.818Z" fill="#455A64"/>
<path d="M38.7568 151.72C38.704 151.622 38.6606 151.518 38.6272 151.412C38.5447 151.206 38.4465 150.898 38.2854 150.511C37.9868 149.721 37.4996 148.615 36.8828 147.268C35.1847 143.769 33.247 140.392 31.0839 137.163C28.9592 133.906 26.6037 130.807 24.0356 127.891C23.261 127.006 22.4175 126.184 21.5133 125.434C21.2653 125.233 21.0027 125.05 20.7275 124.889C20.6265 124.841 20.5294 124.786 20.4368 124.723C20.5426 124.759 20.6462 124.801 20.7471 124.849C21.0315 125.001 21.3035 125.176 21.5604 125.371C22.4875 126.101 23.3499 126.912 24.1377 127.792C26.7443 130.687 29.1219 133.781 31.2489 137.048C33.4265 140.282 35.3572 143.677 37.0242 147.205C37.645 148.567 38.0968 149.693 38.3718 150.483C38.5211 150.878 38.6076 151.187 38.6783 151.396C38.7137 151.501 38.74 151.61 38.7568 151.72Z" fill="white"/>
<path d="M46.1509 175.32H32.1093L29.9209 158.977H48.7635L46.1509 175.32Z" fill="white"/>
<path d="M59.3086 139.359C57.8903 136.298 54.2443 134.299 50.897 134.571C51.2577 134.752 51.5716 135.014 51.8137 135.338C52.0558 135.662 52.2195 136.038 52.2917 136.436C52.4234 137.233 52.4944 138.038 52.5039 138.846C52.8064 142.713 55.2815 146.012 57.6546 149.065C59.3243 151.21 61.0058 153.367 63.0017 155.212C62.762 149.713 62.4163 143.886 59.3086 139.359Z" fill="#455A64"/>
<path d="M50.897 134.615C53.0225 132.972 55.7648 132.288 58.4482 132.245C61.1316 132.201 63.7796 132.798 66.3765 133.461C67.9481 133.856 69.5196 134.299 70.8593 135.207C72.199 136.116 73.2598 137.578 73.2834 139.193C71.0793 136.756 67.5277 136.286 64.3807 135.365C62.2513 134.745 60.1926 133.852 58.0199 133.39C55.5806 132.99 53.078 133.406 50.897 134.575" fill="#455A64"/>
<path d="M51.262 134.18C50.3309 133.197 50.8455 130.897 51.6549 129.815C52.4642 128.733 53.7568 128.12 55.0298 127.666C56.7032 127.066 58.4391 126.659 60.204 126.453C59.9779 127.569 59.404 128.583 58.5657 129.349C57.7298 130.104 56.8157 130.766 55.8391 131.324L51.2541 134.176" fill="#455A64"/>
<path d="M42.5244 132.869C39.8646 134.054 37.8098 136.231 35.8179 138.364C38.77 137.641 41.5938 136.466 44.1902 134.88C45.2195 134.247 46.241 133.54 47.4197 133.276C48.5983 133.011 49.9184 133.54 50.9006 134.358C49.2309 131.885 45.1842 131.684 42.5244 132.869Z" fill="#455A64"/>
<path d="M41.2713 150.365C42.7603 146.928 42.1317 142.76 44.0214 139.533C45.4712 137.06 48.1428 135.582 50.8026 134.547C51.4194 136.408 51.1248 138.498 50.3429 140.287C49.5611 142.077 48.3196 143.641 47.0113 145.095C45.2001 147.106 43.2317 148.966 41.2673 150.827" fill="#455A64"/>
<path d="M49.628 158.977H28.6284V162.655H49.628V158.977Z" fill="#E0E0E0"/>
<path d="M48.9286 162.769C48.9286 162.828 44.383 162.872 38.7805 162.872C33.178 162.872 28.6284 162.828 28.6284 162.769C28.6284 162.71 33.1741 162.667 38.7805 162.667C44.3869 162.667 48.9286 162.714 48.9286 162.769Z" fill="#263238"/>
<path d="M56.2753 109.957C55.58 108.651 54.7631 107.414 53.8355 106.263C52.8985 105.109 51.6544 104.247 50.2485 103.778C48.3548 103.221 46.3196 103.664 44.4338 104.229C42.2242 104.891 40.0666 105.718 37.9788 106.702C40.736 107.745 43.7668 107.799 46.5593 106.856C48.0051 106.362 49.4077 106.425 50.9242 106.599C52.7708 106.808 55.0809 108.527 56.2753 109.957Z" fill="#455A64"/>
<path d="M6.12013 131.747C2.81206 135.982 1.70805 141.623 2.08129 147.011C4.04961 139.842 8.14473 133.446 13.8206 128.677C15.9815 126.876 18.7395 125.446 21.415 125.446C15.9108 124.968 9.52249 127.378 6.12013 131.747Z" fill="#455A64"/>
<path d="M13.8048 123.242C11.9583 123.38 10.2689 124.32 8.74451 125.371C6.41079 126.983 4.21849 129.017 3.20093 131.691C5.26781 129.245 7.90234 127.349 10.8715 126.17C13.8407 124.991 17.0531 124.566 20.2245 124.932C18.213 123.913 16.0443 123.076 13.8048 123.242Z" fill="#455A64"/>
<path d="M18.9753 116.882C17.9066 117.628 17.0895 118.857 17.1445 120.16C17.2171 121.062 17.5909 121.913 18.2052 122.574C18.8795 123.362 19.6281 124.081 20.4407 124.723C21.1204 121.705 21.9337 118.553 22.6134 115.535C21.3229 115.733 20.0855 116.191 18.9753 116.882Z" fill="#455A64"/>
<path d="M25.2376 116.593C23.7571 117.487 22.5647 118.791 21.8038 120.35C21.1006 121.93 20.8098 123.905 21.6938 125.383C24.227 121.573 26.9601 117.902 29.8815 114.385C28.2666 114.969 26.7114 115.709 25.2376 116.593Z" fill="#455A64"/>
<path d="M30.5299 121.776C28.867 121.659 27.2007 121.949 25.674 122.622C24.1472 123.295 22.8058 124.331 21.7646 125.64C23.2188 124.894 24.8548 124.583 26.4792 124.743C30.5493 125.273 34.5876 126.026 38.5761 126.998C37.756 125.538 36.5951 124.299 35.1935 123.39C33.7919 122.48 32.1914 121.926 30.5299 121.776Z" fill="#455A64"/>
<path d="M22.1495 125.383C19.03 125.557 16.3034 127.97 15.2152 130.913C14.1269 133.856 14.5001 137.194 15.6748 140.102C16.8495 143.009 18.7786 145.545 20.8177 147.924C21.8392 144.368 22.8685 140.813 23.3203 137.171C23.7721 133.528 23.4264 128.835 22.1495 125.383Z" fill="#455A64"/>
<g opacity="0.3">
<path d="M6.12037 131.747C2.8123 135.982 1.70829 141.623 2.08153 147.011C4.04985 139.842 8.14498 133.447 13.8209 128.678C15.9817 126.876 18.7397 125.446 21.4153 125.446C15.911 124.968 9.52273 127.378 6.12037 131.747Z" fill="black"/>
<path d="M13.8051 123.241C11.9585 123.38 10.2691 124.32 8.74476 125.371C6.41104 126.982 4.21874 129.017 3.20117 131.691C5.26805 129.245 7.90259 127.349 10.8718 126.17C13.841 124.991 17.0533 124.566 20.2248 124.932C18.2132 123.913 16.0445 123.075 13.8051 123.241Z" fill="black"/>
<path d="M18.9755 116.882C17.9069 117.628 17.0897 118.857 17.1447 120.16C17.2173 121.062 17.5912 121.913 18.2055 122.574C18.8797 123.361 19.6284 124.081 20.441 124.723C21.1207 121.705 21.9339 118.553 22.6136 115.534C21.3231 115.733 20.0857 116.191 18.9755 116.882Z" fill="black"/>
<path d="M25.2378 116.593C23.7573 117.487 22.565 118.791 21.8041 120.35C21.1008 121.93 20.8101 123.905 21.694 125.383C24.2273 121.573 26.9604 117.902 29.8817 114.385C28.2668 114.969 26.7117 115.709 25.2378 116.593Z" fill="black"/>
<path d="M30.5301 121.776C28.8672 121.659 27.2009 121.949 25.6742 122.622C24.1475 123.295 22.806 124.33 21.7649 125.639C23.2191 124.894 24.855 124.583 26.4795 124.743C30.5496 125.273 34.5879 126.026 38.5763 126.998C37.7562 125.538 36.5954 124.299 35.1938 123.389C33.7922 122.48 32.1917 121.926 30.5301 121.776Z" fill="black"/>
<path d="M22.1498 125.383C19.0303 125.556 16.3037 127.97 15.2154 130.913C14.1271 133.856 14.5003 137.194 15.6751 140.102C16.8498 143.009 18.7788 145.545 20.8179 147.924C21.8394 144.368 22.8687 140.813 23.3206 137.171C23.7724 133.528 23.4266 128.835 22.1498 125.383Z" fill="black"/>
</g>
<g opacity="0.2">
<path d="M59.3086 139.36C57.8903 136.298 54.2443 134.299 50.897 134.572C51.2577 134.752 51.5716 135.014 51.8137 135.338C52.0558 135.662 52.2195 136.038 52.2917 136.436C52.4234 137.233 52.4944 138.038 52.5039 138.846C52.8064 142.713 55.2815 146.012 57.6546 149.066C59.3243 151.211 61.0058 153.368 63.0017 155.212C62.762 149.714 62.4163 143.887 59.3086 139.36Z" fill="black"/>
<path d="M50.897 134.615C53.0225 132.972 55.7648 132.288 58.4482 132.245C61.1316 132.201 63.7796 132.798 66.3765 133.462C67.9481 133.857 69.5196 134.299 70.8593 135.208C72.199 136.116 73.2598 137.578 73.2834 139.194C71.0793 136.756 67.5277 136.286 64.3807 135.366C62.2513 134.746 60.1926 133.853 58.0199 133.391C55.5806 132.99 53.078 133.407 50.897 134.576" fill="black"/>
<path d="M51.262 134.18C50.3309 133.197 50.8455 130.898 51.6549 129.815C52.4642 128.733 53.7568 128.121 55.0298 127.666C56.7032 127.066 58.4391 126.659 60.204 126.453C59.9779 127.569 59.404 128.584 58.5657 129.349C57.7298 130.104 56.8157 130.766 55.8391 131.324L51.2541 134.177" fill="black"/>
<path d="M42.5244 132.869C39.8646 134.054 37.8098 136.231 35.8179 138.364C38.77 137.642 41.5938 136.466 44.1902 134.88C45.2195 134.248 46.241 133.541 47.4197 133.276C48.5983 133.011 49.9184 133.541 50.9006 134.358C49.2309 131.885 45.1842 131.684 42.5244 132.869Z" fill="black"/>
<path d="M41.2708 150.365C42.7598 146.928 42.1312 142.761 44.021 139.533C45.4707 137.06 48.1423 135.583 50.8021 134.548C51.4189 136.408 51.1243 138.498 50.3424 140.288C49.5606 142.077 48.3191 143.642 47.0108 145.095C45.1996 147.106 43.2313 148.967 41.2668 150.827" fill="black"/>
</g>
<path d="M173.442 77.9115C173.654 77.2752 174.053 76.7186 174.586 76.3151C175.119 75.9116 175.761 75.6804 176.428 75.6519C176.082 74.6761 176.746 73.5503 177.689 73.1394C178.173 72.9635 178.688 72.8919 179.201 72.9293C179.714 72.9668 180.214 73.1124 180.667 73.3567C181.323 73.6688 181.936 74.1033 182.632 74.2653C183.563 74.4786 184.525 74.1823 185.476 74.1507C186.452 74.132 187.414 74.3834 188.257 74.8774C189.1 75.3713 189.792 76.0889 190.257 76.9515C190.576 77.556 190.772 78.2236 191.122 78.8122C191.405 79.2823 191.774 79.6931 192.053 80.1672C192.442 80.8611 192.62 81.6552 192.562 82.45C192.505 83.2447 192.216 84.0048 191.731 84.6351L178.337 81.5419C177.787 81.9247 177.131 82.1252 176.462 82.1153C175.793 82.1054 175.143 81.8857 174.604 81.4868C174.065 81.0879 173.663 80.5297 173.455 79.8902C173.247 79.2507 173.242 78.5617 173.442 77.9194V77.9115Z" fill="#263238"/>
<path d="M142.589 127.497L155.503 126.209L156.25 132.952L141.666 132.442L142.589 127.497Z" fill="#FFBF9D"/>
<path d="M132.779 131.447C132.861 131.564 132.976 131.654 133.109 131.706C133.241 131.758 133.386 131.769 133.526 131.739C133.585 131.723 133.643 131.701 133.698 131.672C134.091 131.479 133.914 130.653 133.914 130.653L135.808 130.029C135.808 130.029 138.59 131.261 139.658 132.205C140.727 133.15 142.88 131.905 142.88 131.905L143.021 127.615L138.936 124.933C138.936 124.933 139.187 125.095 138.845 124.538C138.503 123.981 137.415 124.376 137.415 124.376C137.191 124.103 136.441 124.111 136.441 124.111L133.364 124.972C133.051 125.06 132.761 125.217 132.516 125.432C132.271 125.648 132.078 125.916 131.95 126.217L130.956 128.536C130.956 128.536 130.492 130.167 130.661 130.511C130.733 130.649 130.853 130.756 130.998 130.811C131.142 130.866 131.302 130.866 131.447 130.811C131.447 130.811 131.761 131.783 132.025 131.779C132.291 131.722 132.544 131.617 132.771 131.467L132.779 131.447Z" fill="#FFBF9D"/>
<path d="M138.868 131.645C138.794 131.613 138.723 131.575 138.656 131.53L138.067 131.19C137.327 130.778 136.563 130.41 135.78 130.088H135.827L133.938 130.728L133.993 130.633C134.022 130.794 134.035 130.956 134.032 131.119C134.034 131.297 133.983 131.472 133.887 131.621C133.824 131.697 133.741 131.754 133.647 131.783C133.561 131.821 133.469 131.841 133.376 131.842C133.183 131.842 132.996 131.774 132.849 131.649C132.812 131.617 132.778 131.583 132.747 131.546L132.724 131.518L132.845 131.542L132.787 131.578C132.711 131.626 132.632 131.669 132.551 131.708C132.468 131.75 132.383 131.785 132.295 131.815C132.25 131.832 132.202 131.846 132.154 131.854C132.094 131.872 132.03 131.872 131.969 131.854C131.873 131.8 131.793 131.721 131.738 131.625C131.686 131.544 131.64 131.459 131.6 131.372C131.519 131.199 131.448 131.021 131.388 130.839L131.514 130.898C131.387 130.948 131.249 130.963 131.114 130.94C130.98 130.917 130.854 130.857 130.751 130.768C130.645 130.671 130.575 130.539 130.555 130.396C130.541 130.265 130.541 130.133 130.555 130.001C130.624 129.498 130.729 129 130.869 128.512L131.4 127.276L131.734 126.485C131.837 126.215 131.968 125.957 132.126 125.715C132.294 125.48 132.508 125.283 132.755 125.134C133.001 124.998 133.266 124.899 133.541 124.842L136.444 124.052H136.468C136.649 124.054 136.829 124.073 137.006 124.107C137.195 124.133 137.372 124.219 137.509 124.352H137.395C137.543 124.253 137.712 124.192 137.889 124.174C138.066 124.156 138.244 124.182 138.409 124.25C138.701 124.4 138.925 124.657 139.033 124.968L139.002 124.929L141.819 126.766L142.577 127.276C142.668 127.332 142.755 127.396 142.836 127.465C142.737 127.423 142.643 127.372 142.554 127.311L141.768 126.837L138.919 125.059V125.036C138.822 124.766 138.627 124.543 138.373 124.411C138.233 124.358 138.082 124.339 137.933 124.356C137.784 124.373 137.641 124.426 137.517 124.51L137.454 124.55L137.403 124.494C137.293 124.396 137.156 124.333 137.01 124.313C136.846 124.281 136.678 124.265 136.511 124.265L133.615 125.087C133.361 125.141 133.116 125.233 132.889 125.36C132.666 125.495 132.473 125.675 132.323 125.889C132.175 126.118 132.054 126.363 131.961 126.62C131.848 126.88 131.738 127.141 131.624 127.41L131.093 128.646C130.955 129.124 130.852 129.611 130.783 130.104C130.771 130.218 130.771 130.333 130.783 130.448C130.797 130.545 130.844 130.634 130.916 130.701C130.993 130.765 131.086 130.808 131.184 130.825C131.283 130.842 131.385 130.831 131.478 130.795L131.572 130.764L131.604 130.855C131.658 131.029 131.725 131.199 131.804 131.364C131.859 131.516 131.951 131.652 132.071 131.759C132.099 131.763 132.127 131.763 132.154 131.759L132.268 131.728C132.346 131.7 132.425 131.664 132.504 131.629C132.58 131.592 132.655 131.551 132.728 131.506L132.783 131.475L132.904 131.498V131.522C132.93 131.551 132.957 131.577 132.987 131.601C133.096 131.696 133.235 131.751 133.38 131.755C133.453 131.755 133.525 131.74 133.592 131.712C133.657 131.696 133.716 131.659 133.757 131.605C133.887 131.343 133.917 131.043 133.843 130.76V130.685L133.91 130.665L135.804 130.049H135.827H135.851C136.633 130.384 137.392 130.772 138.122 131.21C138.377 131.364 138.57 131.491 138.699 131.581C138.757 131.599 138.814 131.62 138.868 131.645Z" fill="#FF9A6C"/>
<path d="M137.057 125.561C136.76 125.757 136.437 125.911 136.098 126.02C135.276 126.331 134.416 126.533 133.541 126.62L133.635 126.533C133.604 126.699 133.576 126.869 133.533 127.043C133.31 128.023 132.902 128.951 132.331 129.776C132.159 130.024 131.97 130.259 131.765 130.48C131.62 130.638 131.529 130.713 131.517 130.705C131.506 130.697 131.808 130.329 132.209 129.693C132.731 128.864 133.109 127.952 133.329 126.995C133.368 126.829 133.399 126.659 133.427 126.501V126.419H133.505C134.365 126.334 135.213 126.158 136.036 125.893C136.369 125.763 136.711 125.652 137.057 125.561Z" fill="#FF9A6C"/>
<path d="M134.37 127.868C134.28 129.194 133.683 130.433 132.704 131.325C132.653 131.281 133.227 130.626 133.683 129.67C134.138 128.714 134.307 127.856 134.37 127.868Z" fill="#FF9A6C"/>
<path d="M143.3 130.527C143.3 130.527 143.273 130.558 143.21 130.602C143.117 130.664 143.019 130.721 142.919 130.771C142.539 130.958 142.127 131.073 141.705 131.111C141.057 131.17 140.406 131.043 139.827 130.744C139.089 130.364 138.505 129.738 138.173 128.974L138.299 129.033C137.574 129.296 136.816 129.453 136.048 129.499C135.762 129.515 135.476 129.515 135.191 129.499C134.905 129.5 134.621 129.453 134.35 129.361C134.199 129.31 134.072 129.205 133.993 129.065C133.96 128.993 133.941 128.915 133.937 128.836C133.934 128.756 133.946 128.677 133.973 128.603C134.029 128.455 134.141 128.336 134.284 128.271L134.629 128.121C135.545 127.726 136.389 127.437 137.101 127.204C137.812 126.971 138.401 126.809 138.806 126.707C139.014 126.641 139.229 126.597 139.446 126.576C139.245 126.658 139.039 126.728 138.829 126.786C138.436 126.912 137.855 127.098 137.148 127.347C136.441 127.595 135.612 127.911 134.704 128.302L134.362 128.453C134.27 128.496 134.198 128.574 134.162 128.67C134.142 128.718 134.132 128.77 134.132 128.822C134.132 128.874 134.142 128.926 134.162 128.974C134.22 129.069 134.311 129.14 134.417 129.172C134.671 129.254 134.936 129.294 135.203 129.29C135.478 129.29 135.757 129.29 136.04 129.29C136.789 129.244 137.528 129.092 138.236 128.84L138.326 128.808L138.362 128.895C138.677 129.625 139.232 130.225 139.933 130.594C140.482 130.886 141.1 131.023 141.721 130.989C142.126 130.962 142.524 130.869 142.9 130.712C143.159 130.61 143.292 130.527 143.3 130.527Z" fill="#FF9A6C"/>
<path d="M184.478 110.81C186.011 110.776 187.469 110.139 188.54 109.037C189.611 107.934 190.209 106.453 190.207 104.912L190.45 85.3539C190.678 80.1038 187.912 75.5885 182.832 75.5016H182.361C177.626 75.7031 173.839 79.6258 173.654 84.5203C173.482 89.0751 173.297 93.4719 173.423 95.9054C173.686 100.946 178.64 101.436 178.64 101.436C178.64 101.436 178.64 103.312 178.64 104.794C178.627 105.573 178.768 106.347 179.055 107.071C179.341 107.795 179.768 108.454 180.31 109.011C180.852 109.568 181.498 110.012 182.212 110.316C182.925 110.62 183.692 110.778 184.466 110.783L184.478 110.81Z" fill="#FFBF9D"/>
<path d="M178.64 101.495C180.899 101.391 183.078 100.622 184.906 99.283C184.906 99.283 183.531 103.139 178.652 102.89L178.64 101.495Z" fill="#FF9A6C"/>
<path d="M175.45 89.0198C175.455 89.2043 175.53 89.3798 175.66 89.51C175.791 89.6402 175.966 89.715 176.149 89.719C176.239 89.7221 176.329 89.7072 176.413 89.6749C176.497 89.6427 176.574 89.5939 176.639 89.5313C176.705 89.4687 176.757 89.3937 176.793 89.3106C176.828 89.2275 176.847 89.138 176.848 89.0474C176.846 88.8619 176.772 88.6847 176.641 88.5539C176.51 88.4231 176.334 88.3492 176.149 88.3482C176.059 88.3456 175.97 88.3609 175.886 88.3933C175.802 88.4258 175.725 88.4746 175.66 88.5371C175.595 88.5996 175.543 88.6744 175.507 88.7572C175.471 88.8401 175.451 88.9293 175.45 89.0198Z" fill="#263238"/>
<path d="M174.778 86.7209C174.868 86.8118 175.379 86.3852 176.13 86.3575C176.88 86.3298 177.442 86.6893 177.52 86.5906C177.599 86.4918 177.461 86.3812 177.218 86.1955C176.886 85.9786 176.494 85.8722 176.098 85.8914C175.709 85.9024 175.333 86.0411 175.029 86.2864C174.806 86.5076 174.735 86.6775 174.778 86.7209Z" fill="#263238"/>
<path d="M182.251 89.0199C182.254 89.205 182.328 89.3817 182.459 89.5123C182.59 89.6428 182.766 89.717 182.95 89.7191C183.04 89.7206 183.129 89.7043 183.213 89.6709C183.296 89.6375 183.372 89.5877 183.437 89.5245C183.501 89.4613 183.552 89.3859 183.587 89.3027C183.623 89.2195 183.641 89.13 183.641 89.0396C183.638 88.8544 183.564 88.6778 183.433 88.5472C183.302 88.4166 183.126 88.3424 182.942 88.3404C182.852 88.3383 182.762 88.3543 182.679 88.3875C182.595 88.4207 182.518 88.4704 182.454 88.5337C182.39 88.597 182.338 88.6726 182.303 88.7561C182.269 88.8396 182.251 88.9293 182.251 89.0199Z" fill="#263238"/>
<path d="M182.125 86.5863C182.215 86.6772 182.73 86.2505 183.476 86.2229C184.223 86.1952 184.789 86.5547 184.867 86.4559C184.946 86.3572 184.812 86.2466 184.565 86.0609C184.232 85.844 183.841 85.7376 183.445 85.7567C183.056 85.7692 182.681 85.9077 182.376 86.1517C182.156 86.373 182.082 86.5468 182.125 86.5863Z" fill="#263238"/>
<path d="M179.677 92.6541C179.278 92.544 178.866 92.4856 178.451 92.4803C178.259 92.4803 178.059 92.4368 178.039 92.3025C178.016 92.0988 178.053 91.8927 178.145 91.71C178.306 91.2241 178.475 90.7145 178.648 90.1812C179.351 88.0005 179.827 86.2308 179.764 86.1873C179.701 86.1439 179.041 87.8978 178.341 90.0785C178.173 90.6157 178.011 91.1253 177.862 91.6152C177.747 91.8619 177.722 92.1417 177.791 92.4052C177.822 92.4726 177.867 92.5322 177.923 92.5794C177.98 92.6266 178.046 92.6603 178.118 92.6778C178.224 92.7036 178.334 92.7156 178.444 92.7134C178.856 92.7464 179.27 92.7264 179.677 92.6541Z" fill="#263238"/>
<path d="M181.787 84.1767C181.897 84.3703 182.616 84.1293 183.5 84.074C184.384 84.0187 185.126 84.1253 185.209 83.916C185.244 83.8172 185.087 83.6473 184.769 83.5209C184.352 83.3423 183.897 83.2691 183.445 83.3076C182.993 83.3336 182.553 83.4692 182.164 83.7026C181.869 83.8883 181.74 84.0819 181.787 84.1767Z" fill="#263238"/>
<path d="M174.652 84.4453C174.813 84.6191 175.438 84.4176 176.153 84.39C176.868 84.3623 177.508 84.4729 177.646 84.2833C177.709 84.1925 177.607 84.0186 177.332 83.8606C176.952 83.6696 176.53 83.5811 176.106 83.604C175.683 83.6269 175.272 83.7602 174.915 83.991C174.664 84.1766 174.581 84.3623 174.652 84.4453Z" fill="#263238"/>
<path d="M190.207 89.1029C190.289 89.0634 193.515 87.9376 193.546 91.3863C193.578 94.8349 190.222 94.1515 190.215 94.0607C190.207 93.9698 190.207 89.1029 190.207 89.1029Z" fill="#FFBF9D"/>
<path d="M191.216 92.7412C191.216 92.7412 191.275 92.7847 191.373 92.8281C191.443 92.8571 191.517 92.872 191.592 92.872C191.666 92.872 191.741 92.8571 191.81 92.8281C192.159 92.6898 192.454 92.1091 192.462 91.485C192.47 91.1901 192.412 90.8972 192.293 90.6277C192.262 90.5213 192.205 90.4241 192.129 90.3443C192.052 90.2645 191.957 90.2045 191.853 90.1695C191.785 90.1516 191.713 90.159 191.65 90.1902C191.588 90.2214 191.538 90.2744 191.511 90.3394C191.464 90.4342 191.487 90.5053 191.468 90.5092C191.448 90.5132 191.397 90.4539 191.425 90.3117C191.44 90.2257 191.486 90.1484 191.554 90.0944C191.598 90.0569 191.648 90.0294 191.703 90.0137C191.758 89.998 191.816 89.9945 191.872 90.0036C192.011 90.0308 192.14 90.0935 192.247 90.1855C192.355 90.2776 192.437 90.3958 192.485 90.529C192.63 90.8278 192.701 91.1569 192.694 91.4889C192.694 92.1842 192.34 92.84 191.861 92.9901C191.772 93.017 191.677 93.0232 191.585 93.0082C191.494 92.9931 191.406 92.9572 191.33 92.9032C191.224 92.8242 191.205 92.7491 191.216 92.7412Z" fill="#FF9A6C"/>
<path d="M187.81 80.491C187.732 80.0498 187.535 79.6386 187.242 79.3016C186.948 78.9646 186.569 78.7147 186.144 78.579C185.412 78.3314 184.618 78.3411 183.893 78.6066C182.011 79.294 178.785 80.325 177.964 79.6653C176.762 78.7172 176.471 78.0852 176.471 78.0852L175.807 78.812C175.269 78.5039 176.888 76.6946 178.216 76.0705C180.219 75.1303 183.28 74.5496 185.13 75.0908C187.358 75.7426 189.208 76.8843 190.328 78.9819C191.407 81.1233 191.914 83.5093 191.801 85.907C191.801 86.6378 191.915 88.7315 191.216 88.8935C190.67 89.0159 189.975 89.2608 190.014 90.3116C190.041 90.6953 189.917 91.0742 189.668 91.3664C189.059 92.038 188.313 91.4059 187.967 90.7738C187.232 89.4228 187.15 87.811 187.087 86.2625C186.982 85.1641 187.053 84.0559 187.295 82.9797C187.549 82.2951 187.729 81.5853 187.833 80.8623C187.838 80.738 187.83 80.6136 187.81 80.491Z" fill="#263238"/>
<path d="M179.548 94.519C179.528 94.5704 179.681 94.7008 179.991 94.7679C180.403 94.8504 180.831 94.7832 181.198 94.5783C181.566 94.3771 181.854 94.055 182.015 93.6658C182.133 93.3695 182.113 93.172 182.058 93.1562C182.003 93.1404 181.693 93.8119 180.989 94.1951C180.286 94.5783 179.579 94.4045 179.548 94.519Z" fill="#263238"/>
<path d="M176.063 140.541L192.022 137.01L202.28 111.454C202.28 111.454 215.987 114.512 218.247 122.231C220.211 128.888 224.242 158.31 215.064 176.446C213.895 178.731 212.12 180.646 209.936 181.981C207.752 183.315 205.244 184.016 202.688 184.007H132.846C128.587 184.008 124.478 182.43 121.304 179.577C118.129 176.723 116.112 172.793 115.637 168.538C115.245 164.982 114.97 161.613 115.025 159.416L126.237 150.765L176.063 140.541Z" fill="#455A64"/>
<g opacity="0.3">
<path d="M133.396 149.43C128.481 155.884 122.501 161.676 115.351 165.476L115.009 156.714L128.218 147.261L133.396 149.43Z" fill="black"/>
</g>
<path d="M186.109 106.485C186.109 106.951 182.478 108.46 180.84 107.796C178.341 106.793 178.652 104.822 178.652 104.822L177.265 106.291L163.369 127.584L153.04 134.438L169.572 139.704L186.906 119.683L186.109 106.485Z" fill="#F5F5F5"/>
<path d="M190.489 99.3385L190.855 100.026L192.505 103.119L199.368 107.52L185.252 124.392L178.813 139.704L163.373 144.563C163.373 144.563 170.719 133.205 173.002 127.398C175.285 121.591 175.517 121.868 177.599 117.609C179.014 114.609 180.273 111.537 181.37 108.405L190.489 99.3385Z" fill="#0D7EB1"/>
<path d="M157.417 129.737L154.388 132.577L153.531 134.331L164.791 129.065L172.92 117.609C172.92 117.609 175.815 111.15 176.809 108.835C177.858 106.402 178.64 105.023 178.64 105.023V103.103L174.542 106.824L171.12 107.848L165.4 116.933L157.417 129.737Z" fill="#0D7EB1"/>
<path d="M160.886 119.023C160.886 119.023 162.253 116.092 163.369 113.654C165.883 108.163 171.812 107.642 171.812 107.642L165.258 125.916L157.232 131.641C157.232 131.641 154.945 132.431 154.659 131.641C154.659 131.641 152.989 125.581 153.04 125.557C153.091 125.533 158.752 123.831 158.752 123.831L161.031 118.695" fill="#0D7EB1"/>
<path d="M148.813 113.319L156.611 126.383L148.443 126.142L141.242 114.038C141.178 113.932 141.144 113.811 141.143 113.687C141.141 113.563 141.173 113.441 141.233 113.333C141.294 113.226 141.382 113.136 141.489 113.074C141.595 113.012 141.716 112.979 141.839 112.979H148.215C148.336 112.979 148.454 113.01 148.559 113.07C148.663 113.129 148.751 113.215 148.813 113.319Z" fill="#263238"/>
<path d="M178.813 128.093L159.291 125.758L156.01 119.979L153.441 118.561C153.228 118.442 152.985 118.388 152.742 118.403C152.5 118.418 152.266 118.503 152.069 118.648L151.826 118.826L149.92 118.585C149.596 118.542 149.266 118.607 148.981 118.77L147.63 119.56C147.533 119.618 147.452 119.7 147.395 119.798C147.339 119.896 147.309 120.008 147.308 120.121C147.308 120.217 147.329 120.311 147.369 120.398C147.41 120.484 147.469 120.561 147.542 120.622C147.615 120.683 147.7 120.727 147.792 120.751C147.884 120.775 147.98 120.779 148.074 120.761L149.386 120.52L151.398 121.18C151.398 121.18 150.101 121.318 149.936 122.306C149.771 123.293 150.427 123.317 150.427 123.317C150.427 123.317 149.064 124.107 150.034 125.292C150.034 125.292 148.895 126.055 150.172 127.501C151.032 128.48 157.244 131.672 157.244 131.672L178.813 139.703V128.093Z" fill="#FFBF9D"/>
<path d="M150.066 125.285C150.066 125.285 149.92 125.285 149.747 125.463C149.635 125.594 149.557 125.751 149.521 125.92C149.484 126.089 149.491 126.264 149.539 126.43C149.71 126.9 150 127.317 150.38 127.639C150.804 128.057 151.263 128.437 151.751 128.777C152.643 129.378 153.586 129.9 154.568 130.337C154.962 130.543 155.373 130.711 155.798 130.839C155.42 130.602 155.026 130.391 154.619 130.207C153.667 129.737 152.748 129.203 151.869 128.607C151.388 128.275 150.933 127.905 150.51 127.501C150.145 127.207 149.86 126.825 149.681 126.391C149.631 126.245 149.616 126.09 149.638 125.937C149.66 125.785 149.718 125.64 149.806 125.514C149.882 125.426 149.969 125.349 150.066 125.285Z" fill="#FF9A6C"/>
<path d="M151.896 118.877C152.195 119.062 152.525 119.188 152.871 119.248C153.2 119.372 153.549 119.431 153.9 119.422C153.603 119.236 153.272 119.109 152.926 119.051C152.597 118.927 152.247 118.868 151.896 118.877Z" fill="#FF9A6C"/>
<path d="M149.382 120.505C149.807 120.752 150.263 120.94 150.738 121.066C151.193 121.252 151.671 121.376 152.16 121.433C151.737 121.182 151.28 120.993 150.804 120.872C150.35 120.683 149.871 120.559 149.382 120.505Z" fill="#FF9A6C"/>
<path d="M151.704 123.124C151.763 123.124 151.79 122.946 151.857 122.752C151.924 122.559 152.003 122.409 151.959 122.357C151.916 122.306 151.743 122.436 151.665 122.677C151.586 122.918 151.669 123.132 151.704 123.124Z" fill="#FF9A6C"/>
<path d="M151.056 125.391C151.115 125.391 151.091 125.095 151.174 124.775C151.256 124.455 151.397 124.21 151.354 124.171C151.311 124.131 151.067 124.345 150.961 124.724C150.855 125.103 151.005 125.391 151.056 125.391Z" fill="#FF9A6C"/>
<path d="M198.819 107.168C199.471 107.563 204.991 111.356 204.185 117.566C203.38 123.776 191.161 137.815 188.611 138.084L178.809 139.704V128.093L183.524 127.825L189.684 115.673L198.819 107.168Z" fill="#0D7EB1"/>
<path d="M178.813 127.533C178.928 127.554 179.045 127.564 179.163 127.564L180.153 127.604L183.665 127.683H183.712L183.744 127.643L186.227 124.285C187.708 122.275 189.036 120.445 189.991 119.114L191.11 117.534C191.257 117.345 191.389 117.144 191.503 116.934C191.337 117.104 191.185 117.288 191.047 117.483L189.869 119.023C188.883 120.327 187.511 122.144 186.054 124.159L183.591 127.529L183.669 127.489H180.157H179.167C179.047 127.489 178.929 127.503 178.813 127.533Z" fill="#263238"/>
<path d="M181.194 109.922C181.268 109.81 181.332 109.692 181.386 109.57L181.87 108.551H181.764C182.12 109.072 182.437 109.62 182.71 110.19C183.057 110.949 183.468 111.676 183.94 112.363L184.019 112.474L184.101 112.367C184.738 111.577 185.465 110.743 186.246 109.886C187.955 108.017 189.59 106.398 190.757 105.213L192.136 103.802C192.31 103.637 192.47 103.457 192.615 103.265C192.422 103.41 192.241 103.57 192.073 103.743L190.647 105.102C189.468 106.26 187.798 107.867 186.081 109.736C185.296 110.597 184.573 111.442 183.94 112.236H184.105C183.636 111.559 183.221 110.846 182.864 110.103C182.577 109.531 182.242 108.985 181.862 108.472L181.799 108.385L181.76 108.48C181.583 108.906 181.437 109.25 181.327 109.523C181.266 109.649 181.221 109.783 181.194 109.922Z" fill="#263238"/>
<path d="M174.491 106.951C174.36 107.127 174.261 107.325 174.197 107.535C173.995 108.069 173.824 108.614 173.682 109.167L173.549 109.649L173.855 109.254C174.293 108.707 174.774 108.196 175.293 107.725C175.749 107.306 176.193 106.935 176.597 106.563L176.432 106.5C176.489 107.148 176.509 107.798 176.491 108.448C176.476 108.706 176.51 108.964 176.589 109.21C176.613 109.21 176.589 108.93 176.617 108.452C176.668 107.794 176.668 107.134 176.617 106.477L176.597 106.291L176.452 106.413C176.059 106.757 175.588 107.14 175.128 107.567C174.599 108.048 174.115 108.577 173.682 109.147L173.855 109.23C174.024 108.547 174.161 107.978 174.287 107.587C174.37 107.38 174.439 107.167 174.491 106.951Z" fill="#263238"/>
<path d="M160.312 125.881C160.48 125.749 160.636 125.604 160.78 125.447L161.986 124.206C162.493 123.673 163.094 123.076 163.754 122.338C164.057 121.943 164.324 121.52 164.638 121.105C164.957 120.657 165.231 120.178 165.455 119.675C165.923 118.656 166.276 117.649 166.595 116.736C166.913 115.823 167.192 114.998 167.447 114.318C167.703 113.639 167.938 113.094 168.119 112.738C168.225 112.555 168.32 112.365 168.402 112.169C168.402 112.169 168.359 112.209 168.3 112.296C168.207 112.422 168.121 112.554 168.044 112.691C167.763 113.201 167.514 113.728 167.302 114.271C167.023 114.95 166.728 115.768 166.402 116.677C166.076 117.585 165.718 118.585 165.255 119.592C165.037 120.081 164.774 120.548 164.469 120.987C164.151 121.409 163.884 121.848 163.597 122.223C162.98 122.93 162.363 123.57 161.88 124.107L160.721 125.391C160.571 125.543 160.435 125.706 160.312 125.881Z" fill="#263238"/>
<path d="M154.647 132.435L117.59 131.388C117.003 131.372 116.42 131.481 115.877 131.708C114.53 132.285 112.106 133.766 110.444 137.313C108.035 142.449 96.799 164.176 96.799 164.176L108.161 170.031L122.097 144.037L165.062 140.363L164.563 136.91L154.647 132.435Z" fill="#263238"/>
<path d="M111.536 165.452L105.615 175.672L105.222 178.255C105.165 178.631 105.035 178.992 104.839 179.317C104.643 179.642 104.386 179.925 104.081 180.15C103.776 180.375 103.431 180.537 103.063 180.628C102.696 180.718 102.315 180.735 101.941 180.677L83.9199 177.912C83.707 177.883 83.5034 177.806 83.3249 177.686C83.1463 177.566 82.9976 177.406 82.8902 177.219C82.7827 177.032 82.7194 176.823 82.7052 176.607C82.691 176.392 82.7262 176.176 82.8081 175.976C82.8856 175.799 83.0035 175.643 83.1524 175.521C83.3013 175.399 83.4768 175.314 83.6646 175.273C85.1732 174.878 96.8026 170.592 96.8026 170.592L101.651 160.811L111.536 165.452Z" fill="#E0E0E0"/>
<path d="M106.574 167.818C107.068 167.314 107.514 166.764 107.906 166.175C108.356 165.627 108.751 165.036 109.084 164.409C108.591 164.914 108.147 165.464 107.756 166.053C107.306 166.601 106.91 167.192 106.574 167.818Z" fill="#263238"/>
<path d="M103.038 166.388C103.534 165.879 103.953 165.299 104.279 164.666C104.664 164.067 104.96 163.415 105.159 162.73C105.104 162.702 104.688 163.556 104.103 164.563C103.517 165.57 102.987 166.353 103.038 166.388Z" fill="#263238"/>
<path d="M100.566 180.349C100.606 180.349 100.7 179.998 100.959 179.464C101.306 178.773 101.8 178.166 102.407 177.688C103.013 177.21 103.717 176.873 104.468 176.699C105.045 176.561 105.418 176.557 105.418 176.517C105.094 176.443 104.757 176.443 104.432 176.517C103.638 176.652 102.89 176.984 102.256 177.485C101.623 177.985 101.124 178.637 100.806 179.381C100.657 179.683 100.576 180.013 100.566 180.349Z" fill="#263238"/>
<path d="M88.4224 178.591C88.5716 178.393 88.6701 178.161 88.7092 177.916C88.8512 177.326 88.8212 176.707 88.6228 176.134C88.4181 175.572 88.0982 175.059 87.6838 174.629C87.5308 174.435 87.3412 174.274 87.1259 174.155C87.1024 174.182 87.287 174.392 87.5581 174.739C87.9129 175.184 88.1966 175.681 88.3989 176.213C88.5797 176.749 88.6296 177.321 88.5442 177.88C88.4856 178.114 88.4448 178.351 88.4224 178.591Z" fill="#263238"/>
<path d="M165.993 137.519C165.993 137.519 127.754 133.663 125.896 133.817C122.466 134.102 116.14 139.541 104.916 147.118C99.1 151.092 93.7027 155.652 88.8074 160.727L92.3945 168.96C92.3945 168.96 117.539 159.744 121.487 156.429C124.764 153.664 130.744 149.753 130.744 149.753L145.493 149.903L156.458 150.875C159.163 151.116 161.884 150.665 164.369 149.565C166.854 148.465 169.023 146.751 170.672 144.582L174.927 138.992L165.993 137.519Z" fill="#263238"/>
<path d="M130.928 149.639C130.928 149.639 130.866 149.674 130.752 149.753L130.237 150.109L128.253 151.511C126.528 152.748 123.998 154.525 120.894 156.884C120.698 157.03 120.501 157.2 120.305 157.33L119.672 157.725C119.217 157.954 118.761 158.207 118.278 158.432L116.8 159.124L115.229 159.815C113.105 160.739 110.814 161.703 108.357 162.707C103.454 164.709 97.9538 166.886 92.0174 169.181L92.147 169.24L88.8979 160.945L88.8743 161.063L93.3375 156.489C94.3865 155.576 95.5101 154.604 96.6573 153.644C103.5 147.974 110.657 142.699 118.093 137.843C119.1 136.976 120.187 136.207 121.338 135.548C122.432 134.907 123.596 134.398 124.807 134.031C125.106 133.952 125.405 133.888 125.699 133.813L126.591 133.675L127.483 133.628H131.805L143.351 133.604L150.848 133.572H152.812H153.323C153.38 133.576 153.438 133.576 153.496 133.572H153.323H152.812H150.848L143.351 133.545L131.805 133.521H127.483L126.575 133.564L125.664 133.703C125.365 133.778 125.063 133.841 124.76 133.924C123.533 134.29 122.354 134.802 121.248 135.449C120.081 136.112 118.981 136.887 117.963 137.764C110.512 142.613 103.345 147.889 96.4962 153.565C95.3451 154.525 94.2214 155.497 93.1725 156.414L88.7093 160.992L88.6622 161.043L88.6857 161.111L91.9467 169.406L91.982 169.501L92.0763 169.466C98.0128 167.163 103.513 164.974 108.412 162.959C110.86 161.952 113.154 160.984 115.276 160.048L116.848 159.349L118.34 158.574C118.82 158.341 119.279 158.088 119.735 157.855L120.383 157.46C120.596 157.33 120.776 157.16 120.973 157.014C124.061 154.644 126.583 152.846 128.292 151.59L130.257 150.164L130.76 149.793C130.881 149.686 130.928 149.639 130.928 149.639Z" fill="#455A64"/>
<path d="M100.527 166.87L89.9195 171.062L88.1555 172.982C87.8986 173.261 87.5895 173.486 87.2459 173.645C86.9023 173.804 86.5309 173.894 86.1529 173.908C85.7749 173.923 85.3978 173.863 85.043 173.731C84.6882 173.599 84.3628 173.398 84.0852 173.14L70.7036 160.688C70.5434 160.544 70.418 160.365 70.3372 160.165C70.2564 159.965 70.2223 159.749 70.2375 159.533C70.2526 159.318 70.3167 159.109 70.4248 158.922C70.5328 158.735 70.682 158.576 70.8608 158.456C71.0237 158.354 71.2081 158.292 71.3992 158.275C71.5902 158.258 71.7826 158.286 71.9609 158.357C73.4263 158.887 85.4525 161.877 85.4525 161.877L93.5183 155.414L100.527 166.87Z" fill="#E0E0E0"/>
<path d="M100.527 166.87C100.527 166.87 100.492 166.803 100.413 166.669L100.056 166.076C99.7377 165.543 99.2701 164.773 98.6769 163.785C97.4668 161.782 95.7224 158.906 93.5694 155.375L93.5262 155.3L93.4555 155.355L85.3896 161.802H85.4721L78.2981 159.985L74.5068 158.993C73.8664 158.819 73.2181 158.649 72.5738 158.46L72.0945 158.31C71.9279 158.245 71.7534 158.204 71.5758 158.187C71.3907 158.18 71.2061 158.211 71.0336 158.279C70.8611 158.347 70.7046 158.45 70.574 158.582C70.3184 158.839 70.1632 159.18 70.1365 159.543C70.1098 159.905 70.2135 160.265 70.4286 160.558C70.5361 160.701 70.6571 160.833 70.7901 160.953L71.1555 161.292L71.8823 161.968L74.7346 164.619L80.1289 169.628L82.6394 171.958L83.8416 173.076C84.0369 173.267 84.25 173.437 84.4781 173.586C85.0372 173.931 85.6945 174.08 86.3467 174.008C86.9988 173.937 87.6089 173.649 88.0808 173.191C88.7566 172.484 89.3695 171.792 89.9706 171.141H89.9431C93.2158 169.829 95.8638 168.77 97.7065 168.028L99.7966 167.178L100.339 166.957L100.516 166.882C100.516 166.882 100.445 166.902 100.315 166.953L99.7612 167.163L97.6397 167.984L89.892 171.006C89.287 171.654 88.6623 172.349 88.0023 173.041C87.6479 173.381 87.2111 173.621 86.7354 173.738C86.2597 173.855 85.7618 173.845 85.2914 173.708C85.0463 173.637 84.8123 173.532 84.596 173.396C84.3784 173.252 84.1757 173.087 83.9909 172.903C83.598 172.535 83.2052 172.16 82.7887 171.785C81.9768 171.026 81.1412 170.247 80.2821 169.446C78.5692 167.866 76.7658 166.167 74.8957 164.429C73.9633 163.557 73.0138 162.672 72.0473 161.774L71.3205 161.099C71.0741 160.884 70.8405 160.654 70.6211 160.411C70.4339 160.159 70.3428 159.847 70.3644 159.532C70.386 159.218 70.5189 158.921 70.739 158.697C70.8507 158.586 70.9843 158.5 71.1312 158.444C71.278 158.388 71.4348 158.364 71.5916 158.373C71.7507 158.389 71.9068 158.428 72.0552 158.488L72.5463 158.638C73.1945 158.827 73.8389 158.997 74.4832 159.171L78.2784 160.159L85.4525 161.964H85.4996L85.535 161.936L93.5576 155.473H93.4437L98.5865 163.793L100.013 166.08L100.406 166.677C100.476 166.795 100.527 166.87 100.527 166.87Z" fill="#263238"/>
<path d="M83.1423 172.093C83.1698 172.121 83.4487 171.876 83.9713 171.587C84.6435 171.208 85.3907 170.983 86.1594 170.928C86.9282 170.872 87.6997 170.988 88.4187 171.267C88.9727 171.477 89.287 171.682 89.3105 171.662C89.076 171.424 88.7933 171.24 88.4816 171.121C87.7488 170.786 86.9442 170.641 86.1412 170.698C85.3382 170.756 84.5624 171.016 83.8848 171.453C83.5926 171.608 83.3388 171.826 83.1423 172.093Z" fill="#263238"/>
<path d="M74.0586 163.801C74.2916 163.718 74.5027 163.583 74.6755 163.406C75.1197 162.996 75.4374 162.467 75.5909 161.881C75.7343 161.299 75.7557 160.694 75.6537 160.103C75.6358 159.857 75.5676 159.618 75.4534 159.4C75.4337 159.641 75.4443 159.884 75.4848 160.123C75.5358 160.691 75.4946 161.263 75.363 161.818C75.2147 162.365 74.937 162.867 74.5537 163.283C74.259 163.599 74.0351 163.765 74.0586 163.801Z" fill="#263238"/>
<path d="M137.431 149.643C138.252 145.728 139.929 141.722 143.249 139.522C145.768 137.847 148.883 137.436 151.893 137.065L214.542 129.318C215.103 139.245 210.876 151.602 206.562 160.554C205.894 161.944 205.12 163.366 203.84 164.216C202.268 165.251 200.272 165.239 198.402 165.191C177.324 164.65 156.238 163.75 135.278 161.431C136.456 157.611 136.613 153.554 137.431 149.643Z" fill="#455A64"/>
<path d="M191.491 132.166C191.738 132.169 191.985 132.154 192.23 132.119L194.234 131.902C195.923 131.704 198.253 131.416 200.822 131.06C203.392 130.705 205.718 130.345 207.391 130.049C208.232 129.899 208.908 129.776 209.356 129.654C209.6 129.613 209.84 129.554 210.075 129.476C209.828 129.488 209.582 129.518 209.34 129.567L207.352 129.875C205.67 130.128 203.349 130.464 200.779 130.819L194.198 131.724L192.202 132.012C191.962 132.045 191.724 132.096 191.491 132.166Z" fill="#263238"/>
<path d="M191.169 183.988C191.194 183.949 191.215 183.908 191.232 183.865C191.279 183.774 191.334 183.652 191.405 183.502L192.042 182.091L192.501 181.092C192.658 180.697 192.812 180.302 192.988 179.851C193.326 178.963 193.751 177.959 194.112 176.81C194.301 176.241 194.505 175.644 194.705 175.02C194.906 174.396 195.098 173.732 195.275 173.045C195.668 171.69 196.006 170.213 196.367 168.664C197.825 161.905 198.303 154.971 197.785 148.075C197.64 146.494 197.526 144.985 197.306 143.587C197.2 142.888 197.129 142.208 197.011 141.56C196.894 140.912 196.776 140.296 196.666 139.704C196.465 138.518 196.182 137.464 195.97 136.543C195.856 136.077 195.762 135.647 195.656 135.252C195.55 134.856 195.436 134.501 195.342 134.177C195.157 133.541 195.008 133.043 194.906 132.692L194.784 132.297C194.773 132.252 194.757 132.208 194.737 132.166C194.74 132.212 194.749 132.257 194.764 132.301L194.862 132.696L195.255 134.189L195.55 135.267C195.648 135.662 195.739 136.101 195.845 136.563C196.049 137.495 196.32 138.538 196.509 139.723C196.611 140.312 196.725 140.932 196.839 141.576C196.953 142.22 197.019 142.899 197.118 143.599C197.334 144.993 197.44 146.498 197.581 148.078C198.066 154.959 197.59 161.873 196.167 168.62C195.809 170.165 195.499 171.643 195.094 172.994C194.902 173.673 194.741 174.333 194.54 174.969C194.34 175.605 194.147 176.189 193.959 176.758C193.609 177.908 193.197 178.911 192.87 179.808C192.698 180.254 192.552 180.673 192.399 181.052L191.959 182.076L191.362 183.502L191.209 183.877C191.192 183.912 191.179 183.949 191.169 183.988Z" fill="#263238"/>
<path d="M191.833 163.971C192.652 164.046 193.477 164.046 194.296 163.971C195.121 163.97 195.944 163.895 196.756 163.746C195.935 163.673 195.109 163.673 194.289 163.746C193.465 163.748 192.643 163.824 191.833 163.971Z" fill="#263238"/>
<path d="M192.403 166.87C193.277 166.793 194.133 166.567 194.933 166.203C195.76 165.906 196.531 165.469 197.211 164.911C197.176 164.855 196.178 165.46 194.854 165.997C193.53 166.534 192.391 166.783 192.403 166.87Z" fill="#263238"/>
<path d="M197.891 147.071C198.381 147.38 198.944 147.553 199.522 147.573C200.093 147.662 200.678 147.601 201.219 147.395C201.219 147.328 200.461 147.442 199.541 147.352C198.622 147.261 197.915 147.012 197.891 147.071Z" fill="#263238"/>
<path d="M196.638 146.123C197.246 146.25 197.88 146.17 198.437 145.894C199.024 145.685 199.522 145.282 199.852 144.752C199.382 145.111 198.88 145.425 198.351 145.688C197.455 146.079 196.638 146.052 196.638 146.123Z" fill="#263238"/>
<path d="M174.578 78.4449C174.734 78.0353 174.986 77.6694 175.312 77.3779C175.638 77.0865 176.029 76.8779 176.452 76.7699C177.303 76.5581 178.196 76.591 179.029 76.8647L187.17 78.7372C185.991 79.5273 183.567 80.2699 182.176 80.4201C180.145 80.6373 178.715 80.6571 177.505 79.9539C177.426 80.1557 177.306 80.3383 177.152 80.4899C176.997 80.6414 176.813 80.7584 176.611 80.833C176.408 80.9077 176.193 80.9384 175.978 80.923C175.763 80.9077 175.553 80.8466 175.364 80.744C174.996 80.5037 174.72 80.1469 174.577 79.7304C174.435 79.3138 174.435 78.8613 174.578 78.4449Z" fill="#263238"/>
<path d="M93.2471 164.311C94.9014 163.966 96.4921 163.363 97.9617 162.525C97.9381 162.47 96.9009 162.92 95.6044 163.41C94.3079 163.9 93.2314 164.255 93.2471 164.311Z" fill="#263238"/>
<path d="M91.4554 160.81C92.167 160.516 92.8633 160.185 93.5416 159.819C94.2494 159.517 94.9405 159.176 95.6121 158.8C94.8606 158.988 94.1349 159.268 93.4512 159.633C92.7388 159.939 92.0681 160.334 91.4554 160.81Z" fill="#263238"/>
<path d="M156.297 136.022L139.886 136.223L120.069 132.273C119.758 132.207 119.474 132.048 119.254 131.817C119.035 131.586 118.89 131.293 118.84 130.977L116.144 113.034C116.114 112.829 116.132 112.618 116.198 112.421C116.263 112.223 116.374 112.044 116.522 111.898C116.669 111.751 116.849 111.642 117.046 111.579C117.243 111.516 117.453 111.5 117.657 111.533L137.91 114.848C138.191 114.894 138.449 115.03 138.647 115.236C138.844 115.441 138.97 115.706 139.006 115.989L141.265 134.236L156.273 134.161C156.519 134.161 156.754 134.259 156.928 134.433C157.101 134.607 157.2 134.843 157.201 135.09C157.202 135.333 157.108 135.567 156.939 135.742C156.77 135.916 156.539 136.017 156.297 136.022Z" fill="#E0E0E0"/>
<path d="M156.297 136.022C156.403 136.03 156.509 136.012 156.607 135.971C156.756 135.917 156.888 135.826 156.992 135.706C157.096 135.587 157.168 135.442 157.2 135.287C157.227 135.16 157.227 135.029 157.202 134.901C157.176 134.774 157.125 134.653 157.052 134.546C156.978 134.44 156.884 134.349 156.774 134.28C156.665 134.211 156.542 134.165 156.415 134.146C155.813 134.122 155.134 134.146 154.356 134.146L141.269 134.177L141.34 134.24C140.695 128.99 139.929 122.784 139.085 115.879C139.036 115.648 138.931 115.434 138.779 115.254C138.628 115.074 138.434 114.934 138.216 114.848C138.002 114.778 137.78 114.732 137.556 114.71L136.904 114.599L134.26 114.168L128.811 113.272L123.165 112.355L120.281 111.885L118.824 111.644L118.093 111.526C117.842 111.471 117.587 111.443 117.331 111.443C117.05 111.467 116.783 111.574 116.563 111.751C116.343 111.927 116.179 112.165 116.093 112.434C116.019 112.701 116.011 112.981 116.069 113.252L116.187 114.018C116.339 115.04 116.491 116.055 116.643 117.064C116.946 119.075 117.244 121.062 117.539 123.009C117.834 124.957 118.12 126.865 118.399 128.737L118.611 130.128C118.647 130.361 118.678 130.59 118.714 130.819C118.736 131.062 118.801 131.299 118.906 131.519C119.016 131.736 119.173 131.927 119.366 132.076C119.558 132.226 119.781 132.331 120.018 132.384L121.346 132.648L139.87 136.314L151.9 136.137L155.149 136.077L156.026 136.058H155.181L151.928 136.077L139.898 136.192L121.381 132.478L120.057 132.21C119.848 132.164 119.651 132.072 119.481 131.94C119.311 131.808 119.172 131.64 119.075 131.447C118.979 131.247 118.922 131.03 118.906 130.807L118.8 130.116C118.733 129.654 118.663 129.188 118.592 128.722L117.735 122.994C117.445 121.047 117.147 119.072 116.843 117.068C116.694 116.062 116.542 115.047 116.388 114.022L116.274 113.256C116.213 113.019 116.213 112.77 116.274 112.533C116.347 112.302 116.486 112.098 116.674 111.947C116.862 111.796 117.091 111.704 117.331 111.684C117.57 111.686 117.808 111.712 118.042 111.763L118.776 111.885L120.23 112.122L123.118 112.592L128.76 113.517L134.209 114.405L136.853 114.836L137.505 114.943C137.717 114.964 137.927 115.007 138.13 115.073C138.318 115.147 138.485 115.267 138.616 115.422C138.746 115.577 138.836 115.763 138.876 115.962C139.741 122.843 140.519 129.057 141.175 134.304V134.367H141.241L154.328 134.272C155.114 134.272 155.794 134.248 156.379 134.272C156.511 134.29 156.638 134.338 156.749 134.412C156.861 134.486 156.955 134.584 157.024 134.699C157.092 134.812 157.134 134.939 157.148 135.07C157.162 135.202 157.148 135.335 157.106 135.46C157.063 135.585 156.994 135.7 156.903 135.796C156.813 135.891 156.702 135.966 156.58 136.014C156.486 136.028 156.391 136.031 156.297 136.022Z" fill="#263238"/>
<path d="M137.254 115.424C137.199 115.424 137.741 120.192 138.468 126.063C139.195 131.933 139.827 136.685 139.886 136.677C139.945 136.67 139.395 131.909 138.668 126.039C137.942 120.169 137.309 115.416 137.254 115.424Z" fill="#263238"/>
<path d="M128.445 122.831C128.858 123.696 128.63 124.668 127.938 125.004C127.247 125.34 126.367 124.905 125.939 124.04C125.51 123.175 125.754 122.203 126.445 121.871C127.137 121.539 128.033 121.966 128.445 122.831Z" fill="white"/>
</g>
<defs>
<clipPath id="clip0_1_512">
<rect width="222.58" height="176.016" fill="white" transform="translate(0.42749 0.442383)"/>
</clipPath>
</defs>
</svg>
