<svg width="370" height="156" viewBox="0 0 370 156" fill="none" xmlns="http://www.w3.org/2000/svg">
<g clip-path="url(#clip0_1_358)">
<path d="M369.523 15.8064C351.718 23.4346 316.012 38.7383 307.037 43.0025C293.719 49.3514 269.803 60.7699 260.017 65.1289C250.231 69.5352 242.212 64.0391 229.992 58.0693C217.771 52.0994 209.942 54.4684 200.968 53.6156C191.946 52.8101 182.065 44.6608 180.251 43.571C173.854 39.7332 174.904 53.4734 180.633 60.4856C186.361 67.4505 201.971 65.6974 207.317 72.4728C212.663 79.2481 188.986 92.2776 177.243 95.9258C165.5 99.5741 147.074 107.392 145.785 108.434C142.826 110.756 143.399 116.868 145.499 117.626C147.599 118.337 163.83 112.651 174.331 108.955C184.833 105.26 194.476 103.412 196.147 104.596C197.77 105.781 191.039 109.382 180.919 115.304C169.462 121.985 158.054 130.324 155.428 132.266C152.803 134.209 154.282 141.126 157.958 141.979C161.634 142.785 177.005 131.745 182.017 128.428C187.029 125.112 202.257 114.404 203.498 115.731C204.262 116.489 203.212 119.711 198.534 123.501C193.855 127.339 183.974 137.146 179.248 141.316C174.522 145.485 173.424 146.907 174.522 149.323C175.62 151.739 178.007 153.635 182.065 150.744C186.122 147.902 195.717 141.221 201.207 136.057C206.696 130.892 211.709 124.496 213.188 124.78C214.668 125.064 211.565 128.381 209.942 130.561C205.98 135.725 203.498 140.368 199.631 145.343C195.765 150.271 195.956 153.161 196.72 154.393C197.674 155.861 199.25 156.383 201.78 154.63C204.31 152.876 215.718 136.199 220.206 130.75C224.645 125.301 227.796 121.179 234.908 116.726C242.021 112.272 244.742 111.94 255.96 102.938C261.688 98.3896 269.565 91.7564 294.483 85.6917C301.595 83.9387 342.409 72.1885 369.571 64.3234V15.8064H369.523Z" fill="white"/>
<path d="M211.852 89.6244C210.516 88.5821 191.994 81.0487 180.203 77.5899C168.413 74.1312 144.545 61.4808 149.748 54.6107C154.999 47.7406 170.656 49.2567 176.241 42.1971C181.826 35.1375 182.686 21.35 176.337 25.2825C174.523 26.4196 164.737 34.6637 155.763 35.6587C146.788 36.6063 138.912 34.3795 126.787 40.5388C114.662 46.6982 106.69 52.2891 96.8564 48.0249C86.9751 43.8081 62.9162 32.7212 49.5024 26.6092C40.6236 22.5819 5.87183 8.27313 -12.3633 0.787109V48.9251C14.8939 56.4111 55.6126 67.4506 62.7253 69.1089C87.7389 74.7945 95.7585 81.3329 101.535 85.7867C112.943 94.5993 115.617 94.931 122.825 99.2425C130.033 103.602 133.231 107.629 137.766 113.03C142.301 118.431 153.949 134.92 156.526 136.625C159.104 138.331 160.679 137.81 161.586 136.341C162.35 135.109 162.493 132.219 158.579 127.339C154.665 122.459 152.087 117.863 148.029 112.746C146.359 110.614 143.16 107.345 144.688 107.013C146.168 106.681 151.275 113.03 156.86 118.1C162.446 123.169 172.136 129.708 176.241 132.456C180.346 135.251 182.733 133.356 183.783 130.892C184.834 128.429 183.736 127.007 178.962 122.932C174.189 118.858 164.116 109.192 159.39 105.402C154.665 101.659 153.567 98.4845 154.33 97.679C155.572 96.3524 170.99 106.823 176.003 110.093C181.063 113.314 196.577 124.117 200.252 123.264C203.928 122.411 205.312 115.399 202.639 113.504C199.966 111.609 188.462 103.459 176.862 96.9683C166.646 91.188 159.868 87.7292 161.491 86.4974C163.114 85.3129 172.804 87.0185 183.354 90.5246C193.903 94.0308 210.229 99.4794 212.33 98.7214C214.334 98.058 214.812 91.946 211.852 89.6244Z" fill="#333333"/>
</g>
<defs>
<clipPath id="clip0_1_358">
<rect width="381.887" height="154.932" fill="white" transform="translate(-12.3633 0.787109)"/>
</clipPath>
</defs>
</svg>
