<svg width="16" height="16" viewBox="0 0 16 16" fill="none" xmlns="http://www.w3.org/2000/svg">
<path d="M8 16C7.88951 15.9996 7.78224 15.9587 7.69495 15.8836C4.9145 13.4889 2.9992 11.4267 1.65898 9.3923C-0.0512953 6.79246 -0.441358 4.39218 0.498793 2.25798C1.1689 0.733553 3.09421 -0.513705 5.34457 0.212476C6.41752 0.556021 7.35364 1.29276 8 2.30233C8.64636 1.29276 9.58248 0.556021 10.6554 0.212476C12.9008 -0.502619 14.8311 0.733553 15.5012 2.25798C16.4414 4.39218 16.0513 6.79246 14.341 9.3923C13.0008 11.4267 11.0855 13.4889 8.30505 15.8836C8.21776 15.9587 8.11049 15.9996 8 16ZM4.06437 1.11605C3.52891 1.09294 2.99788 1.23193 2.52829 1.51808C2.0587 1.80423 1.66828 2.22674 1.39894 2.74025C0.623813 4.50305 0.97387 6.4654 2.46911 8.73264C4.05815 11.0046 5.91887 13.0262 8 14.7417C10.0808 13.0279 11.9415 11.0082 13.5309 8.73818C15.0311 6.4654 15.3762 4.50305 14.6011 2.7458C14.101 1.63712 12.6007 0.755727 10.9305 1.2768C10.3949 1.45225 9.89841 1.75005 9.47294 2.15104C9.04747 2.55202 8.70245 3.04731 8.46007 3.60502C8.4224 3.70669 8.3583 3.79365 8.27594 3.85485C8.19357 3.91605 8.09666 3.94873 7.9975 3.94873C7.89834 3.94873 7.80142 3.91605 7.71906 3.85485C7.63669 3.79365 7.5726 3.70669 7.53493 3.60502C7.29438 3.04591 6.94994 2.54947 6.52421 2.14823C6.09847 1.747 5.60104 1.45003 5.06453 1.2768C4.73946 1.17215 4.40286 1.11804 4.06437 1.11605Z" fill="#FF3F3F"/>
</svg>
