<svg width="27" height="27" viewBox="0 0 27 27" fill="none" xmlns="http://www.w3.org/2000/svg">
<g clip-path="url(#clip0_522_891)">
<path d="M16.0943 1.7674C14.8343 1.41628 13.8499 2.3554 13.4987 3.23068C13.0955 4.23868 12.7377 4.94596 12.3127 5.791C12.0059 6.39732 11.7074 7.00778 11.4172 7.6222C10.6192 9.319 9.82458 10.4043 9.24498 11.0578C9.03429 11.2986 8.80693 11.5243 8.56458 11.7332C8.50957 11.7804 8.45298 11.8258 8.3949 11.8692L8.36802 11.8894L5.22306 13.7424C4.54222 14.1441 4.02479 14.7729 3.76177 15.5184C3.49874 16.2638 3.50696 17.0781 3.78498 17.8181L4.65858 20.1432C4.83795 20.6209 5.12376 21.0515 5.49431 21.4022C5.86486 21.753 6.31043 22.0147 6.79722 22.1676L15.7953 24.9934C16.3278 25.1607 16.8882 25.2202 17.4439 25.1685C17.9996 25.1167 18.5395 24.9547 19.0319 24.6919C19.5242 24.4292 19.9593 24.0709 20.3117 23.638C20.664 23.2052 20.9265 22.7065 21.0839 22.171L23.3755 14.364C23.5225 13.863 23.5506 13.3345 23.4578 12.8207C23.3649 12.3068 23.1535 11.8216 22.8405 11.4037C22.5274 10.9858 22.1212 10.6466 21.6542 10.413C21.1871 10.1795 20.6721 10.058 20.1499 10.0582H17.8247C17.9356 9.67684 18.0482 9.25348 18.1523 8.815C18.3724 7.87084 18.5606 6.79396 18.5421 5.89516C18.527 5.0602 18.4413 4.18324 18.0986 3.439C17.7307 2.641 17.0872 2.04124 16.096 1.76572L16.0943 1.7674ZM8.36298 11.8944L8.35962 11.8961L8.36298 11.8944Z" fill="#888888" fill-opacity="0.5"/>
</g>
<defs>
<clipPath id="clip0_522_891">
<rect width="26.88" height="26.88" fill="white"/>
</clipPath>
</defs>
</svg>
