<svg width="16" height="24" viewBox="0 0 16 24" fill="none" xmlns="http://www.w3.org/2000/svg">
<mask id="path-1-inside-1_1_3953" fill="white">
<path fill-rule="evenodd" clip-rule="evenodd" d="M8.88104 22.714C10.9605 19.6198 16 11.7516 16 8.17021C16 3.65793 12.4183 0 8 0C3.58172 0 0 3.65793 0 8.17021C0 11.7516 5.03954 19.6198 7.11896 22.714C7.54497 23.3479 8.45503 23.3479 8.88104 22.714ZM8 12.2553C10.2091 12.2553 12 10.4264 12 8.17021C12 5.91407 10.2091 4.08511 8 4.08511C5.79086 4.08511 4 5.91407 4 8.17021C4 10.4264 5.79086 12.2553 8 12.2553Z"/>
</mask>
<path fill-rule="evenodd" clip-rule="evenodd" d="M8.88104 22.714C10.9605 19.6198 16 11.7516 16 8.17021C16 3.65793 12.4183 0 8 0C3.58172 0 0 3.65793 0 8.17021C0 11.7516 5.03954 19.6198 7.11896 22.714C7.54497 23.3479 8.45503 23.3479 8.88104 22.714ZM8 12.2553C10.2091 12.2553 12 10.4264 12 8.17021C12 5.91407 10.2091 4.08511 8 4.08511C5.79086 4.08511 4 5.91407 4 8.17021C4 10.4264 5.79086 12.2553 8 12.2553Z" fill="#1F2933"/>
<path d="M8.88104 22.714L9.11061 22.8683L8.88104 22.714ZM7.11896 22.714L7.34853 22.5597L7.11896 22.714ZM15.7234 8.17021C15.7234 9.01215 15.4244 10.1359 14.9225 11.4176C14.4233 12.6926 13.7342 14.0975 12.9772 15.4929C11.4634 18.2832 9.6892 21.0156 8.65147 22.5597L9.11061 22.8683C10.1523 21.3182 11.9376 18.5694 13.4634 15.7567C14.2263 14.3505 14.927 12.9235 15.4376 11.6193C15.9457 10.3217 16.2766 9.11895 16.2766 8.17021H15.7234ZM8 0.276596C12.2601 0.276596 15.7234 3.80517 15.7234 8.17021H16.2766C16.2766 3.51069 12.5765 -0.276596 8 -0.276596V0.276596ZM0.276596 8.17021C0.276596 3.80517 3.73994 0.276596 8 0.276596V-0.276596C3.4235 -0.276596 -0.276596 3.51069 -0.276596 8.17021H0.276596ZM7.34853 22.5597C6.3108 21.0156 4.53657 18.2832 3.02282 15.4929C2.26584 14.0975 1.57669 12.6926 1.07748 11.4176C0.575628 10.1359 0.276596 9.01215 0.276596 8.17021H-0.276596C-0.276596 9.11895 0.0543139 10.3217 0.562362 11.6193C1.07304 12.9235 1.77374 14.3505 2.53657 15.7567C4.06244 18.5694 5.8477 21.3182 6.88939 22.8683L7.34853 22.5597ZM8.65147 22.5597C8.33506 23.0305 7.66494 23.0305 7.34853 22.5597L6.88939 22.8683C7.425 23.6653 8.575 23.6653 9.11061 22.8683L8.65147 22.5597ZM11.7234 8.17021C11.7234 10.2791 10.0509 11.9787 8 11.9787V12.5319C10.3674 12.5319 12.2766 10.5736 12.2766 8.17021H11.7234ZM8 4.3617C10.0509 4.3617 11.7234 6.06131 11.7234 8.17021H12.2766C12.2766 5.76683 10.3674 3.80851 8 3.80851V4.3617ZM4.2766 8.17021C4.2766 6.06131 5.94908 4.3617 8 4.3617V3.80851C5.63264 3.80851 3.7234 5.76683 3.7234 8.17021H4.2766ZM8 11.9787C5.94908 11.9787 4.2766 10.2791 4.2766 8.17021H3.7234C3.7234 10.5736 5.63264 12.5319 8 12.5319V11.9787Z" fill="#1F2933" mask="url(#path-1-inside-1_1_3953)"/>
</svg>
