<svg width="19" height="26" viewBox="0 0 19 26" fill="none" xmlns="http://www.w3.org/2000/svg">
<path fill-rule="evenodd" clip-rule="evenodd" d="M18.7 9.35C18.7 4.18614 14.5139 0 9.35 0C4.18614 0 0 4.18614 0 9.35C0 12.195 2.06535 16.3791 6.18528 21.9751L6.80286 22.8041L7.43474 23.6338L8.09034 24.4775C8.63675 25.1738 9.64254 25.2951 10.3377 24.7496C10.4386 24.6704 10.5296 24.5794 10.6087 24.4786C15.9982 17.6105 18.7 12.6033 18.7 9.35ZM1.2 9.35C1.2 4.84888 4.84888 1.2 9.35 1.2C13.8511 1.2 17.5 4.84888 17.5 9.35C17.5 12.1278 15.5082 16.109 10.7232 22.3178L10.1105 23.1056L9.35 24.0569L8.09034 22.4874C3.49822 16.4587 1.2 12.061 1.2 9.35ZM9.34961 5.1001C11.5587 5.1001 13.3496 6.89096 13.3496 9.1001C13.3496 11.3092 11.5587 13.1001 9.34961 13.1001C7.14047 13.1001 5.34961 11.3092 5.34961 9.1001C5.34961 6.89096 7.14047 5.1001 9.34961 5.1001ZM6.55 9.1C6.55 7.5536 7.8036 6.3 9.35 6.3C10.8964 6.3 12.15 7.5536 12.15 9.1C12.15 10.6464 10.8964 11.9 9.35 11.9C7.8036 11.9 6.55 10.6464 6.55 9.1Z" fill="white"/>
</svg>
