<svg width="16" height="16" viewBox="0 0 16 16" fill="none" xmlns="http://www.w3.org/2000/svg">
<path d="M13.3335 7.33329V2.66663H8.66683L10.5288 4.52863L7.6475 7.40996C6.97272 6.9266 6.16353 6.66667 5.3335 6.66663C3.1275 6.66663 1.3335 8.46063 1.3335 10.6666C1.3335 12.8726 3.1275 14.6666 5.3335 14.6666C7.5395 14.6666 9.3335 12.8726 9.3335 10.6666C9.3335 9.80396 9.05616 9.00663 8.59016 8.35263L11.4715 5.47129L13.3335 7.33329ZM5.3335 13.3333C3.86283 13.3333 2.66683 12.1373 2.66683 10.6666C2.66683 9.19596 3.86283 7.99996 5.3335 7.99996C6.80416 7.99996 8.00016 9.19596 8.00016 10.6666C8.00016 12.1373 6.80416 13.3333 5.3335 13.3333Z" fill="black"/>
</svg>
