<svg width="32" height="25" viewBox="0 0 32 25" fill="none" xmlns="http://www.w3.org/2000/svg">
<g clip-path="url(#clip0_1_2421)">
<path d="M5.81752 24.8758V23.2211C5.81752 22.5867 5.43327 22.1731 4.77464 22.1731C4.44539 22.1731 4.08864 22.2834 3.84164 22.642C3.64964 22.3386 3.37527 22.1731 2.96364 22.1731C2.68914 22.1731 2.41489 22.2558 2.19527 22.5592V22.2283H1.61902V24.8758H2.19527V23.4141C2.19527 22.9454 2.44227 22.7246 2.82652 22.7246C3.21052 22.7246 3.40277 22.9729 3.40277 23.4141V24.8758H3.97902V23.4141C3.97902 22.9454 4.25327 22.7246 4.61002 22.7246C4.99427 22.7246 5.18627 22.9729 5.18627 23.4141V24.8758H5.81752ZM14.3514 22.2283H13.4185V21.4285H12.8423V22.2283H12.3209V22.7522H12.8421V23.9657C12.8421 24.5725 13.0891 24.9309 13.7478 24.9309C13.9948 24.9309 14.269 24.8483 14.4613 24.738L14.2965 24.2415C14.1319 24.3518 13.9399 24.3794 13.8026 24.3794C13.5283 24.3794 13.4185 24.214 13.4185 23.9381V22.7522H14.3514V22.2283ZM19.2359 22.173C18.9066 22.173 18.6871 22.3386 18.5499 22.5592V22.2283H17.9736V24.8758H18.5499V23.3866C18.5499 22.9454 18.7419 22.6971 19.0986 22.6971C19.2084 22.6971 19.3456 22.7248 19.4554 22.7523L19.62 22.2008C19.5103 22.1731 19.3456 22.1731 19.2359 22.1731V22.173ZM11.8544 22.4489C11.5799 22.2558 11.1958 22.1731 10.7841 22.1731C10.1256 22.1731 9.68664 22.504 9.68664 23.028C9.68664 23.4694 10.0159 23.7175 10.5921 23.8003L10.8665 23.8279C11.1684 23.8829 11.333 23.9657 11.333 24.1037C11.333 24.2966 11.1135 24.4346 10.7293 24.4346C10.3451 24.4346 10.0433 24.2966 9.85114 24.1588L9.57677 24.6C9.87864 24.8206 10.2903 24.9309 10.7018 24.9309C11.4701 24.9309 11.9093 24.5725 11.9093 24.076C11.9093 23.6072 11.5525 23.3589 11.0036 23.2763L10.7293 23.2486C10.4823 23.221 10.2903 23.166 10.2903 23.0005C10.2903 22.8074 10.4823 22.6971 10.7841 22.6971C11.1135 22.6971 11.4428 22.8349 11.6074 22.9177L11.8544 22.4489ZM27.1663 22.1731C26.8369 22.1731 26.6174 22.3386 26.4801 22.5592V22.2283H25.9039V24.8758H26.4801V23.3866C26.4801 22.9454 26.6723 22.6971 27.0289 22.6971C27.1388 22.6971 27.276 22.7248 27.3858 22.7523L27.5504 22.2008C27.4406 22.1731 27.276 22.1731 27.1663 22.1731ZM19.8121 23.552C19.8121 24.3518 20.3609 24.9309 21.2116 24.9309C21.5958 24.9309 21.8701 24.8483 22.1445 24.6277L21.8701 24.1588C21.6506 24.3243 21.4311 24.4069 21.1841 24.4069C20.7176 24.4069 20.3884 24.076 20.3884 23.552C20.3884 23.0557 20.7176 22.7246 21.1841 22.6971C21.4311 22.6971 21.6506 22.7798 21.8701 22.9454L22.1445 22.4765C21.8701 22.2558 21.5958 22.1731 21.2116 22.1731C20.3609 22.1731 19.8121 22.7523 19.8121 23.552ZM25.1356 23.552V22.2283H24.5594V22.5592C24.3673 22.3111 24.0929 22.1731 23.7361 22.1731C22.9953 22.1731 22.419 22.7523 22.419 23.552C22.419 24.3518 22.9953 24.9309 23.7361 24.9309C24.1203 24.9309 24.3948 24.7931 24.5594 24.5449V24.8758H25.1356V23.552ZM23.0226 23.552C23.0226 23.0832 23.3245 22.6971 23.8184 22.6971C24.2849 22.6971 24.6143 23.0557 24.6143 23.552C24.6143 24.0209 24.2849 24.4069 23.8184 24.4069C23.3245 24.3793 23.0226 24.0209 23.0226 23.552ZM16.1351 22.1731C15.3668 22.1731 14.8179 22.7246 14.8179 23.552C14.8179 24.3794 15.3666 24.9309 16.1625 24.9309C16.5466 24.9309 16.9309 24.8206 17.2328 24.5725L16.9583 24.1588C16.7388 24.3243 16.4644 24.4346 16.19 24.4346C15.8333 24.4346 15.4765 24.2691 15.3941 23.8001H17.3425V23.5797C17.37 22.7246 16.8761 22.1731 16.1351 22.1731ZM16.1351 22.6695C16.4918 22.6695 16.7389 22.8902 16.7936 23.3039H15.4216C15.4765 22.9454 15.7235 22.6695 16.1351 22.6695ZM30.4316 23.552V21.1803H29.8554V22.5592C29.6633 22.3111 29.3889 22.1731 29.0321 22.1731C28.2913 22.1731 27.715 22.7523 27.715 23.552C27.715 24.3518 28.2913 24.9309 29.0321 24.9309C29.4164 24.9309 29.6908 24.7931 29.8554 24.5449V24.8758H30.4316V23.552ZM28.3188 23.552C28.3188 23.0832 28.6205 22.6971 29.1145 22.6971C29.581 22.6971 29.9103 23.0557 29.9103 23.552C29.9103 24.0209 29.581 24.4069 29.1145 24.4069C28.6205 24.3793 28.3188 24.0209 28.3188 23.552ZM9.05539 23.552V22.2283H8.47914V22.5592C8.28702 22.3111 8.01264 22.1731 7.65589 22.1731C6.91502 22.1731 6.33877 22.7523 6.33877 23.552C6.33877 24.3518 6.91502 24.9309 7.65589 24.9309C8.04014 24.9309 8.31452 24.7931 8.47914 24.5449V24.8758H9.05539V23.552ZM6.91502 23.552C6.91502 23.0832 7.21689 22.6971 7.71077 22.6971C8.17727 22.6971 8.50664 23.0557 8.50664 23.552C8.50664 24.0209 8.17727 24.4069 7.71077 24.4069C7.21689 24.3793 6.91502 24.0209 6.91502 23.552Z" fill="white"/>
<path d="M11.6622 2.12354H20.306V17.733H11.6622V2.12354Z" fill="#FF5F00"/>
<path d="M12.2111 9.92827C12.2111 6.75678 13.6929 3.94372 15.9704 2.12349C14.2966 0.799749 12.1838 0 9.87875 0C4.41788 0 0 4.44007 0 9.92827C0 15.4163 4.41788 19.8565 9.87863 19.8565C12.1836 19.8565 14.2965 19.0568 15.9704 17.7329C13.6929 15.9403 12.2111 13.0997 12.2111 9.92827Z" fill="#EB001B"/>
<path d="M31.9683 9.92827C31.9683 15.4163 27.5504 19.8565 22.0897 19.8565C19.7847 19.8565 17.6718 19.0568 15.9979 17.7329C18.3029 15.9128 19.7573 13.0997 19.7573 9.92827C19.7573 6.75678 18.2754 3.94372 15.9979 2.12349C17.6717 0.799749 19.7847 0 22.0897 0C27.5504 0 31.9683 4.46771 31.9683 9.92827Z" fill="#F79E1B"/>
</g>
<defs>
<clipPath id="clip0_1_2421">
<rect width="32" height="25" fill="white"/>
</clipPath>
</defs>
</svg>
