<svg width="22" height="22" viewBox="0 0 22 22" fill="none" xmlns="http://www.w3.org/2000/svg">
<path fill-rule="evenodd" clip-rule="evenodd" d="M0.524414 10.9997C0.524414 5.25062 5.18495 0.590088 10.934 0.590088C11.185 0.590088 11.4257 0.68979 11.6032 0.867261L21.0664 10.3305C21.2439 10.508 21.3436 10.7487 21.3436 10.9997C21.3436 16.7487 16.6831 21.4093 10.934 21.4093C5.18495 21.4093 0.524414 16.7487 0.524414 10.9997ZM9.6912 2.57277C5.57651 3.17435 2.41707 6.71805 2.41707 10.9997C2.41707 15.7035 6.23023 19.5166 10.934 19.5166C15.2463 19.5166 18.81 16.3118 19.3734 12.154C18.8572 12.2197 18.2111 12.2672 17.4943 12.2411C15.7278 12.1769 13.4318 11.6591 11.66 9.75096C9.90861 7.8648 9.51137 5.70635 9.54428 4.06074C9.55547 3.50136 9.61606 2.99627 9.6912 2.57277ZM11.4806 3.42128L18.4016 10.3424C18.1398 10.3561 17.8582 10.3604 17.5631 10.3497C16.0766 10.2957 14.3507 9.86714 13.047 8.4631C11.7228 7.03711 11.4103 5.41025 11.4366 4.09859C11.4413 3.85972 11.4574 3.63273 11.4806 3.42128Z" fill="white"/>
</svg>
