<svg width="24" height="24" viewBox="0 0 24 24" fill="none" xmlns="http://www.w3.org/2000/svg">
<path d="M4 12C4 9.87827 4.84285 7.84344 6.34315 6.34315C7.84344 4.84285 9.87827 4 12 4C14.1217 4 16.1566 4.84285 17.6569 6.34315C19.1571 7.84344 20 9.87827 20 12V17.09C20 17.938 20 18.36 19.874 18.699C19.7738 18.9676 19.617 19.2116 19.4143 19.4143C19.2116 19.617 18.9676 19.7738 18.699 19.874C18.36 20 17.937 20 17.09 20H12C9.87827 20 7.84344 19.1571 6.34315 17.6569C4.84285 16.1566 4 14.1217 4 12Z" stroke="white"/>
<path d="M9 11H15M12 15H15" stroke="white" stroke-linecap="round" stroke-linejoin="round"/>
</svg>
