<svg width="20" height="20" viewBox="0 0 20 20" fill="none" xmlns="http://www.w3.org/2000/svg">
<path d="M1.74996 5.00008C1.94207 4.05894 2.45344 3.21309 3.19754 2.60566C3.94164 1.99823 4.87275 1.66655 5.83329 1.66675H14.1666C15.1272 1.66655 16.0583 1.99823 16.8024 2.60566C17.5465 3.21309 18.0578 4.05894 18.25 5.00008H1.74996ZM1.66663 6.66675V14.1667C1.66663 15.2718 2.10561 16.3316 2.88701 17.113C3.66842 17.8944 4.72822 18.3334 5.83329 18.3334H14.1666C15.2717 18.3334 16.3315 17.8944 17.1129 17.113C17.8943 16.3316 18.3333 15.2718 18.3333 14.1667V6.66675H1.66663ZM4.99996 9.16675C4.99996 8.94573 5.08776 8.73377 5.24404 8.57749C5.40032 8.42121 5.61228 8.33341 5.83329 8.33341C6.05431 8.33341 6.26627 8.42121 6.42255 8.57749C6.57883 8.73377 6.66663 8.94573 6.66663 9.16675C6.66663 9.38776 6.57883 9.59972 6.42255 9.756C6.26627 9.91228 6.05431 10.0001 5.83329 10.0001C5.61228 10.0001 5.40032 9.91228 5.24404 9.756C5.08776 9.59972 4.99996 9.38776 4.99996 9.16675ZM4.99996 12.5001C4.99996 12.2791 5.08776 12.0671 5.24404 11.9108C5.40032 11.7545 5.61228 11.6667 5.83329 11.6667C6.05431 11.6667 6.26627 11.7545 6.42255 11.9108C6.57883 12.0671 6.66663 12.2791 6.66663 12.5001C6.66663 12.7211 6.57883 12.9331 6.42255 13.0893C6.26627 13.2456 6.05431 13.3334 5.83329 13.3334C5.61228 13.3334 5.40032 13.2456 5.24404 13.0893C5.08776 12.9331 4.99996 12.7211 4.99996 12.5001ZM9.16663 8.33341C9.38764 8.33341 9.5996 8.42121 9.75588 8.57749C9.91216 8.73377 9.99996 8.94573 9.99996 9.16675C9.99996 9.38776 9.91216 9.59972 9.75588 9.756C9.5996 9.91228 9.38764 10.0001 9.16663 10.0001C8.94561 10.0001 8.73365 9.91228 8.57737 9.756C8.42109 9.59972 8.33329 9.38776 8.33329 9.16675C8.33329 8.94573 8.42109 8.73377 8.57737 8.57749C8.73365 8.42121 8.94561 8.33341 9.16663 8.33341ZM8.33329 12.5001C8.33329 12.2791 8.42109 12.0671 8.57737 11.9108C8.73365 11.7545 8.94561 11.6667 9.16663 11.6667C9.38764 11.6667 9.5996 11.7545 9.75588 11.9108C9.91216 12.0671 9.99996 12.2791 9.99996 12.5001C9.99996 12.7211 9.91216 12.9331 9.75588 13.0893C9.5996 13.2456 9.38764 13.3334 9.16663 13.3334C8.94561 13.3334 8.73365 13.2456 8.57737 13.0893C8.42109 12.9331 8.33329 12.7211 8.33329 12.5001ZM12.5 8.33341C12.721 8.33341 12.9329 8.42121 13.0892 8.57749C13.2455 8.73377 13.3333 8.94573 13.3333 9.16675C13.3333 9.38776 13.2455 9.59972 13.0892 9.756C12.9329 9.91228 12.721 10.0001 12.5 10.0001C12.2789 10.0001 12.067 9.91228 11.9107 9.756C11.7544 9.59972 11.6666 9.38776 11.6666 9.16675C11.6666 8.94573 11.7544 8.73377 11.9107 8.57749C12.067 8.42121 12.2789 8.33341 12.5 8.33341Z" fill="white"/>
</svg>
