<svg width="16" height="16" viewBox="0 0 16 16" fill="none" xmlns="http://www.w3.org/2000/svg">
<path fill-rule="evenodd" clip-rule="evenodd" d="M1.44421 0H14.4421C14.9235 0 15.8863 0.433264 15.8863 2.16632V10.8316C15.766 11.4334 15.1642 12.6369 13.72 12.6369H6.49896L3.24948 15.8863C2.88843 16.2474 2.52737 15.7419 2.52737 15.1642V12.6369H1.80527C1.20351 12.6369 0 12.2758 0 10.8316V1.44421C0.120351 1.08316 0.361053 0.361053 1.44421 0ZM9.23768 8.75788L9.42254 8.03351H6.46431L6.64868 8.75788L6.66698 8.8179C6.783 9.15458 7.12816 9.38746 7.52195 9.38746H8.36441L8.43373 9.38521C8.82126 9.35813 9.1491 9.10584 9.23768 8.75788ZM10.8316 4.78403C10.8316 3.33847 9.53855 2.1664 7.94318 2.1664C6.38006 2.1664 5.10675 3.29198 5.0562 4.69783L5.05475 4.78403L5.05764 4.8919C5.0899 5.60723 5.44758 6.26525 6.11673 6.85738C6.15715 6.89342 6.18558 6.93966 6.19857 6.99052L6.34925 7.5822H9.53711L9.68827 6.99007L9.70079 6.95351C9.71636 6.91711 9.74017 6.88431 9.77059 6.85738C10.473 6.23547 10.8316 5.54089 10.8316 4.78403Z" fill="white"/>
</svg>
