<svg width="17" height="20" viewBox="0 0 17 20" fill="none" xmlns="http://www.w3.org/2000/svg">
<path d="M11.2255 15.5385V16.2308C11.2255 16.9652 10.9384 17.6696 10.4273 18.1889C9.91632 18.7082 9.22321 19 8.50051 19C7.7778 19 7.0847 18.7082 6.57367 18.1889C6.06264 17.6696 5.77555 16.9652 5.77555 16.2308V15.5385M15.8102 14.1292C14.7168 12.7692 13.9449 12.0769 13.9449 8.32764C13.9449 4.89423 12.2197 3.67101 10.7997 3.07692C10.6111 2.99817 10.4335 2.81731 10.376 2.62043C10.127 1.75894 9.4287 1 8.50051 1C7.57232 1 6.87362 1.75938 6.6271 2.6213C6.56962 2.82034 6.39207 2.99817 6.20345 3.07692C4.78179 3.67188 3.05825 4.89077 3.05825 8.32764C3.05612 12.0769 2.28419 12.7692 1.1908 14.1292C0.737773 14.6925 1.1346 15.5385 1.92696 15.5385H15.0783C15.8664 15.5385 16.2607 14.69 15.8102 14.1292Z" stroke="white" stroke-width="1.3" stroke-linecap="round" stroke-linejoin="round"/>
</svg>
