<svg width="20" height="22" viewBox="0 0 20 22" fill="none" xmlns="http://www.w3.org/2000/svg">
<path d="M10.0688 15.4876C10.7899 15.4876 11.3745 14.8752 11.3745 14.1198C11.3745 13.3644 10.7899 12.752 10.0688 12.752C9.34775 12.752 8.76318 13.3644 8.76318 14.1198C8.76318 14.8752 9.34775 15.4876 10.0688 15.4876Z" fill="black"/>
<path d="M15.0991 8.92556V7.87661C15.0991 5.61088 14.5785 2.60669 10.0688 2.60669C5.55903 2.60669 5.03837 5.61088 5.03837 7.87661V8.92556C2.79553 9.21926 2.05859 10.4109 2.05859 13.3395V14.9004C2.05859 18.3409 3.05986 19.3899 6.34403 19.3899H13.7935C17.0776 19.3899 18.0789 18.3409 18.0789 14.9004V13.3395C18.0789 10.4109 17.342 9.21926 15.0991 8.92556ZM10.0688 16.6542C8.73105 16.6542 7.64968 15.513 7.64968 14.12C7.64968 12.7186 8.73906 11.5857 10.0688 11.5857C11.3984 11.5857 12.4878 12.727 12.4878 14.12C12.4878 15.5214 11.4064 16.6542 10.0688 16.6542ZM6.34403 8.85003C6.27995 8.85003 6.22388 8.85003 6.15979 8.85003V7.87661C6.15979 5.41787 6.82464 3.78151 10.0688 3.78151C13.3129 3.78151 13.9777 5.41787 13.9777 7.87661V8.85843C13.9136 8.85843 13.8576 8.85843 13.7935 8.85843H6.34403V8.85003Z" fill="black"/>
</svg>
