<svg width="25" height="30" viewBox="0 0 25 30" fill="none" xmlns="http://www.w3.org/2000/svg">
<g clip-path="url(#clip0_1_2416)">
<path d="M21.2078 2.33513C19.8471 0.757445 17.3873 0.0810547 14.2405 0.0810547H5.10772C4.79638 0.0810664 4.49525 0.194055 4.25848 0.399707C4.0217 0.60536 3.86481 0.890185 3.81602 1.20298L0.0132861 25.7361C-0.0622998 26.2199 0.305962 26.658 0.787993 26.658H6.42627L7.84229 17.5218L7.79834 17.8079C7.89922 17.1621 8.44219 16.6858 9.08516 16.6858H11.7645C17.0279 16.6858 21.1493 14.5111 22.3532 8.22009C22.389 8.03403 22.4199 7.85294 22.4467 7.67602C22.2947 7.59417 22.2947 7.59417 22.4467 7.67602C22.8052 5.35082 22.4442 3.76807 21.2078 2.33513Z" fill="#27346A"/>
<path d="M9.99971 6.83841C10.1539 6.76375 10.3224 6.72505 10.4932 6.72516H17.6531C18.501 6.72516 19.2918 6.78129 20.0145 6.8996C20.2167 6.9324 20.4178 6.97155 20.6177 7.01701C20.9009 7.08059 21.1809 7.1584 21.4565 7.25016C21.8118 7.37086 22.1427 7.51142 22.4468 7.67602C22.8052 5.34993 22.4442 3.76807 21.2078 2.33513C19.8463 0.757445 17.3873 0.0810547 14.2405 0.0810547H5.10694C4.46387 0.0810547 3.9168 0.55728 3.81602 1.20298L0.0132867 25.7352C-0.0622993 26.2198 0.305962 26.6573 0.787212 26.6573H6.42627L9.36407 7.70662C9.39295 7.52035 9.4659 7.34401 9.57662 7.19277C9.68735 7.04153 9.83255 6.91992 9.99971 6.83841Z" fill="#27346A"/>
<path d="M22.3532 8.2201C21.1493 14.5102 17.028 16.6858 11.7644 16.6858H9.08432C8.44135 16.6858 7.89829 17.1621 7.79839 17.8079L6.03676 29.1676C5.97094 29.591 6.29282 29.9747 6.71391 29.9747H11.4668C11.7391 29.9746 12.0024 29.8757 12.2094 29.6958C12.4164 29.5159 12.5535 29.2668 12.596 28.9932L12.6423 28.7469L13.5381 22.9718L13.5958 22.6526C13.6384 22.3791 13.7755 22.1299 13.9824 21.95C14.1894 21.7701 14.4527 21.6712 14.7249 21.6711H15.4363C20.0405 21.6711 23.6457 19.7684 24.6992 14.2655C25.1389 11.9658 24.9114 10.0458 23.7481 8.69722C23.3953 8.28874 22.9571 7.95139 22.4466 7.67603C22.419 7.85384 22.389 8.03404 22.3532 8.2201Z" fill="#2790C3"/>
<path d="M21.1867 7.16501C20.999 7.10925 20.8095 7.05988 20.6185 7.01699C20.4186 6.97228 20.2174 6.93338 20.0153 6.90037C19.2918 6.78126 18.5016 6.72504 17.653 6.72504H10.4939C10.323 6.72465 10.1543 6.76367 10.0004 6.83918C9.83309 6.92044 9.68773 7.04198 9.57695 7.19326C9.46618 7.34454 9.39332 7.52101 9.3647 7.70739L7.84302 17.5218L7.79907 17.8079C7.89917 17.1621 8.44214 16.6857 9.0852 16.6857H11.7653C17.0288 16.6857 21.15 14.511 22.354 8.22007C22.3898 8.03401 22.4199 7.85372 22.4475 7.676C22.1426 7.51229 21.8126 7.37083 21.4573 7.25093C21.3676 7.22069 21.2774 7.19205 21.1868 7.16501" fill="#1F264F"/>
</g>
<defs>
<clipPath id="clip0_1_2416">
<rect width="25" height="30" fill="white"/>
</clipPath>
</defs>
</svg>
