<svg width="25" height="21" viewBox="0 0 25 21" fill="none" xmlns="http://www.w3.org/2000/svg">
<path fill-rule="evenodd" clip-rule="evenodd" d="M24.3004 4.9999C24.3004 2.73553 22.4648 0.899902 20.2004 0.899902H5.00039C2.73602 0.899902 0.900391 2.73553 0.900391 4.9999V16.1999C0.900391 18.4643 2.73602 20.2999 5.00039 20.2999H20.2004C22.4648 20.2999 24.3004 18.4643 24.3004 16.1999V4.9999ZM18.0038 11.974L18.0967 11.8929C18.4208 11.647 18.8772 11.6472 19.2027 11.9079L23.0994 15.0289L23.1004 16.1999C23.1004 17.8015 21.802 19.0999 20.2004 19.0999L5.57539 19.0989L9.65682 15.0181L9.74294 14.9422C10.0722 14.6874 10.541 14.6899 10.8688 14.9627L12.3605 16.2037L12.4648 16.2807C12.895 16.5606 13.4707 16.507 13.8418 16.1359L18.0038 11.974ZM20.2004 2.0999H5.00039C3.39877 2.0999 2.10039 3.39828 2.10039 4.9999V16.1999C2.10039 17.4653 2.9109 18.5415 4.0411 18.9375L8.80829 14.1696C9.5332 13.4447 10.6671 13.3544 11.4938 13.9314L11.6363 14.0402L13.0578 15.2229L12.9933 15.2874C13.0299 15.2508 13.0882 15.2482 13.128 15.2812L13.0578 15.2229L17.1552 11.1255C17.8701 10.4106 18.9848 10.3116 19.8103 10.8665L19.9529 10.9712L23.0994 13.4909L23.1004 4.9999C23.1004 3.39828 21.802 2.0999 20.2004 2.0999ZM8.10039 5.1999C9.59156 5.1999 10.8004 6.40873 10.8004 7.8999C10.8004 9.39107 9.59156 10.5999 8.10039 10.5999C6.60922 10.5999 5.40039 9.39107 5.40039 7.8999C5.40039 6.40873 6.60922 5.1999 8.10039 5.1999ZM6.60039 7.8999C6.60039 7.07148 7.27196 6.3999 8.10039 6.3999C8.92882 6.3999 9.60039 7.07148 9.60039 7.8999C9.60039 8.72833 8.92882 9.3999 8.10039 9.3999C7.27196 9.3999 6.60039 8.72833 6.60039 7.8999Z" fill="white"/>
</svg>
