<svg width="18" height="19" viewBox="0 0 18 19" fill="none" xmlns="http://www.w3.org/2000/svg">
<path fill-rule="evenodd" clip-rule="evenodd" d="M2.07266 0.0585938H1.98784L1.90776 0.0865678C1.23584 0.321298 0.80066 0.684497 0.516557 1.06731C0.242202 1.437 0.125254 1.80487 0.0594696 2.0118L0.0567233 2.02044L0.0332031 2.09439V2.17199V12.659C0.0332031 13.619 0.424717 14.2724 0.953656 14.6715C1.45855 15.0525 2.0519 15.1758 2.45753 15.1758H2.72726V17.4992C2.72726 17.8997 2.8428 18.3298 3.08531 18.6178C3.20998 18.7659 3.40865 18.9206 3.6795 18.9396C3.96173 18.9593 4.19429 18.8234 4.35873 18.6511L7.67478 15.1758H15.1581C16.0933 15.1758 16.7691 14.7603 17.2176 14.2493C17.6543 13.7519 17.8803 13.162 17.9584 12.7528L17.9673 12.7063V12.659V2.97868C17.9673 1.92246 17.686 1.18843 17.2647 0.71156C16.8483 0.240335 16.3267 0.0585938 15.9278 0.0585938H2.07266ZM1.31958 1.66326C1.47557 1.45307 1.72596 1.22533 2.16112 1.05859H15.9278C16.0421 1.05859 16.2901 1.11886 16.5152 1.37366C16.7354 1.62282 16.9673 2.09883 16.9673 2.97868V12.6082C16.9088 12.8723 16.7512 13.2648 16.4661 13.5896C16.177 13.919 15.7623 14.1758 15.1581 14.1758H7.46077H7.24676L7.09902 14.3306L3.77387 17.8154L3.77147 17.8078C3.74434 17.7192 3.72726 17.6124 3.72726 17.4992V14.6758V14.1758H3.22726H2.45753C2.22171 14.1758 1.8529 14.0973 1.55599 13.8733C1.28313 13.6674 1.0332 13.3124 1.0332 12.659V2.25041C1.09244 2.06946 1.16939 1.86564 1.31958 1.66326ZM10.3217 11.2736L10.5188 10.4644H7.36547L7.562 11.2736L7.5815 11.3407C7.70517 11.7168 8.0731 11.977 8.49286 11.977H9.39088L9.46478 11.9745C9.87786 11.9442 10.2273 11.6624 10.3217 11.2736ZM12.0208 6.83429C12.0208 5.21939 10.6425 3.91002 8.94187 3.91002C7.27566 3.91002 5.91838 5.16746 5.86449 6.73799L5.86295 6.83429L5.86603 6.95479C5.90041 7.75393 6.28169 8.48903 6.99497 9.15052C7.03806 9.19078 7.06836 9.24244 7.08221 9.29925L7.24282 9.96024H10.6409L10.8021 9.29875L10.8154 9.25791C10.832 9.21724 10.8574 9.1806 10.8898 9.15052C11.6385 8.45575 12.0208 7.67981 12.0208 6.83429Z" fill="white"/>
</svg>
