<svg width="21" height="21" viewBox="0 0 21 21" fill="none" xmlns="http://www.w3.org/2000/svg">
<path d="M10.8913 0.747803C5.31783 0.747803 0.792236 5.27473 0.792236 10.8482C0.792236 16.4216 5.31788 20.9484 10.8912 20.9484C16.4645 20.9484 20.9915 16.4216 20.9915 10.8482C20.9915 5.27473 16.4646 0.747803 10.8913 0.747803ZM15.8071 2.95399C18.4388 4.59497 20.1886 7.51469 20.1886 10.8482C20.1886 11.5848 20.103 12.3015 19.9416 12.9885L18.4699 12.2125L19.4152 14.5703C19.009 15.5005 18.4543 16.3506 17.7824 17.092L15.9279 15.7628L13.1511 17.8132L10.5018 18.1126L9.90427 16.3174L7.76787 17.4708L4.842 16.6571L5.23546 18.2295C4.01472 17.293 3.03417 16.061 2.39953 14.6389L3.49123 13.0826L4.87697 13.8184L7.42158 13.3941L7.54374 11.6363L5.93912 11.5625L6.14988 10.7957L7.47246 9.70808L6.39424 9.03669L9.2826 7.3784L7.33419 6.10407L4.47139 7.83086L2.34715 7.17429C2.94063 5.79328 3.86008 4.58672 5.00717 3.64811L4.84604 5.55485L6.70985 4.08858L9.8036 5.04335L8.8368 3.8657L10.0117 3.24669L11.1639 4.46993L14.2146 4.89296L14.0643 3.41182L15.8461 3.95568L15.8072 2.95399H15.8071ZM15.8568 8.11153L11.9453 8.57087L13.1874 10.4279L13.323 13.198L14.5772 13.7929L15.0686 12.5736L17.7609 14.6643L17.0062 12.6327L17.2815 10.5554L15.4017 9.57917L15.8568 8.11157L15.8568 8.11153ZM9.49612 8.26871L8.13856 9.17913L9.70563 9.81421L10.4226 9.17913L9.49612 8.26871ZM10.4495 14.4858L11.2525 16.7457L12.1024 14.9167L10.4495 14.4858Z" fill="black"/>
</svg>
