<svg width="19" height="20" viewBox="0 0 19 20" fill="none" xmlns="http://www.w3.org/2000/svg">
<path d="M10.45 6.75231H8.55V4.82308H10.45M10.45 14.4692H8.55V8.68154H10.45M9.5 0C8.25244 0 7.0171 0.249505 5.86451 0.73427C4.71191 1.21903 3.66464 1.92957 2.78249 2.82529C1.00089 4.6343 0 7.08784 0 9.64616C0 12.2045 1.00089 14.658 2.78249 16.467C3.66464 17.3627 4.71191 18.0733 5.86451 18.558C7.0171 19.0428 8.25244 19.2923 9.5 19.2923C12.0196 19.2923 14.4359 18.276 16.2175 16.467C17.9991 14.658 19 12.2045 19 9.64616C19 8.3794 18.7543 7.12506 18.2769 5.95473C17.7994 4.78441 17.0997 3.72102 16.2175 2.82529C15.3354 1.92957 14.2881 1.21903 13.1355 0.73427C11.9829 0.249505 10.7476 0 9.5 0Z" fill="white"/>
</svg>
