<svg width="19" height="26" viewBox="0 0 19 26" fill="none" xmlns="http://www.w3.org/2000/svg">
<path d="M2.375 25.2241C1.72187 25.2241 1.16296 24.9891 0.69825 24.5191C0.23275 24.0482 0 23.4825 0 22.8218V10.8103C0 10.1497 0.23275 9.58397 0.69825 9.11312C1.16296 8.64307 1.72187 8.40805 2.375 8.40805H3.5625V6.00575C3.5625 4.34416 4.1416 2.9276 5.29981 1.75608C6.45723 0.58536 7.85729 0 9.5 0C11.1427 0 12.5432 0.58536 13.7014 1.75608C14.8588 2.9276 15.4375 4.34416 15.4375 6.00575V8.40805H16.625C17.2781 8.40805 17.8374 8.64307 18.3029 9.11312C18.7676 9.58397 19 10.1497 19 10.8103V22.8218C19 23.4825 18.7676 24.0482 18.3029 24.5191C17.8374 24.9891 17.2781 25.2241 16.625 25.2241H2.375ZM9.5 19.2184C10.1531 19.2184 10.7124 18.9834 11.1779 18.5133C11.6426 18.0425 11.875 17.4767 11.875 16.8161C11.875 16.1555 11.6426 15.5897 11.1779 15.1189C10.7124 14.6488 10.1531 14.4138 9.5 14.4138C8.84688 14.4138 8.28796 14.6488 7.82325 15.1189C7.35775 15.5897 7.125 16.1555 7.125 16.8161C7.125 17.4767 7.35775 18.0425 7.82325 18.5133C8.28796 18.9834 8.84688 19.2184 9.5 19.2184ZM5.9375 8.40805H13.0625V6.00575C13.0625 5.00479 12.7161 4.15398 12.0234 3.4533C11.3307 2.75263 10.4896 2.4023 9.5 2.4023C8.51042 2.4023 7.66927 2.75263 6.97656 3.4533C6.28385 4.15398 5.9375 5.00479 5.9375 6.00575V8.40805Z" fill="white"/>
</svg>
