<svg width="23" height="22" viewBox="0 0 23 22" fill="none" xmlns="http://www.w3.org/2000/svg">
<path d="M3.125 11L13.8125 11M5.375 7.625L2 11L5.375 14.375M11 16.625V17.75C11 18.3467 11.2371 18.919 11.659 19.341C12.081 19.7629 12.6533 20 13.25 20H18.875C19.4717 20 20.044 19.7629 20.466 19.341C20.8879 18.919 21.125 18.3467 21.125 17.75L21.125 4.25C21.125 3.65326 20.8879 3.08097 20.466 2.65901C20.044 2.23705 19.4717 2 18.875 2H13.25C12.6533 2 12.081 2.23705 11.659 2.65901C11.2371 3.08097 11 3.65326 11 4.25V5.375" stroke="white" stroke-width="2.66666" stroke-linecap="round" stroke-linejoin="round"/>
</svg>
