<svg width="19" height="19" viewBox="0 0 19 19" fill="none" xmlns="http://www.w3.org/2000/svg">
<path d="M0.874901 7.19061L0.875039 7.19049L8.79157 0.748207C8.79161 0.74817 8.79166 0.748133 8.79171 0.748096C8.98693 0.589396 9.23781 0.5 9.5 0.5C9.76219 0.5 10.0131 0.589396 10.2083 0.748096C10.2083 0.748133 10.2084 0.74817 10.2084 0.748208L18.125 7.19049L18.1251 7.1906C18.2445 7.28773 18.3389 7.40732 18.4031 7.54016C18.4672 7.6729 18.5 7.81642 18.5 7.96095C18.5 7.96097 18.5 7.96099 18.5 7.96101V17.4813C18.5 17.7446 18.3911 18.0015 18.1901 18.1943C17.9884 18.3878 17.7106 18.5 17.4167 18.5H12.4028C12.2221 18.5 12.1111 18.3642 12.1111 18.2406V11.9127V11.4127H11.6111H7.38889H6.88889V11.9127V18.2406C6.88889 18.3025 6.86344 18.3664 6.8109 18.4167C6.75765 18.4678 6.68115 18.5 6.59722 18.5H1.58333C1.28945 18.5 1.01158 18.3878 0.809861 18.1943C0.608851 18.0015 0.5 17.7446 0.5 17.4813V7.96101C0.5 7.96099 0.5 7.96097 0.5 7.96095C0.500024 7.81642 0.532807 7.6729 0.596922 7.54016C0.661084 7.40732 0.75547 7.28772 0.874901 7.19061Z" stroke="black"/>
</svg>
