<svg width="18" height="18" viewBox="0 0 18 18" fill="none" xmlns="http://www.w3.org/2000/svg">
<path d="M16.6154 9.34615V16.2692C16.6131 16.7276 16.43 17.1665 16.1059 17.4906C15.7819 17.8146 15.3429 17.9977 14.8846 18H1.73077C1.27244 17.9977 0.833534 17.8146 0.509444 17.4906C0.185353 17.1665 0.00227462 16.7276 0 16.2692V3.11538C0.00227462 2.65706 0.185353 2.21815 0.509444 1.89406C0.833534 1.56997 1.27244 1.38689 1.73077 1.38462H8.65385C8.92926 1.38462 9.1934 1.49402 9.38815 1.68877C9.5829 1.88352 9.69231 2.14766 9.69231 2.42308C9.69231 2.69849 9.5829 2.96263 9.38815 3.15738C9.1934 3.35213 8.92926 3.46154 8.65385 3.46154H2.07692V15.9231H14.5385V9.34615C14.5385 9.07074 14.6479 8.8066 14.8426 8.61185C15.0374 8.4171 15.3015 8.30769 15.5769 8.30769C15.8523 8.30769 16.1165 8.4171 16.3112 8.61185C16.506 8.8066 16.6154 9.07074 16.6154 9.34615ZM18 3.46154C18 4.14617 17.797 4.81542 17.4166 5.38467C17.0363 5.95391 16.4956 6.39759 15.8631 6.65958C15.2306 6.92158 14.5346 6.99013 13.8631 6.85656C13.1917 6.723 12.5749 6.39332 12.0908 5.90922C11.6067 5.42511 11.277 4.80832 11.1434 4.13685C11.0099 3.46538 11.0784 2.76938 11.3404 2.13686C11.6024 1.50435 12.0461 0.963733 12.6153 0.583374C13.1846 0.203016 13.8538 0 14.5385 0C15.4565 0 16.337 0.364697 16.9861 1.01386C17.6353 1.66303 18 2.54348 18 3.46154ZM15.9231 3.46154C15.9231 3.18769 15.8419 2.91999 15.6897 2.69229C15.5376 2.46459 15.3213 2.28712 15.0683 2.18232C14.8153 2.07752 14.5369 2.0501 14.2683 2.10353C13.9997 2.15695 13.753 2.28883 13.5594 2.48247C13.3657 2.67611 13.2339 2.92282 13.1805 3.19141C13.127 3.46 13.1544 3.7384 13.2592 3.99141C13.364 4.24441 13.5415 4.46066 13.7692 4.6128C13.9969 4.76495 14.2646 4.84615 14.5385 4.84615C14.9057 4.84615 15.2579 4.70027 15.5175 4.44061C15.7772 4.18094 15.9231 3.82876 15.9231 3.46154Z" fill="white"/>
</svg>
