<svg width="18" height="19" viewBox="0 0 18 19" fill="none" xmlns="http://www.w3.org/2000/svg">
<g clip-path="url(#clip0_519_2498)">
<path fill-rule="evenodd" clip-rule="evenodd" d="M9 0.791504C4.44375 0.791504 0.75 4.69046 0.75 9.49984C0.75 14.3092 4.44375 18.2082 9 18.2082C13.5562 18.2082 17.25 14.3092 17.25 9.49984C17.25 4.69046 13.5562 0.791504 9 0.791504ZM8.169 7.07338C8.3415 6.71475 8.469 6.54455 8.57475 6.45588C8.65425 6.38938 8.76225 6.33317 9 6.33317C9.46875 6.33317 9.75 6.70525 9.75 7.10742C9.75 7.3275 9.7095 7.43675 9.5985 7.57609C9.44325 7.77084 9.156 8.00755 8.5875 8.40417L8.25 8.6385V10.2915C8.25 10.5015 8.32902 10.7028 8.46967 10.8513C8.61032 10.9998 8.80109 11.0832 9 11.0832C9.19891 11.0832 9.38968 10.9998 9.53033 10.8513C9.67098 10.7028 9.75 10.5015 9.75 10.2915V9.48638C10.1565 9.1903 10.4977 8.90688 10.7452 8.59655C11.103 8.14846 11.25 7.67029 11.25 7.10742C11.25 5.94367 10.4003 4.74984 9 4.74984C8.487 4.74984 8.03325 4.88917 7.644 5.21455C7.281 5.51775 7.0335 5.93496 6.831 6.3585C6.78394 6.4515 6.75496 6.55348 6.74575 6.65846C6.73653 6.76344 6.74728 6.8693 6.77735 6.96984C6.80743 7.07037 6.85622 7.16356 6.92087 7.24392C6.98552 7.32428 7.06473 7.3902 7.15384 7.43781C7.24296 7.48543 7.34018 7.51377 7.43982 7.52118C7.53945 7.5286 7.63948 7.51493 7.73404 7.48098C7.8286 7.44704 7.91579 7.39349 7.99048 7.3235C8.06517 7.25351 8.12586 7.16847 8.169 7.07338ZM9.75 13.0623C9.75 12.8524 9.67098 12.651 9.53033 12.5025C9.38968 12.3541 9.19891 12.2707 9 12.2707C8.80109 12.2707 8.61032 12.3541 8.46967 12.5025C8.32902 12.651 8.25 12.8524 8.25 13.0623V13.4582C8.25 13.6681 8.32902 13.8695 8.46967 14.018C8.61032 14.1664 8.80109 14.2498 9 14.2498C9.19891 14.2498 9.38968 14.1664 9.53033 14.018C9.67098 13.8695 9.75 13.6681 9.75 13.4582V13.0623Z" fill="white"/>
</g>
<defs>
<clipPath id="clip0_519_2498">
<rect width="18" height="19" fill="white"/>
</clipPath>
</defs>
</svg>
