<svg width="53" height="45" viewBox="0 0 53 45" fill="none" xmlns="http://www.w3.org/2000/svg">
<g opacity="0.2">
<g clip-path="url(#clip0_1_1052)">
<path d="M50.0052 2.3067C50.0052 3.14029 50.6743 3.81605 51.4997 3.81605C52.325 3.81605 52.9941 3.14029 52.9941 2.3067C52.9941 1.47312 52.325 0.797363 51.4997 0.797363C50.6743 0.797363 50.0052 1.47312 50.0052 2.3067Z" fill="white"/>
<path d="M40.0197 2.3067C40.0197 3.14029 40.6888 3.81605 41.5142 3.81605C42.3396 3.81605 43.0087 3.14029 43.0087 2.3067C43.0087 1.47312 42.3396 0.797363 41.5142 0.797363C40.6888 0.797363 40.0197 1.47312 40.0197 2.3067Z" fill="white"/>
<path d="M31.4601 3.81605C32.2753 3.81605 32.9546 3.12998 32.9546 2.3067C32.9546 1.48343 32.2753 0.797363 31.4601 0.797363C30.645 0.797363 29.9656 1.48343 29.9656 2.3067C29.9656 3.12998 30.645 3.81605 31.4601 3.81605Z" fill="white"/>
<path d="M21.4745 3.81605C22.2897 3.81605 22.969 3.12998 22.969 2.3067C22.969 1.48343 22.2897 0.797363 21.4745 0.797363C20.6594 0.797363 19.9801 1.48343 19.9801 2.3067C19.9801 3.12998 20.6594 3.81605 21.4745 3.81605Z" fill="white"/>
<path d="M9.99433 2.3067C9.99433 3.14029 10.6634 3.81605 11.4888 3.81605C12.3142 3.81605 12.9833 3.14029 12.9833 2.3067C12.9833 1.47312 12.3142 0.797363 11.4888 0.797363C10.6634 0.797363 9.99433 1.47312 9.99433 2.3067Z" fill="white"/>
<path d="M0.00873511 2.3067C0.00873508 3.14029 0.677831 3.81605 1.50321 3.81605C2.32858 3.81605 2.99768 3.14029 2.99768 2.3067C2.99768 1.47312 2.32858 0.797363 1.50321 0.797363C0.677831 0.797363 0.00873515 1.47312 0.00873511 2.3067Z" fill="white"/>
<path d="M50.0054 10.4708C50.0054 11.3044 50.6745 11.9801 51.4999 11.9801C52.3253 11.9801 52.9944 11.3044 52.9944 10.4708C52.9944 9.63718 52.3253 8.96143 51.4999 8.96143C50.6745 8.96143 50.0054 9.63718 50.0054 10.4708Z" fill="white"/>
<path d="M40.0197 10.4708C40.0197 11.3044 40.6888 11.9801 41.5142 11.9801C42.3396 11.9801 43.0087 11.3044 43.0087 10.4708C43.0087 9.63718 42.3396 8.96143 41.5142 8.96143C40.6888 8.96143 40.0197 9.63718 40.0197 10.4708Z" fill="white"/>
<path d="M31.4601 11.9801C32.2753 11.9801 32.9546 11.294 32.9546 10.4708C32.9546 9.64749 32.2753 8.96143 31.4601 8.96143C30.645 8.96143 29.9656 9.64749 29.9656 10.4708C29.9656 11.294 30.645 11.9801 31.4601 11.9801Z" fill="white"/>
<path d="M21.4745 11.9801C22.2897 11.9801 22.969 11.294 22.969 10.4708C22.969 9.64749 22.2897 8.96143 21.4745 8.96143C20.6594 8.96143 19.9801 9.64749 19.9801 10.4708C19.9801 11.294 20.6594 11.9801 21.4745 11.9801Z" fill="white"/>
<path d="M9.99433 10.4708C9.99433 11.3044 10.6634 11.9801 11.4888 11.9801C12.3142 11.9801 12.9833 11.3044 12.9833 10.4708C12.9833 9.63718 12.3142 8.96143 11.4888 8.96143C10.6634 8.96143 9.99433 9.63718 9.99433 10.4708Z" fill="white"/>
<path d="M0.00873511 10.4708C0.00873508 11.3044 0.677831 11.9801 1.50321 11.9801C2.32858 11.9801 2.99768 11.3044 2.99768 10.4708C2.99768 9.63718 2.32858 8.96143 1.50321 8.96143C0.677831 8.96143 0.00873515 9.63718 0.00873511 10.4708Z" fill="white"/>
<path d="M51.4999 20.1444C52.3151 20.1444 52.9944 19.4584 52.9944 18.6351C52.9944 17.8118 52.3151 17.1257 51.4999 17.1257C50.6847 17.1257 50.0054 17.8118 50.0054 18.6351C50.0054 19.4584 50.6847 20.1444 51.4999 20.1444Z" fill="white"/>
<path d="M41.5142 20.1444C42.3294 20.1444 43.0087 19.4584 43.0087 18.6351C43.0087 17.8118 42.3294 17.1257 41.5142 17.1257C40.699 17.1257 40.0197 17.8118 40.0197 18.6351C40.0197 19.4584 40.699 20.1444 41.5142 20.1444Z" fill="white"/>
<path d="M31.4601 20.1444C32.2753 20.1444 32.9546 19.4584 32.9546 18.6351C32.9546 17.8118 32.2753 17.1257 31.4601 17.1257C30.645 17.1257 29.9656 17.8118 29.9656 18.6351C29.9656 19.4584 30.645 20.1444 31.4601 20.1444Z" fill="white"/>
<path d="M21.4745 20.1444C22.2897 20.1444 22.969 19.4584 22.969 18.6351C22.969 17.8118 22.2897 17.1257 21.4745 17.1257C20.6594 17.1257 19.9801 17.8118 19.9801 18.6351C19.9801 19.4584 20.6594 20.1444 21.4745 20.1444Z" fill="white"/>
<path d="M11.4888 20.1444C12.304 20.1444 12.9833 19.4584 12.9833 18.6351C12.9833 17.8118 12.304 17.1257 11.4888 17.1257C10.6736 17.1257 9.99433 17.8118 9.99433 18.6351C9.99433 19.4584 10.6736 20.1444 11.4888 20.1444Z" fill="white"/>
<path d="M1.50321 20.1444C2.31837 20.1444 2.99768 19.4584 2.99768 18.6351C2.99768 17.8118 2.31837 17.1257 1.50321 17.1257C0.688039 17.1257 0.00873515 17.8118 0.00873511 18.6351C0.00873508 19.4584 0.620108 20.1444 1.50321 20.1444Z" fill="white"/>
<path d="M50.0054 26.7308C50.0054 27.5644 50.6745 28.2401 51.4999 28.2401C52.3253 28.2401 52.9944 27.5644 52.9944 26.7308C52.9944 25.8972 52.3253 25.2214 51.4999 25.2214C50.6745 25.2214 50.0054 25.8972 50.0054 26.7308Z" fill="white"/>
<path d="M40.0197 26.7308C40.0197 27.5644 40.6888 28.2401 41.5142 28.2401C42.3396 28.2401 43.0087 27.5644 43.0087 26.7308C43.0087 25.8972 42.3396 25.2214 41.5142 25.2214C40.6888 25.2214 40.0197 25.8972 40.0197 26.7308Z" fill="white"/>
<path d="M31.4601 28.2401C32.2753 28.2401 32.9546 27.5541 32.9546 26.7308C32.9546 25.9075 32.2753 25.2214 31.4601 25.2214C30.645 25.2214 29.9656 25.9075 29.9656 26.7308C29.9656 27.6227 30.645 28.2401 31.4601 28.2401Z" fill="white"/>
<path d="M21.4745 28.2401C22.2897 28.2401 22.969 27.5541 22.969 26.7308C22.969 25.9075 22.2897 25.2214 21.4745 25.2214C20.6594 25.2214 19.9801 25.9075 19.9801 26.7308C19.9801 27.6227 20.6594 28.2401 21.4745 28.2401Z" fill="white"/>
<path d="M9.99433 26.7308C9.99433 27.5644 10.6634 28.2401 11.4888 28.2401C12.3142 28.2401 12.9833 27.5644 12.9833 26.7308C12.9833 25.8972 12.3142 25.2214 11.4888 25.2214C10.6634 25.2214 9.99433 25.8972 9.99433 26.7308Z" fill="white"/>
<path d="M0.00873511 26.7308C0.00873508 27.5644 0.677831 28.2401 1.50321 28.2401C2.32858 28.2401 2.99768 27.5644 2.99768 26.7308C2.99768 25.8972 2.32858 25.2214 1.50321 25.2214C0.677831 25.2214 0.00873515 25.8972 0.00873511 26.7308Z" fill="white"/>
<path d="M50.0054 34.8948C50.0054 35.7284 50.6745 36.4042 51.4999 36.4042C52.3253 36.4042 52.9944 35.7284 52.9944 34.8948C52.9944 34.0613 52.3253 33.3855 51.4999 33.3855C50.6745 33.3855 50.0054 34.0613 50.0054 34.8948Z" fill="white"/>
<path d="M40.0197 34.8948C40.0197 35.7284 40.6888 36.4042 41.5142 36.4042C42.3396 36.4042 43.0087 35.7284 43.0087 34.8948C43.0087 34.0613 42.3396 33.3855 41.5142 33.3855C40.6888 33.3855 40.0197 34.0613 40.0197 34.8948Z" fill="white"/>
<path d="M31.4601 36.4042C32.2753 36.4042 32.9546 35.7181 32.9546 34.8948C32.9546 34.0716 32.2753 33.3855 31.4601 33.3855C30.645 33.3855 29.9656 34.0716 29.9656 34.8948C29.9656 35.7181 30.645 36.4042 31.4601 36.4042Z" fill="white"/>
<path d="M21.4745 36.4042C22.2897 36.4042 22.969 35.7181 22.969 34.8948C22.969 34.0716 22.2897 33.3855 21.4745 33.3855C20.6594 33.3855 19.9801 34.0716 19.9801 34.8948C19.9801 35.7181 20.6594 36.4042 21.4745 36.4042Z" fill="white"/>
<path d="M9.99433 34.8948C9.99433 35.7284 10.6634 36.4042 11.4888 36.4042C12.3142 36.4042 12.9833 35.7284 12.9833 34.8948C12.9833 34.0613 12.3142 33.3855 11.4888 33.3855C10.6634 33.3855 9.99433 34.0613 9.99433 34.8948Z" fill="white"/>
<path d="M0.00873511 34.8948C0.00873508 35.7284 0.677831 36.4042 1.50321 36.4042C2.32858 36.4042 2.99768 35.7284 2.99768 34.8948C2.99768 34.0613 2.32858 33.3855 1.50321 33.3855C0.677831 33.3855 0.00873515 34.0613 0.00873511 34.8948Z" fill="white"/>
<path d="M51.4999 44.5682C52.3151 44.5682 52.9944 43.8822 52.9944 43.0589C52.9944 42.2356 52.3151 41.5496 51.4999 41.5496C50.6847 41.5496 50.0054 42.2356 50.0054 43.0589C50.0054 43.8822 50.6847 44.5682 51.4999 44.5682Z" fill="white"/>
<path d="M41.5142 44.5682C42.3294 44.5682 43.0087 43.8822 43.0087 43.0589C43.0087 42.2356 42.3294 41.5496 41.5142 41.5496C40.699 41.5496 40.0197 42.2356 40.0197 43.0589C40.0197 43.8822 40.699 44.5682 41.5142 44.5682Z" fill="white"/>
<path d="M31.4601 44.5682C32.2753 44.5682 32.9546 43.8822 32.9546 43.0589C32.9546 42.2356 32.2753 41.5496 31.4601 41.5496C30.645 41.5496 29.9656 42.2356 29.9656 43.0589C29.9656 43.8822 30.645 44.5682 31.4601 44.5682Z" fill="white"/>
<path d="M21.4745 44.5682C22.2897 44.5682 22.969 43.8822 22.969 43.0589C22.969 42.2356 22.2897 41.5496 21.4745 41.5496C20.6594 41.5496 19.9801 42.2356 19.9801 43.0589C19.9801 43.8822 20.6594 44.5682 21.4745 44.5682Z" fill="white"/>
<path d="M11.4888 44.5682C12.304 44.5682 12.9833 43.8822 12.9833 43.0589C12.9833 42.2356 12.304 41.5496 11.4888 41.5496C10.6736 41.5496 9.99433 42.2356 9.99433 43.0589C9.99433 43.8822 10.6736 44.5682 11.4888 44.5682Z" fill="white"/>
<path d="M1.50321 44.5682C2.31837 44.5682 2.99768 43.8822 2.99768 43.0589C2.99768 42.2356 2.31837 41.5496 1.50321 41.5496C0.688039 41.5496 0.00873515 42.2356 0.00873511 43.0589C0.00873508 43.8822 0.620108 44.5682 1.50321 44.5682Z" fill="white"/>
</g>
</g>
<defs>
<clipPath id="clip0_1_1052">
<rect width="43.7709" height="52.9858" fill="white" transform="translate(52.9941 0.797363) rotate(90)"/>
</clipPath>
</defs>
</svg>
