<svg width="21" height="21" viewBox="0 0 21 21" fill="none" xmlns="http://www.w3.org/2000/svg">
<path d="M6.75 3.0015V0.75C6.75 0.551087 6.82902 0.360322 6.96967 0.21967C7.11032 0.0790177 7.30109 0 7.5 0H13.5C13.6989 0 13.8897 0.0790177 14.0303 0.21967C14.171 0.360322 14.25 0.551087 14.25 0.75V3.0015H20.25C20.4489 3.0015 20.6397 3.08052 20.7803 3.22117C20.921 3.36182 21 3.55259 21 3.7515C21 3.95041 20.921 4.14118 20.7803 4.28183C20.6397 4.42248 20.4489 4.5015 20.25 4.5015H0.75C0.551088 4.5015 0.360322 4.42248 0.21967 4.28183C0.0790176 4.14118 0 3.95041 0 3.7515C0 3.55259 0.0790176 3.36182 0.21967 3.22117C0.360322 3.08052 0.551088 3.0015 0.75 3.0015H6.75ZM8.25 3.0015H12.75V1.5015H8.25V3.0015ZM3 21.0015C2.80109 21.0015 2.61032 20.9225 2.46967 20.7818C2.32902 20.6412 2.25 20.4504 2.25 20.2515V4.5015H18.75V20.2515C18.75 20.4504 18.671 20.6412 18.5303 20.7818C18.3897 20.9225 18.1989 21.0015 18 21.0015H3ZM8.25 16.5015C8.44891 16.5015 8.63968 16.4225 8.78033 16.2818C8.92098 16.1412 9 15.9504 9 15.7515V8.2515C9 8.05259 8.92098 7.86182 8.78033 7.72117C8.63968 7.58052 8.44891 7.5015 8.25 7.5015C8.05109 7.5015 7.86032 7.58052 7.71967 7.72117C7.57902 7.86182 7.5 8.05259 7.5 8.2515V15.7515C7.5 15.9504 7.57902 16.1412 7.71967 16.2818C7.86032 16.4225 8.05109 16.5015 8.25 16.5015ZM12.75 16.5015C12.9489 16.5015 13.1397 16.4225 13.2803 16.2818C13.421 16.1412 13.5 15.9504 13.5 15.7515V8.2515C13.5 8.05259 13.421 7.86182 13.2803 7.72117C13.1397 7.58052 12.9489 7.5015 12.75 7.5015C12.5511 7.5015 12.3603 7.58052 12.2197 7.72117C12.079 7.86182 12 8.05259 12 8.2515V15.7515C12 15.9504 12.079 16.1412 12.2197 16.2818C12.3603 16.4225 12.5511 16.5015 12.75 16.5015Z" fill="#FF5A5A"/>
</svg>
