<svg width="24" height="24" viewBox="0 0 24 24" fill="none" xmlns="http://www.w3.org/2000/svg">
<path d="M5.00001 13.0001L16.17 13.0001L11.29 17.8801C10.9 18.2701 10.9 18.9101 11.29 19.3001C11.3825 19.3928 11.4924 19.4663 11.6134 19.5165C11.7344 19.5667 11.864 19.5925 11.995 19.5925C12.126 19.5925 12.2557 19.5667 12.3766 19.5165C12.4976 19.4663 12.6075 19.3928 12.7 19.3001L19.29 12.7101C19.3827 12.6176 19.4563 12.5077 19.5064 12.3867C19.5566 12.2657 19.5825 12.1361 19.5825 12.0051C19.5825 11.8741 19.5566 11.7444 19.5064 11.6235C19.4563 11.5025 19.3827 11.3926 19.29 11.3001L12.7 4.71009C12.6074 4.6175 12.4975 4.54407 12.3766 4.49396C12.2556 4.44385 12.1259 4.41807 11.995 4.41807C11.8641 4.41807 11.7344 4.44386 11.6135 4.49396C11.4925 4.54407 11.3826 4.6175 11.29 4.71009C11.1974 4.80267 11.124 4.91258 11.0739 5.03354C11.0238 5.15451 10.998 5.28416 10.998 5.41509C10.998 5.54602 11.0238 5.67567 11.0739 5.79663C11.124 5.91759 11.1974 6.02751 11.29 6.12009L16.17 11.0001L5.00001 11.0001C4.45001 11.0001 4.00001 11.4501 4.00001 12.0001C4.00001 12.5501 4.45001 13.0001 5.00001 13.0001Z" fill="white"/>
</svg>
