<svg width="143" height="130" viewBox="0 0 143 130" fill="none" xmlns="http://www.w3.org/2000/svg">
<g opacity="0.2" clip-path="url(#clip0_1_509)">
<path d="M273.374 129.518C281.298 115.287 274.74 96.0288 263.53 86.8818C253.802 78.8575 240.394 75.6493 222.68 77.0121C217.631 77.4169 212.563 78.1295 207.592 78.7452C198.657 79.9367 189.444 81.2137 180.345 80.6441C180.163 80.6327 179.981 80.6213 179.89 80.6157C163.787 79.6075 150.713 72.5066 143.94 61.0625C140.303 54.9644 138.478 47.6408 136.646 40.4198C134.222 30.9989 131.732 21.1619 125.203 14.5737C113.62 2.62259 95.3758 6.62992 83.333 13.7033C77.2661 17.2371 71.4989 21.8196 65.9329 26.1057C59.4967 31.1612 52.9631 36.3137 45.7851 40.0869C33.0402 46.7043 15.0599 47.9475 5.72523 35.1072L5.04339 35.7854C14.7164 49.0589 33.1515 47.8442 46.1823 41.0387C53.4512 37.2712 60.0822 32.0218 66.5184 26.9663C71.9998 22.5719 77.7606 18.092 83.8275 14.5581C95.5846 7.67289 113.368 3.73967 124.606 15.3602C130.868 21.8287 133.215 31.0388 135.711 40.7732C137.542 47.9942 139.452 55.4261 143.173 61.6325C150.109 73.3957 163.625 80.7302 180.281 81.67C189.386 82.137 198.684 80.9683 207.625 79.6742C212.596 79.0585 217.664 78.3459 222.713 77.9411C240.245 76.5669 253.38 79.758 263.03 87.5714C273.791 96.5874 280.206 115.218 272.587 128.954L273.374 129.518Z" fill="white"/>
</g>
<defs>
<clipPath id="clip0_1_509">
<rect width="276.215" height="111.835" fill="white" transform="matrix(-0.998046 -0.0624827 -0.0624827 0.998046 283 18.0676)"/>
</clipPath>
</defs>
</svg>
