<svg width="147" height="100" viewBox="0 0 147 100" fill="none" xmlns="http://www.w3.org/2000/svg">
<g opacity="0.3" clip-path="url(#clip0_1_353)">
<path d="M7.25119 99.4153C7.25119 97.2081 4.64187 93.5964 3.93937 91.4895C1.9322 85.5702 0.92862 79.1493 1.43041 72.9291C2.23328 61.4919 7.85335 51.3589 15.6813 43.3328C19.5953 39.3197 24.011 35.8083 28.6275 32.6981C30.6346 31.2936 32.7422 29.588 35.0504 28.8857C47.3945 24.8727 66.7636 28.5848 74.4912 39.721C80.9141 49.1517 80.8137 60.6893 71.7815 68.2137C63.5521 75.036 51.5091 72.5278 44.0826 65.9062C38.3622 60.6893 33.8461 53.9674 32.3407 46.2422C30.4339 36.2096 33.7458 25.6753 39.4662 17.4485C45.3873 8.92075 54.7206 5.00802 64.5557 3.00148C78.6059 -0.00831237 93.2581 1.49659 107.308 1.49659C117.746 1.49659 128.183 1.49659 138.62 1.49659C141.229 1.49659 143.839 1.49659 146.548 1.49659" stroke="white" stroke-width="0.837472" stroke-miterlimit="10"/>
</g>
<defs>
<clipPath id="clip0_1_353">
<rect width="145.72" height="98.8217" fill="white" transform="matrix(-1 0 0 1 146.548 0.59375)"/>
</clipPath>
</defs>
</svg>
