<svg width="159" height="169" viewBox="0 0 159 169" fill="none" xmlns="http://www.w3.org/2000/svg">
<g opacity="0.5" clip-path="url(#clip0_1_363)">
<g opacity="0.2">
<path d="M128.368 255.271C58.0243 255.271 0.736328 197.983 0.736328 127.64C0.736328 57.2958 58.0243 0.0078125 128.368 0.0078125C198.712 0.0078125 256 57.2958 256 127.64C256 197.983 198.712 255.271 128.368 255.271ZM128.368 0.908213C58.4745 0.908213 1.63673 57.746 1.63673 127.64C1.63673 197.533 58.4745 254.484 128.481 254.484C198.374 254.484 255.325 197.646 255.325 127.64C255.212 57.746 198.262 0.908213 128.368 0.908213Z" fill="white"/>
<path d="M128.368 234.112C69.7298 234.112 21.896 186.391 21.896 127.64C21.896 69.001 69.6172 21.1672 128.368 21.1672C187.12 21.1672 234.841 69.001 234.841 127.64C234.841 186.391 187.12 234.112 128.368 234.112ZM128.368 22.0676C70.18 22.0676 22.7964 69.4512 22.7964 127.64C22.7964 185.828 70.18 233.212 128.368 233.212C186.557 233.212 233.94 185.828 233.94 127.64C233.94 69.4512 186.557 22.0676 128.368 22.0676Z" fill="white"/>
<path d="M128.368 212.84C81.3219 212.84 43.1675 174.573 43.1675 127.639C43.1675 80.5934 81.4345 42.439 128.368 42.439C175.414 42.439 213.568 80.706 213.568 127.639C213.568 174.685 175.414 212.84 128.368 212.84ZM128.368 43.2268C81.8847 43.2268 43.9553 81.0436 43.9553 127.639C43.9553 174.235 81.7721 212.052 128.368 212.052C174.851 212.052 212.78 174.235 212.78 127.639C212.78 81.0436 174.964 43.2268 128.368 43.2268Z" fill="white"/>
<path d="M128.368 191.681C93.0274 191.681 64.3271 162.98 64.3271 127.64C64.3271 92.2989 93.0274 63.5986 128.368 63.5986C163.709 63.5986 192.409 92.2989 192.409 127.64C192.409 162.98 163.709 191.681 128.368 191.681ZM128.368 64.499C93.4776 64.499 65.2275 92.8617 65.2275 127.64C65.2275 162.418 93.5902 190.78 128.368 190.78C163.146 190.78 191.509 162.418 191.509 127.64C191.509 92.8617 163.259 64.499 128.368 64.499Z" fill="white"/>
<path d="M128.368 170.521C104.732 170.521 85.4863 151.275 85.4863 127.639C85.4863 104.004 104.732 84.7578 128.368 84.7578C152.003 84.7578 171.249 104.004 171.249 127.639C171.249 151.275 152.003 170.521 128.368 170.521ZM128.368 85.6582C105.183 85.6582 86.3867 104.454 86.3867 127.639C86.3867 150.825 105.183 169.621 128.368 169.621C151.553 169.621 170.349 150.825 170.349 127.639C170.349 104.454 151.553 85.6582 128.368 85.6582Z" fill="white"/>
<path d="M128.368 149.249C116.438 149.249 106.759 139.57 106.759 127.639C106.759 115.709 116.438 106.03 128.368 106.03C140.299 106.03 149.978 115.709 149.978 127.639C149.978 139.57 140.299 149.249 128.368 149.249ZM128.368 106.818C116.888 106.818 107.547 116.159 107.547 127.639C107.547 139.12 116.888 148.461 128.368 148.461C139.849 148.461 149.19 139.12 149.19 127.639C149.19 116.159 139.849 106.818 128.368 106.818Z" fill="white"/>
</g>
</g>
<defs>
<clipPath id="clip0_1_363">
<rect width="255.264" height="255.264" fill="white" transform="translate(0.736328 0.0078125)"/>
</clipPath>
</defs>
</svg>
