<svg width="197" height="177" viewBox="0 0 197 177" fill="none" xmlns="http://www.w3.org/2000/svg">
<g clip-path="url(#clip0_1_339)">
<g opacity="0.2">
<path d="M78.5022 177.004C13.1902 177.004 -40 123.814 -40 58.5022C-40 -6.80984 13.1902 -60 78.5022 -60C143.814 -60 197.004 -6.80984 197.004 58.5022C197.004 123.814 143.814 177.004 78.5022 177.004ZM78.5022 -59.164C13.6082 -59.164 -39.164 -6.39184 -39.164 58.5022C-39.164 123.396 13.6082 176.273 78.6067 176.273C143.501 176.273 196.377 123.501 196.377 58.5022C196.273 -6.39184 143.396 -59.164 78.5022 -59.164Z" fill="white"/>
<path d="M78.5024 157.359C24.0582 157.359 -20.354 113.051 -20.354 58.5021C-20.354 4.05798 23.9537 -40.3542 78.5024 -40.3542C133.051 -40.3542 177.359 4.05798 177.359 58.5021C177.359 113.051 133.051 157.359 78.5024 157.359ZM78.5024 -39.5183C24.4762 -39.5183 -19.518 4.47598 -19.518 58.5021C-19.518 112.528 24.4762 156.523 78.5024 156.523C132.529 156.523 176.523 112.528 176.523 58.5021C176.523 4.47598 132.529 -39.5183 78.5024 -39.5183Z" fill="white"/>
<path d="M78.5025 137.608C34.8218 137.608 -0.603516 102.078 -0.603516 58.5022C-0.603516 14.8215 34.9263 -20.6038 78.5025 -20.6038C122.183 -20.6038 157.608 14.926 157.608 58.5022C157.608 102.183 122.183 137.608 78.5025 137.608ZM78.5025 -19.8723C35.3442 -19.8723 0.12798 15.2395 0.12798 58.5022C0.12798 101.765 35.2397 136.877 78.5025 136.877C121.661 136.877 156.877 101.765 156.877 58.5022C156.877 15.2395 121.765 -19.8723 78.5025 -19.8723Z" fill="white"/>
<path d="M78.5021 117.962C45.6893 117.962 19.042 91.3151 19.042 58.5023C19.042 25.6896 45.6893 -0.957764 78.5021 -0.957764C111.315 -0.957764 137.962 25.6896 137.962 58.5023C137.962 91.3151 111.315 117.962 78.5021 117.962ZM78.5021 -0.12177C46.1073 -0.12177 19.878 26.2121 19.878 58.5023C19.878 90.7926 46.2118 117.126 78.5021 117.126C110.792 117.126 137.126 90.7926 137.126 58.5023C137.126 26.2121 110.897 -0.12177 78.5021 -0.12177Z" fill="white"/>
<path d="M78.5022 98.3165C56.5574 98.3165 38.688 80.4471 38.688 58.5022C38.688 36.5574 56.5574 18.688 78.5022 18.688C100.447 18.688 118.316 36.5574 118.316 58.5022C118.316 80.4471 100.447 98.3165 78.5022 98.3165ZM78.5022 19.524C56.9754 19.524 39.524 36.9754 39.524 58.5022C39.524 80.0291 56.9754 97.4805 78.5022 97.4805C100.029 97.4805 117.48 80.0291 117.48 58.5022C117.48 36.9754 100.029 19.524 78.5022 19.524Z" fill="white"/>
<path d="M78.5024 78.5662C67.4254 78.5662 58.4385 69.5793 58.4385 58.5024C58.4385 47.4254 67.4254 38.4385 78.5024 38.4385C89.5793 38.4385 98.5662 47.4254 98.5662 58.5024C98.5662 69.5793 89.5793 78.5662 78.5024 78.5662ZM78.5024 39.17C67.8434 39.17 59.17 47.8434 59.17 58.5024C59.17 69.1613 67.8434 77.8347 78.5024 77.8347C89.1613 77.8347 97.8347 69.1613 97.8347 58.5024C97.8347 47.8434 89.1613 39.17 78.5024 39.17Z" fill="white"/>
</g>
</g>
<defs>
<clipPath id="clip0_1_339">
<rect width="237.004" height="237.004" fill="white" transform="translate(-40 -60)"/>
</clipPath>
</defs>
</svg>
