<svg width="21" height="21" viewBox="0 0 21 21" fill="none" xmlns="http://www.w3.org/2000/svg">
<path d="M10.5 1.75C9.35096 1.75 8.21315 1.97633 7.15155 2.41605C6.08995 2.85578 5.12536 3.5003 4.31285 4.31282C2.6719 5.95376 1.75003 8.17936 1.75003 10.5C1.75003 12.8206 2.6719 15.0462 4.31285 16.6872C5.12536 17.4997 6.08995 18.1442 7.15155 18.5839C8.21315 19.0237 9.35096 19.25 10.5 19.25C12.8207 19.25 15.0463 18.3281 16.6872 16.6872C18.3282 15.0462 19.25 12.8206 19.25 10.5C19.25 9.35093 19.0237 8.21312 18.584 7.15152C18.1442 6.08992 17.4997 5.12533 16.6872 4.31282C15.8747 3.5003 14.9101 2.85578 13.8485 2.41605C12.7869 1.97633 11.6491 1.75 10.5 1.75ZM14.175 14.175L9.62503 11.375V6.125H10.9375V10.675L14.875 13.0375L14.175 14.175Z" fill="black"/>
</svg>
