<svg width="20" height="20" viewBox="0 0 20 20" fill="none" xmlns="http://www.w3.org/2000/svg">
<path d="M12.7084 5.41699C13.2057 5.41699 13.6826 5.21945 14.0342 4.86782C14.3859 4.51619 14.5834 4.03927 14.5834 3.54199C14.5834 3.04471 14.3859 2.5678 14.0342 2.21617C13.6826 1.86454 13.2057 1.66699 12.7084 1.66699C12.2111 1.66699 11.7342 1.86454 11.3826 2.21617C11.0309 2.5678 10.8334 3.04471 10.8334 3.54199C10.8334 4.03927 11.0309 4.51619 11.3826 4.86782C11.7342 5.21945 12.2111 5.41699 12.7084 5.41699ZM8.94174 7.20116C8.42215 7.33032 8.06757 7.52449 7.78132 7.76532C7.35215 8.12699 7.00549 8.64866 6.53715 9.46866C6.42747 9.66055 6.24606 9.80102 6.03281 9.85916C5.81957 9.91729 5.59196 9.88834 5.40007 9.77866C5.20817 9.66898 5.06771 9.48756 5.00957 9.27432C4.95144 9.06108 4.98039 8.83347 5.09007 8.64157C5.55632 7.82616 6.02757 7.06324 6.70799 6.49074C7.41799 5.89241 8.28715 5.55408 9.45924 5.42366C9.94924 5.36949 10.4884 5.38033 10.9938 5.60574C11.5242 5.84282 11.9117 6.26741 12.1759 6.83491C12.5317 7.59866 12.7963 8.05324 13.008 8.31699C13.1101 8.44324 13.1813 8.50199 13.2217 8.52824C13.2538 8.54907 13.2676 8.55074 13.2726 8.55158C13.3088 8.55574 13.4267 8.55157 13.7717 8.39866C13.9222 8.33199 14.0863 8.25199 14.2872 8.15408L14.3351 8.13074C14.5807 8.00956 14.8285 7.89287 15.0784 7.78074C15.2802 7.69217 15.5088 7.68711 15.7143 7.76666C15.9197 7.84621 16.0853 8.0039 16.1749 8.20524C16.2644 8.40657 16.2705 8.63517 16.1919 8.84101C16.1133 9.04686 15.9564 9.2132 15.7555 9.30366C15.5239 9.40756 15.2943 9.51578 15.0667 9.62824L15.0122 9.65491C14.8201 9.74866 14.6267 9.84324 14.4455 9.92324C14.0705 10.0891 13.5913 10.2691 13.0717 10.2062C12.5234 10.1395 12.1009 9.82991 11.753 9.41449L10.6142 11.6116L12.1892 13.6607C12.283 13.7832 12.3409 13.9291 12.3572 14.0824L12.7038 17.4141C12.717 17.5238 12.7083 17.6351 12.678 17.7415C12.6478 17.8478 12.5967 17.9471 12.5277 18.0335C12.4588 18.1199 12.3733 18.1917 12.2763 18.2448C12.1793 18.2978 12.0727 18.331 11.9627 18.3425C11.8527 18.3539 11.7416 18.3434 11.6358 18.3114C11.5299 18.2795 11.4315 18.2268 11.3462 18.1565C11.2609 18.0861 11.1905 17.9995 11.139 17.9017C11.0875 17.8038 11.056 17.6967 11.0463 17.5866L10.7238 14.4895L9.76715 13.2445L9.75882 13.2599L9.72382 13.1882L7.95632 10.8882C7.86943 10.7752 7.813 10.6417 7.79243 10.5007C7.77186 10.3596 7.78783 10.2156 7.83882 10.0824L8.94174 7.20116Z" fill="white"/>
<path d="M7.68001 12.0869L7.06668 13.7369L4.65001 13.5452C4.54014 13.535 4.42933 13.5468 4.32402 13.5797C4.21871 13.6127 4.121 13.6662 4.03655 13.7373C3.95211 13.8083 3.88261 13.8954 3.83209 13.9935C3.78157 14.0916 3.75104 14.1988 3.74226 14.3088C3.73349 14.4188 3.74665 14.5294 3.78098 14.6343C3.81531 14.7391 3.87012 14.8361 3.94225 14.9197C4.01437 15.0032 4.10236 15.0715 4.20111 15.1208C4.29986 15.17 4.40741 15.1992 4.51751 15.2065L7.56251 15.4482C7.74323 15.4625 7.9237 15.4176 8.07657 15.3202C8.22943 15.2227 8.34635 15.0781 8.4096 14.9082L8.87835 13.6465L7.68001 12.0869Z" fill="white"/>
</svg>
