<svg width="24" height="24" viewBox="0 0 24 24" fill="none" xmlns="http://www.w3.org/2000/svg">
<path d="M16.596 8.38796C15.764 5.72796 14.102 4.16596 12.103 3.55196C10.016 2.91096 7.683 3.33696 5.749 4.38396C3.815 5.43096 2.173 7.15396 1.533 9.24296C0.882005 11.373 1.305 13.776 3.306 16.039C3.88241 16.7312 4.60405 17.2881 5.41975 17.6702C6.23546 18.0523 7.12524 18.2502 8.026 18.25H11.216V20C11.216 20.1989 11.295 20.3896 11.4357 20.5303C11.5763 20.6709 11.7671 20.75 11.966 20.75C12.1649 20.75 12.3557 20.6709 12.4963 20.5303C12.637 20.3896 12.716 20.1989 12.716 20V18.25H16.872C18.09 18.25 19.65 18.023 20.766 17.066C21.802 16.178 22.366 15.156 22.479 14.092C22.591 13.035 22.249 12.032 21.659 11.192C20.594 9.67196 18.647 8.56496 16.596 8.38796ZM12.716 18.25H11.216L11.212 12.947L9.31001 14.849C9.24079 14.9206 9.158 14.9777 9.06648 15.0169C8.97496 15.0562 8.87653 15.0768 8.77695 15.0776C8.67736 15.0785 8.57861 15.0594 8.48646 15.0217C8.39431 14.9839 8.31059 14.9282 8.24021 14.8577C8.16982 14.7873 8.11417 14.7035 8.0765 14.6113C8.03884 14.5192 8.01991 14.4204 8.02082 14.3208C8.02173 14.2212 8.04247 14.1228 8.08182 14.0313C8.12116 13.9398 8.17834 13.8571 8.25 13.788L11.432 10.606C11.5726 10.4655 11.7633 10.3866 11.962 10.3866C12.1608 10.3866 12.3514 10.4655 12.492 10.606L15.674 13.788C15.8065 13.9301 15.8786 14.1182 15.8752 14.3125C15.8718 14.5068 15.793 14.6922 15.6556 14.8296C15.5182 14.967 15.3328 15.0457 15.1385 15.0491C14.9442 15.0526 14.7562 14.9804 14.614 14.848L12.712 12.948L12.716 18.25Z" fill="white"/>
</svg>
