<svg width="20" height="20" viewBox="0 0 20 20" fill="none" xmlns="http://www.w3.org/2000/svg">
<path d="M10.0479 1.6626C7.95119 1.6626 6.24658 3.3672 6.24658 5.46394C6.24658 7.52067 7.85515 9.18526 9.95189 9.25729C10.0159 9.24928 10.0799 9.24928 10.128 9.25729C10.144 9.25729 10.152 9.25729 10.168 9.25729C10.176 9.25729 10.176 9.25729 10.184 9.25729C12.2327 9.18526 13.8413 7.52067 13.8493 5.46394C13.8493 3.3672 12.1447 1.6626 10.0479 1.6626Z" fill="black"/>
<path d="M14.1135 11.3864C11.8807 9.89789 8.23942 9.89789 5.99062 11.3864C4.97426 12.0667 4.41406 12.987 4.41406 13.9713C4.41406 14.9557 4.97426 15.868 5.98262 16.5402C7.10301 17.2925 8.57554 17.6686 10.0481 17.6686C11.5206 17.6686 12.9931 17.2925 14.1135 16.5402C15.1219 15.86 15.6821 14.9477 15.6821 13.9553C15.674 12.971 15.1219 12.0587 14.1135 11.3864Z" fill="black"/>
</svg>
