<svg width="24" height="24" viewBox="0 0 24 24" fill="none" xmlns="http://www.w3.org/2000/svg">
<path d="M16.0054 11.9999V5.8488C16.0054 3.49692 14.0988 1.59033 11.7469 1.59033C9.395 1.59033 7.48843 3.49692 7.48843 5.8488V11.9999C7.48843 14.3518 9.395 16.2584 11.7469 16.2584C14.0988 16.2584 16.0054 14.3518 16.0054 11.9999Z" fill="white"/>
<path d="M4.64945 10.5804C5.17209 10.5804 5.59578 11.0041 5.59578 11.5268C5.59578 14.9239 8.34972 17.6779 11.7469 17.6779C15.1441 17.6779 17.898 14.9239 17.898 11.5268C17.898 11.0041 18.3217 10.5804 18.8444 10.5804C19.367 10.5804 19.7907 11.0041 19.7907 11.5268C19.7907 15.6491 16.6897 19.0471 12.6932 19.5155V21.4632C12.6932 21.9858 12.2695 22.4095 11.7469 22.4095C11.2243 22.4095 10.8006 21.9858 10.8006 21.4632V19.5155C6.80407 19.0471 3.70312 15.6491 3.70312 11.5268C3.70312 11.0041 4.12681 10.5804 4.64945 10.5804Z" fill="white"/>
</svg>
