<svg width="260" height="200" viewBox="0 0 260 200" fill="none" xmlns="http://www.w3.org/2000/svg">
<g clip-path="url(#clip0_1_2674)">
<path d="M174.238 56.3142C179.816 41.3177 192.994 28.3597 208.92 26.8184C199.345 41.3468 195.218 58.7937 197.269 76.0721C198.084 82.7328 199.684 90.0563 196.093 95.7252C193.859 99.2526 189.922 101.424 185.863 102.404C181.804 103.384 177.575 103.308 173.401 103.227L172.466 103.688C169.53 87.9598 168.661 71.3107 174.238 56.3142Z" fill="#F0F0F0"/>
<path d="M208.998 27.1458C198.141 34.7304 189.95 45.543 185.589 58.0478C184.67 60.7325 183.973 63.5358 183.932 66.3866C183.915 69.1657 184.641 71.8989 186.037 74.3022C187.293 76.5692 188.841 78.7426 189.524 81.2755C190.245 83.9453 189.657 86.6462 188.186 88.9528C186.386 91.7751 183.679 93.7821 180.963 95.6529C177.948 97.7299 174.784 99.8396 172.939 103.103C172.715 103.498 172.115 103.128 172.338 102.733C175.548 97.0562 182.284 94.9941 186.404 90.1719C188.327 87.9218 189.584 85.0786 188.989 82.0824C188.469 79.4624 186.875 77.2198 185.583 74.9354C184.227 72.5368 183.341 70.0475 183.237 67.2723C183.132 64.4335 183.721 61.597 184.567 58.9006C186.529 52.8005 189.439 47.047 193.189 41.8507C197.436 35.8966 202.67 30.7128 208.665 26.5237C209.036 26.2646 209.366 26.8884 208.998 27.1458V27.1458Z" fill="white"/>
<path d="M186.756 53.9382C184.757 52.9216 183.185 51.2276 182.32 49.1588C181.455 47.09 181.353 44.7811 182.033 42.6444C182.172 42.2125 182.85 42.4084 182.711 42.8409C182.074 44.8294 182.168 46.9802 182.978 48.905C183.787 50.8298 185.258 52.4019 187.125 53.3374C187.53 53.5412 187.159 54.1408 186.756 53.9382Z" fill="white"/>
<path d="M185.248 73.2364C189.619 71.8559 193.309 68.8786 195.583 64.8982C195.807 64.5037 196.408 64.8735 196.183 65.2676C193.81 69.4052 189.963 72.4957 185.412 73.9223C184.978 74.058 184.817 73.3713 185.248 73.2364V73.2364Z" fill="white"/>
<path d="M197.92 36.6971C198.611 37.2515 199.429 37.6256 200.301 37.7857C201.173 37.9458 202.071 37.8869 202.914 37.6143C203.346 37.4732 203.507 38.16 203.077 38.3002C202.144 38.5971 201.153 38.661 200.189 38.4862C199.226 38.3115 198.32 37.9034 197.55 37.2978C197.473 37.2468 197.418 37.1683 197.397 37.0782C197.375 36.9881 197.389 36.8932 197.435 36.8128C197.484 36.7335 197.563 36.6768 197.653 36.6552C197.744 36.6335 197.84 36.6486 197.92 36.6971V36.6971Z" fill="white"/>
<path d="M247.307 65.045C247.04 65.1408 246.773 65.2365 246.504 65.3381C242.918 66.6444 239.444 68.24 236.116 70.109C235.856 70.2494 235.595 70.3956 235.34 70.5432C227.371 75.1315 220.322 81.1595 214.553 88.3209C212.26 91.1726 210.187 94.1947 208.353 97.361C205.819 101.734 203.421 106.677 199.7 109.864C199.316 110.2 198.911 110.513 198.488 110.8L173.103 104.793C173.052 104.75 172.999 104.713 172.948 104.671L171.924 104.477C172.007 104.307 172.097 104.133 172.18 103.963C172.228 103.864 172.282 103.767 172.329 103.668C172.363 103.603 172.397 103.537 172.424 103.476C172.435 103.455 172.446 103.433 172.456 103.417C172.483 103.356 172.514 103.302 172.539 103.247C173.039 102.27 173.547 101.296 174.063 100.323C174.064 100.317 174.064 100.317 174.071 100.313C178.019 92.9108 182.619 85.7732 188.156 79.5608C188.322 79.374 188.49 79.1812 188.668 78.9971C191.18 76.2107 193.915 73.6342 196.846 71.2934C198.455 70.0167 200.128 68.8224 201.858 67.7149C206.333 64.862 211.229 62.7307 216.367 61.3993C226.609 58.7466 237.586 59.3991 246.621 64.6379C246.852 64.7721 247.078 64.905 247.307 65.045Z" fill="#F0F0F0"/>
<path d="M247.173 65.354C233.938 64.8734 220.888 68.5753 209.877 75.9337C207.527 77.5245 205.282 79.3427 203.534 81.5947C201.846 83.8029 200.781 86.4227 200.449 89.1819C200.087 91.7484 200.014 94.4155 199.035 96.8493C198.002 99.4147 195.907 101.218 193.344 102.173C190.207 103.343 186.837 103.316 183.543 103.174C179.885 103.018 176.088 102.797 172.651 104.291C172.234 104.472 171.977 103.816 172.393 103.635C178.374 101.034 184.994 103.444 191.187 102.074C194.077 101.435 196.792 99.9217 198.121 97.1714C199.284 94.7665 199.361 92.0162 199.705 89.4145C200.066 86.6826 200.857 84.1615 202.446 81.8834C204.07 79.5531 206.249 77.6433 208.547 75.9994C213.787 72.3105 219.574 69.4685 225.697 67.5773C232.673 65.3802 239.973 64.3926 247.282 64.6572C247.734 64.6738 247.622 65.3705 247.173 65.354L247.173 65.354Z" fill="white"/>
<path d="M213.283 73.3556C212.299 71.3406 212.063 69.0415 212.618 66.8689C213.173 64.6962 214.482 62.7916 216.312 61.4951C216.683 61.234 217.106 61.7984 216.734 62.0598C215.028 63.264 213.809 65.0383 213.297 67.0625C212.784 69.0867 213.012 71.2275 213.939 73.0984C214.14 73.5052 213.482 73.7601 213.283 73.3557V73.3556Z" fill="white"/>
<path d="M200.461 87.8561C204.782 89.3855 209.521 89.23 213.733 87.4206C214.15 87.241 214.407 87.8978 213.99 88.0772C209.604 89.9519 204.672 90.1037 200.179 88.5023C199.751 88.3494 200.035 87.704 200.461 87.8561Z" fill="white"/>
<path d="M232.578 66.3103C232.796 67.1693 233.224 67.9607 233.824 68.6133C234.424 69.2659 235.176 69.7594 236.013 70.0495C236.443 70.1969 236.158 70.8421 235.731 70.6956C234.807 70.3709 233.977 69.8249 233.313 69.1053C232.649 68.3857 232.171 67.5144 231.921 66.5676C231.89 66.4803 231.894 66.3845 231.931 66.2997C231.968 66.2148 232.036 66.1472 232.121 66.1107C232.208 66.0771 232.305 66.0792 232.391 66.1166C232.476 66.1539 232.544 66.2236 232.578 66.3104V66.3103Z" fill="white"/>
<path d="M27.1559 193.776C12.6234 187.081 0.697594 172.962 0.363281 156.966C14.1272 167.61 31.2126 173.043 48.5966 172.303C55.2998 171.993 62.7232 170.951 68.1048 174.959C71.4535 177.453 73.3215 181.543 73.9922 185.665C74.6629 189.786 74.2678 193.997 73.8712 198.154L74.2608 199.12C58.3556 200.86 41.6884 200.47 27.1559 193.776Z" fill="#F0F0F0"/>
<path d="M0.694302 156.913C7.43742 168.312 17.6006 177.296 29.7403 182.589C32.348 183.707 35.0906 184.615 37.9303 184.87C40.7001 185.098 43.4804 184.58 45.9822 183.37C48.3376 182.288 50.6216 180.909 53.1989 180.419C55.9155 179.902 58.5643 180.692 60.7532 182.333C63.4315 184.341 65.2284 187.192 66.8887 190.041C68.7322 193.204 70.5968 196.519 73.7112 198.605C74.0885 198.858 73.6743 199.429 73.2975 199.176C67.8791 195.547 66.3316 188.675 61.8343 184.201C59.7359 182.114 56.9956 180.647 53.9631 181.013C51.3113 181.334 48.9547 182.754 46.5793 183.87C44.0851 185.041 41.536 185.737 38.7609 185.63C35.9222 185.521 33.1383 184.719 30.5135 183.673C24.5791 181.255 19.0617 177.919 14.1634 173.787C8.547 169.103 3.77329 163.492 0.0488356 157.198C-0.181538 156.808 0.465414 156.526 0.694266 156.913H0.694302Z" fill="white"/>
<path d="M25.7302 181.115C24.5656 183.031 22.7577 184.471 20.6295 185.178C18.5013 185.884 16.1913 185.811 14.1121 184.971C13.692 184.8 13.9385 184.139 14.3591 184.311C16.2939 185.096 18.4457 185.164 20.4261 184.502C22.4066 183.84 24.0852 182.492 25.1591 180.702C25.3929 180.313 25.9627 180.729 25.7302 181.115Z" fill="white"/>
<path d="M44.8602 184.075C43.8137 179.612 41.1236 175.708 37.3262 173.141C36.9498 172.886 37.3639 172.316 37.7399 172.569C41.6865 175.249 44.4777 179.317 45.5565 183.964C45.6591 184.407 44.9622 184.516 44.8602 184.075Z" fill="white"/>
<path d="M9.38274 168.682C9.98786 168.035 10.4227 167.247 10.6481 166.39C10.8736 165.533 10.8826 164.633 10.6745 163.772C10.5664 163.33 11.2634 163.222 11.3708 163.66C11.5964 164.613 11.5852 165.607 11.3382 166.554C11.0912 167.502 10.6159 168.374 9.95385 169.096C9.89715 169.169 9.81469 169.218 9.72323 169.233C9.63177 169.247 9.53818 169.226 9.46147 169.175C9.38613 169.119 9.33559 169.037 9.32085 168.945C9.30611 168.852 9.32835 168.758 9.38274 168.682Z" fill="white"/>
<path d="M41.3783 121.576C41.4536 121.85 41.529 122.124 41.6099 122.399C42.6417 126.074 43.9703 129.659 45.5827 133.118C45.7031 133.388 45.8292 133.659 45.9571 133.924C49.9305 142.218 55.409 149.701 62.1143 155.995C64.7848 158.497 67.6417 160.792 70.6604 162.86C74.8295 165.716 79.5771 168.481 82.4738 172.432C82.7807 172.841 83.0619 173.268 83.3159 173.711L75.4092 198.57C75.3629 198.618 75.3221 198.668 75.2757 198.715L75.0054 199.722C74.8423 199.626 74.6752 199.524 74.512 199.428C74.4171 199.373 74.324 199.312 74.2292 199.257C74.1665 199.218 74.1039 199.179 74.0451 199.148C74.0242 199.135 74.0034 199.122 73.9881 199.111C73.9293 199.08 73.878 199.045 73.825 199.016C72.8891 198.443 71.9556 197.863 71.0246 197.276C71.0189 197.274 71.0189 197.274 71.015 197.266C63.9322 192.771 57.1624 187.646 51.3858 181.655C51.2121 181.475 51.0326 181.293 50.8625 181.101C48.2736 178.387 45.911 175.465 43.7982 172.365C42.6468 170.664 41.5821 168.906 40.6085 167.098C38.1016 162.42 36.3462 157.377 35.4066 152.153C33.5349 141.74 35.0144 130.844 40.9206 122.23C41.0719 122.01 41.2214 121.795 41.3783 121.576Z" fill="#F0F0F0"/>
<path d="M41.6766 121.732C40.1979 134.892 42.9037 148.185 49.4096 159.72C50.8185 162.183 52.462 164.559 54.5755 166.472C56.65 168.322 59.1819 169.582 61.9081 170.122C64.4399 170.676 67.0938 170.95 69.4468 172.111C71.9269 173.334 73.5665 175.559 74.326 178.187C75.2553 181.403 74.9735 184.761 74.5839 188.036C74.1513 191.671 73.6444 195.441 74.8751 198.981C75.0243 199.41 74.3499 199.617 74.201 199.188C72.0597 193.028 74.9619 186.609 74.0642 180.33C73.6454 177.4 72.341 174.579 69.699 173.045C67.3887 171.705 64.6522 171.42 62.0838 170.881C59.387 170.314 56.9328 169.335 54.7812 167.579C52.5802 165.783 50.8404 163.466 49.3748 161.05C46.0921 155.547 43.6952 149.562 42.2718 143.314C40.6078 136.192 40.1742 128.838 40.99 121.57C41.0407 121.12 41.7269 121.285 41.6766 121.732V121.732Z" fill="white"/>
<path d="M47.0961 156.129C45.0126 156.958 42.7022 157.019 40.5777 156.301C38.4532 155.584 36.6528 154.135 35.4982 152.213C35.2659 151.823 35.8606 151.444 36.0932 151.834C37.1651 153.626 38.8423 154.976 40.822 155.64C42.8017 156.304 44.9536 156.238 46.8892 155.455C47.31 155.285 47.5146 155.96 47.0961 156.129Z" fill="white"/>
<path d="M60.5863 170.01C62.4376 165.817 62.6404 161.079 61.1542 156.743C61.0066 156.314 61.6809 156.107 61.8284 156.536C63.3665 161.052 63.1455 165.981 61.2094 170.34C61.0245 170.756 60.4025 170.423 60.5863 170.01Z" fill="white"/>
<path d="M41.528 136.359C42.401 136.206 43.2224 135.839 43.9184 135.29C44.6145 134.742 45.1634 134.029 45.5158 133.216C45.6953 132.798 46.3172 133.131 46.1389 133.546C45.7453 134.443 45.1381 135.229 44.3704 135.837C43.6028 136.445 42.6979 136.855 41.7349 137.033C41.6456 137.057 41.5503 137.047 41.4684 137.003C41.3866 136.96 41.3244 136.887 41.2944 136.799C41.2674 136.71 41.2768 136.613 41.3206 136.531C41.3643 136.448 41.4389 136.387 41.528 136.359Z" fill="white"/>
<path d="M60.617 105.375C47.7756 92.7338 42.3521 79.5456 45.3449 68.2405C49.1857 53.7326 66.2483 43.7017 92.1578 40.7197L92.2535 41.5519C66.7047 44.4922 49.9023 54.298 46.1546 68.4547C43.2419 79.4569 48.5868 92.357 61.2047 104.779L60.617 105.375Z" fill="#F0F0F0"/>
<path d="M184.514 150.248C168.487 150.248 151.071 147.866 133.772 143.286C112.38 137.623 92.7648 129.075 77.0486 118.565L77.514 117.869C93.1545 128.328 112.682 136.837 133.986 142.477C153.238 147.574 172.635 149.935 190.072 149.312L190.102 150.149C188.261 150.215 186.398 150.248 184.514 150.248Z" fill="#F0F0F0"/>
<path d="M221.281 144.981L221.013 144.188C235.347 139.341 244.312 131.534 246.94 121.61C250.279 108.994 243.024 94.3542 226.508 80.3868C209.909 66.3484 185.973 54.7001 159.107 47.588L159.321 46.7783C186.304 53.9217 210.357 65.6303 227.049 79.7474C243.825 93.9352 251.177 108.879 247.749 121.825C245.047 132.033 235.894 140.041 221.281 144.981Z" fill="#F0F0F0"/>
<path d="M89.6638 150.598C58.172 136.631 33.9053 118.511 21.334 99.5747L22.0316 99.1113C34.516 117.916 58.6554 135.93 90.0032 149.833L89.6638 150.598Z" fill="#F0F0F0"/>
<path d="M200.386 174.794C197.138 174.794 193.834 174.722 190.475 174.577L190.511 173.74C215.579 174.825 237.698 171.825 254.479 165.062L254.792 165.839C240.153 171.738 221.495 174.794 200.386 174.794Z" fill="#F0F0F0"/>
<path d="M182.115 41.4706C176.91 39.776 171.556 38.1981 166.202 36.7807C135.393 28.6244 105.107 25.7285 78.6174 28.4076L78.5332 27.5742C105.122 24.8862 135.511 27.7891 166.417 35.971C171.786 37.3925 177.155 38.9749 182.374 40.6744L182.115 41.4706Z" fill="#F0F0F0"/>
<path d="M40.9354 106.631C28.094 93.9897 22.6704 80.8015 25.6633 69.4963C29.504 54.9885 46.5667 44.9576 72.4762 41.9756L72.5719 42.8078C47.0231 45.7481 30.2207 55.5539 26.473 69.7106C23.5603 80.7128 28.9051 93.6128 41.523 106.034L40.9354 106.631Z" fill="#F0F0F0"/>
<path d="M164.832 151.505C148.806 151.505 131.39 149.123 114.091 144.543C92.6981 138.88 73.0834 130.331 57.3672 119.822L57.8326 119.126C73.4732 129.584 93.0009 138.094 114.305 143.733C133.557 148.83 152.954 151.192 170.39 150.569L170.421 151.406C168.579 151.472 166.716 151.505 164.832 151.505Z" fill="#F0F0F0"/>
<path d="M201.6 146.237L201.332 145.444C215.666 140.597 224.631 132.79 227.258 122.866C230.598 110.25 223.342 95.61 206.827 81.6426C190.228 67.6043 166.291 55.956 139.426 48.8439L139.64 48.0342C166.623 55.1776 190.676 66.8862 207.368 81.0032C224.144 95.191 231.495 110.134 228.068 123.08C225.365 133.289 216.213 141.297 201.6 146.237Z" fill="#F0F0F0"/>
<path d="M69.9821 151.854C38.4904 137.887 14.2236 119.767 1.65234 100.831L2.35 100.367C14.8344 119.172 38.9738 137.185 70.3216 151.089L69.9821 151.854Z" fill="#F0F0F0"/>
<path d="M180.704 176.051C177.456 176.051 174.152 175.978 170.793 175.833L170.829 174.997C195.897 176.082 218.016 173.082 234.797 166.319L235.11 167.096C220.472 172.995 201.813 176.051 180.704 176.051Z" fill="#F0F0F0"/>
<path d="M162.434 42.7265C157.229 41.0318 151.875 39.4539 146.521 38.0366C115.711 29.8802 85.4254 26.9843 58.9358 29.6635L58.8516 28.8301C85.4399 26.1421 115.83 29.045 146.735 37.2269C152.104 38.6483 157.473 40.2307 162.693 41.9303L162.434 42.7265Z" fill="#F0F0F0"/>
<path d="M79.2322 104.914C77.5113 104.916 75.8615 105.6 74.6447 106.817C73.4278 108.034 72.7434 109.684 72.7415 111.405C70.2737 129.575 69.4495 147.93 70.279 166.248C70.3283 167.418 70.3829 168.487 70.4463 169.519C70.5383 171.224 70.6553 173.023 70.7937 174.868C70.8732 175.957 70.957 177.049 71.0489 178.137C71.2026 179.909 71.3715 181.71 71.5512 183.49C71.6641 184.577 71.7813 185.669 71.9066 186.757C72.1473 188.893 72.4196 191.084 72.7396 193.453C72.7364 195.178 73.4186 196.834 74.6361 198.057C75.8536 199.279 77.5069 199.968 79.2322 199.972H188.109C189.83 199.97 191.479 199.285 192.696 198.068C193.913 196.852 194.598 195.202 194.599 193.481L194.604 193.436C195.089 191.226 195.541 188.975 195.947 186.743C196.164 185.567 196.352 184.498 196.52 183.477C196.826 181.617 197.097 179.817 197.327 178.126C197.485 176.992 197.627 175.893 197.75 174.859C197.953 173.167 198.136 171.419 198.31 169.513C198.406 168.477 198.493 167.407 198.578 166.243V166.242C199.909 147.882 198.571 129.426 194.604 111.45L194.599 111.405C194.597 109.684 193.913 108.034 192.696 106.817C191.479 105.6 189.83 104.916 188.109 104.914L79.2322 104.914Z" fill="#3F3D56"/>
<path d="M137.897 132.701C114.306 132.701 89.308 130.557 56.5914 126.269H56.5879C54.8919 126.266 53.2563 125.638 51.9949 124.504C50.7335 123.37 49.9349 121.811 49.7523 120.125C49.7225 119.871 49.7081 119.616 49.7091 119.361V99.6793C49.7084 99.6372 49.7103 99.5952 49.7149 99.5533C49.7517 97.745 50.4946 96.0228 51.7848 94.7551C53.0749 93.4874 54.8099 92.7749 56.6186 92.7698C113.538 85.0306 148.115 85.0314 210.747 92.7715H210.749C212.557 92.7834 214.288 93.5018 215.573 94.7733C216.858 96.0447 217.595 97.7684 217.626 99.5758C217.63 99.6102 217.631 99.6448 217.63 99.6793V119.361C217.631 119.617 217.617 119.873 217.587 120.127C217.402 121.817 216.598 123.38 215.331 124.514C214.063 125.648 212.421 126.273 210.721 126.27C183.661 130.557 161.482 132.701 137.897 132.701Z" fill="#333333"/>
<path d="M141.681 146.371H127.368C125.546 146.369 123.799 145.644 122.511 144.356C121.223 143.068 120.498 141.321 120.496 139.499V87.4974C120.498 85.6756 121.223 83.9291 122.511 82.6409C123.799 81.3527 125.546 80.6281 127.368 80.626H141.681C143.503 80.628 145.25 81.3526 146.538 82.6408C147.826 83.929 148.551 85.6756 148.553 87.4974V139.499C148.551 141.321 147.826 143.068 146.538 144.356C145.25 145.644 143.503 146.369 141.681 146.371Z" fill="#3F3D56"/>
<path d="M174.179 70.675C174.075 69.7001 173.892 68.7352 173.633 67.7898C173.353 66.8425 172.998 65.919 172.572 65.0277C171.045 61.7511 168.47 59.0769 165.253 57.4279C161.26 55.4624 156.693 55.3016 152.4 56.2485C148.792 57.0568 145.403 58.6432 142.472 60.897C140.951 62.0422 139.563 63.352 138.331 64.8025C137.059 66.3286 134.693 70.5215 134.522 70.9097C133.184 67.8726 131.265 65.1269 128.872 62.8274C126.091 60.1873 122.77 58.1808 119.14 56.9457C117.21 56.2954 115.206 55.8881 113.175 55.7332C111.026 55.5546 108.862 55.7434 106.776 56.2915C103.03 57.3407 99.7895 59.7095 97.6528 62.9608C95.6168 65.9826 94.6168 69.5837 94.8033 73.2226C94.9064 75.0599 95.3026 76.8688 95.9769 78.5809C96.3383 79.5078 96.767 80.4069 97.2594 81.2713C97.769 82.1251 98.3387 82.9414 98.9643 83.7142C101.419 86.7268 104.726 88.9287 108.452 90.0321C112.43 91.2616 116.65 91.3017 120.741 90.7245C124.942 90.1317 128.985 88.7719 132.942 87.2826C133.47 87.0839 133.995 86.8795 134.522 86.677C138.039 88.0301 141.586 89.3352 145.268 90.1635C149.41 91.1638 153.709 91.3362 157.918 90.6708C161.841 90.0268 165.489 88.2451 168.408 85.5466C171.11 83.0045 173 79.7215 173.843 76.1092C174.259 74.3295 174.372 72.4924 174.179 70.675ZM119.648 86.679C117.378 86.9699 115.081 86.9834 112.807 86.719C111.177 86.4829 109.581 86.0579 108.049 85.4528C104.44 83.9495 101.562 81.0926 100.033 77.4939C99.5763 76.3594 99.2508 75.1763 99.0632 73.9676C98.9429 72.8923 98.9426 71.807 99.0622 70.7316C99.2403 69.6003 99.5455 68.4926 99.9719 67.4297C100.433 66.3958 101.006 65.4154 101.68 64.5058C102.333 63.692 103.072 62.9502 103.883 62.293C104.652 61.7244 105.479 61.2396 106.351 60.8469C107.391 60.4405 108.474 60.151 109.578 59.9836C111.074 59.818 112.585 59.8298 114.078 60.0187C115.855 60.2931 117.594 60.7725 119.261 61.4473C121.033 62.2167 122.709 63.1934 124.251 64.3571C125.679 65.488 126.973 66.778 128.108 68.202C129.232 69.697 130.175 71.3202 130.916 73.0375C131.637 74.8291 132.143 76.6997 132.424 78.6102L132.427 78.6381C132.317 79.598 132.263 80.5634 132.263 81.5296C132.263 81.9018 132.28 82.2735 132.298 82.645C132.122 82.8153 131.974 83.0137 131.862 83.2322C128.945 84.3766 125.955 85.3248 122.912 86.0706C121.833 86.3196 120.745 86.5224 119.648 86.679ZM169.989 73.9675C169.802 75.1763 169.476 76.3596 169.019 77.4943C167.497 81.0979 164.618 83.9571 161.003 85.4528C159.472 86.0579 157.875 86.4829 156.245 86.7191C153.968 86.9838 151.666 86.9699 149.392 86.6776C145.352 86.0998 141.454 84.8246 137.642 83.4014C137.485 83.3428 137.329 83.281 137.173 83.222C137.066 83.0068 136.925 82.8105 136.755 82.6412C136.822 81.2929 136.781 79.9413 136.63 78.5997C136.912 76.6928 137.417 74.8258 138.136 73.0375C138.878 71.3203 139.82 69.6972 140.944 68.2022C142.08 66.7781 143.374 65.488 144.801 64.3571C146.344 63.1934 148.019 62.2167 149.792 61.4473C151.458 60.7725 153.198 60.2931 154.975 60.0187C156.468 59.8298 157.978 59.818 159.474 59.9836C160.579 60.151 161.661 60.4405 162.702 60.8469C163.574 61.2396 164.401 61.7245 165.17 62.2931C165.981 62.9503 166.719 63.6921 167.373 64.506C168.047 65.4155 168.619 66.3959 169.081 67.4297C169.507 68.4926 169.812 69.6003 169.99 70.7316C170.11 71.807 170.11 72.8923 169.989 73.9675Z" fill="#3F3D56"/>
<path d="M90.9559 148.674C92.3435 148.674 93.4684 147.549 93.4684 146.161C93.4684 144.773 92.3435 143.648 90.9559 143.648C89.5683 143.648 88.4434 144.773 88.4434 146.161C88.4434 147.549 89.5683 148.674 90.9559 148.674Z" fill="#333333"/>
<path d="M108.964 142.392C110.351 142.392 111.476 141.267 111.476 139.88C111.476 138.492 110.351 137.367 108.964 137.367C107.576 137.367 106.451 138.492 106.451 139.88C106.451 141.267 107.576 142.392 108.964 142.392Z" fill="#333333"/>
<path d="M101.007 162.074C102.394 162.074 103.519 160.949 103.519 159.561C103.519 158.174 102.394 157.049 101.007 157.049C99.619 157.049 98.4941 158.174 98.4941 159.561C98.4941 160.949 99.619 162.074 101.007 162.074Z" fill="#333333"/>
<path d="M175.546 148.674C176.933 148.674 178.058 147.549 178.058 146.161C178.058 144.773 176.933 143.648 175.546 143.648C174.158 143.648 173.033 144.773 173.033 146.161C173.033 147.549 174.158 148.674 175.546 148.674Z" fill="#333333"/>
<path d="M157.538 142.392C158.926 142.392 160.05 141.267 160.05 139.88C160.05 138.492 158.926 137.367 157.538 137.367C156.15 137.367 155.025 138.492 155.025 139.88C155.025 141.267 156.15 142.392 157.538 142.392Z" fill="#333333"/>
<path d="M165.495 162.074C166.883 162.074 168.007 160.949 168.007 159.561C168.007 158.174 166.883 157.049 165.495 157.049C164.107 157.049 162.982 158.174 162.982 159.561C162.982 160.949 164.107 162.074 165.495 162.074Z" fill="#333333"/>
<path d="M177.639 192.643C179.027 192.643 180.152 191.518 180.152 190.131C180.152 188.743 179.027 187.618 177.639 187.618C176.252 187.618 175.127 188.743 175.127 190.131C175.127 191.518 176.252 192.643 177.639 192.643Z" fill="#333333"/>
<path d="M183.921 174.636C185.308 174.636 186.433 173.512 186.433 172.124C186.433 170.736 185.308 169.611 183.921 169.611C182.533 169.611 181.408 170.736 181.408 172.124C181.408 173.512 182.533 174.636 183.921 174.636Z" fill="#333333"/>
<path d="M164.239 182.593C165.627 182.593 166.752 181.469 166.752 180.081C166.752 178.693 165.627 177.568 164.239 177.568C162.851 177.568 161.727 178.693 161.727 180.081C161.727 181.469 162.851 182.593 164.239 182.593Z" fill="#333333"/>
<path d="M105.612 192.643C107 192.643 108.125 191.518 108.125 190.131C108.125 188.743 107 187.618 105.612 187.618C104.225 187.618 103.1 188.743 103.1 190.131C103.1 191.518 104.225 192.643 105.612 192.643Z" fill="#333333"/>
<path d="M111.893 174.636C113.281 174.636 114.406 173.512 114.406 172.124C114.406 170.736 113.281 169.611 111.893 169.611C110.506 169.611 109.381 170.736 109.381 172.124C109.381 173.512 110.506 174.636 111.893 174.636Z" fill="#333333"/>
<path d="M92.2137 182.593C93.6013 182.593 94.7262 181.469 94.7262 180.081C94.7262 178.693 93.6013 177.568 92.2137 177.568C90.8261 177.568 89.7012 178.693 89.7012 180.081C89.7012 181.469 90.8261 182.593 92.2137 182.593Z" fill="#333333"/>
<path d="M164.404 15.191C165.356 15.5882 166.393 15.7336 167.417 15.6133C168.441 15.493 169.417 15.1111 170.25 14.5042C172.375 12.9195 173.172 10.1532 173.839 7.58823L175.81 0L172.481 2.02102C170.087 3.47416 167.638 4.97543 165.91 7.18152C164.182 9.38761 163.308 12.4791 164.447 15.0391" fill="#F2F2F2"/>
<path d="M75.3731 80.01C76.0156 79.2037 76.4397 78.2456 76.6044 77.2278C76.7692 76.2101 76.669 75.1671 76.3137 74.1993C75.3715 71.7216 72.9291 70.1979 70.645 68.8537L63.8867 64.8799L64.9188 68.6349C65.6606 71.3353 66.4338 74.1018 68.0822 76.3679C69.7307 78.6341 72.4645 80.3216 75.2386 79.9275" fill="#F2F2F2"/>
<path d="M234.082 196.842C234.725 196.036 235.149 195.078 235.313 194.06C235.478 193.042 235.378 191.999 235.023 191.031C234.08 188.554 231.638 187.03 229.354 185.686L222.596 181.712L223.628 185.467C224.37 188.167 225.143 190.934 226.791 193.2C228.44 195.466 231.174 197.154 233.948 196.759" fill="#F2F2F2"/>
<path d="M106.45 48.5907C108.3 48.5907 109.8 47.0909 109.8 45.2407C109.8 43.3905 108.3 41.8906 106.45 41.8906C104.599 41.8906 103.1 43.3905 103.1 45.2407C103.1 47.0909 104.599 48.5907 106.45 48.5907Z" fill="#FF7200"/>
<path d="M17.2563 147.418C19.1065 147.418 20.6063 145.918 20.6063 144.068C20.6063 142.218 19.1065 140.718 17.2563 140.718C15.4061 140.718 13.9062 142.218 13.9062 144.068C13.9062 145.918 15.4061 147.418 17.2563 147.418Z" fill="#FF7200"/>
<path d="M247.571 120.198C249.421 120.198 250.921 118.698 250.921 116.848C250.921 114.998 249.421 113.498 247.571 113.498C245.721 113.498 244.221 114.998 244.221 116.848C244.221 118.698 245.721 120.198 247.571 120.198Z" fill="#FF7200"/>
<path d="M13.9047 63.248C15.7549 63.248 17.2548 61.7481 17.2548 59.8979C17.2548 58.0477 15.7549 56.5479 13.9047 56.5479C12.0546 56.5479 10.5547 58.0477 10.5547 59.8979C10.5547 61.7481 12.0546 63.248 13.9047 63.248Z" fill="#E6E6E6"/>
<path d="M221.19 158.724C223.04 158.724 224.54 157.224 224.54 155.373C224.54 153.523 223.04 152.023 221.19 152.023C219.34 152.023 217.84 153.523 217.84 155.373C217.84 157.224 219.34 158.724 221.19 158.724Z" fill="#E6E6E6"/>
<path d="M227.889 56.9667C229.739 56.9667 231.239 55.4668 231.239 53.6167C231.239 51.7665 229.739 50.2666 227.889 50.2666C226.039 50.2666 224.539 51.7665 224.539 53.6167C224.539 55.4668 226.039 56.9667 227.889 56.9667Z" fill="#E6E6E6"/>
<path d="M81.0021 110.247C80.7125 110.705 80.0104 110.638 79.6161 110.352C79.0688 109.954 79.246 109.189 79.6229 108.736C80.8208 107.298 82.802 108.816 83.0692 110.244C83.1686 110.941 83.0614 111.651 82.7608 112.287C82.4603 112.923 81.9797 113.457 81.3787 113.822C80.0119 114.632 78.2366 114.226 77.0616 113.256C74.6103 111.234 75.2777 107.186 78.0004 105.723C79.7381 104.789 81.9348 105.199 83.6466 105.981C85.5734 106.861 87.2303 108.211 89.0122 109.336C92.922 111.783 97.3447 113.293 101.935 113.748C102.738 113.83 102.733 112.573 101.935 112.492C99.3912 112.229 96.8941 111.628 94.5095 110.704C92.1503 109.748 89.911 108.519 87.8374 107.042C85.7393 105.604 83.5474 104.207 80.9509 103.969C79.9031 103.847 78.8416 104.004 77.8743 104.425C76.907 104.846 76.0684 105.515 75.4438 106.365C74.8881 107.126 74.5162 108.005 74.3571 108.934C74.1981 109.862 74.2562 110.815 74.5269 111.717C74.8532 112.66 75.4236 113.501 76.1801 114.152C76.9367 114.803 77.8523 115.243 78.8338 115.425C79.7787 115.604 80.7557 115.483 81.6286 115.08C82.5015 114.676 83.2268 114.011 83.7032 113.175C84.6589 111.523 84.6278 109.302 83.1844 107.932C82.7706 107.511 82.2526 107.208 81.6833 107.053C81.114 106.898 80.5138 106.898 79.944 107.051C79.4191 107.228 78.9572 107.554 78.6148 107.99C78.2725 108.426 78.0646 108.952 78.0165 109.504C77.8772 111.649 80.9227 112.722 82.0868 110.881C82.5201 110.195 81.4334 109.564 81.0021 110.247L81.0021 110.247Z" fill="#FF7200"/>
<path d="M188.432 110.247C188.721 110.705 189.423 110.638 189.818 110.352C190.365 109.954 190.188 109.189 189.811 108.736C188.613 107.298 186.632 108.816 186.365 110.244C186.265 110.941 186.372 111.651 186.673 112.287C186.973 112.923 187.454 113.457 188.055 113.822C189.422 114.632 191.197 114.226 192.372 113.256C194.824 111.234 194.156 107.186 191.433 105.723C189.696 104.789 187.499 105.199 185.787 105.981C183.86 106.861 182.203 108.211 180.422 109.336C176.512 111.783 172.089 113.293 167.499 113.748C166.695 113.83 166.701 112.573 167.499 112.492C170.043 112.229 172.54 111.628 174.924 110.704C177.284 109.748 179.523 108.519 181.596 107.042C183.695 105.604 185.886 104.207 188.483 103.969C189.531 103.847 190.592 104.004 191.559 104.425C192.527 104.846 193.365 105.515 193.99 106.365C194.546 107.126 194.918 108.005 195.077 108.934C195.236 109.862 195.178 110.815 194.907 111.717C194.581 112.66 194.01 113.501 193.254 114.152C192.497 114.803 191.582 115.243 190.6 115.425C189.655 115.604 188.678 115.483 187.805 115.08C186.932 114.676 186.207 114.011 185.731 113.175C184.775 111.523 184.806 109.302 186.249 107.932C186.663 107.511 187.181 107.208 187.75 107.053C188.32 106.898 188.92 106.898 189.49 107.051C190.015 107.228 190.477 107.554 190.819 107.99C191.161 108.426 191.369 108.952 191.417 109.504C191.557 111.649 188.511 112.722 187.347 110.881C186.914 110.195 188 109.564 188.432 110.247L188.432 110.247Z" fill="#FF7200"/>
<path d="M37.2839 15.2271L35.6244 17.309L29.7559 13.8375L31.4149 11.7556L37.2839 15.2271Z" fill="#E4E4E4"/>
<path d="M43.4071 24.1719L44.8725 26.3591L38.7074 29.4256L37.2419 27.2387L43.4071 24.1719Z" fill="#E4E4E4"/>
<path d="M49.788 14.6631L52.7167 14.7669L52.4251 20.8948L49.4961 20.7914L49.788 14.6631Z" fill="#E4E4E4"/>
<path d="M244.567 143.366L242.908 145.448L237.039 141.976L238.699 139.895L244.567 143.366Z" fill="#E4E4E4"/>
<path d="M250.69 152.312L252.156 154.499L245.991 157.565L244.525 155.378L250.69 152.312Z" fill="#E4E4E4"/>
<path d="M257.073 142.803L260.002 142.906L259.71 149.034L256.781 148.931L257.073 142.803Z" fill="#E4E4E4"/>
</g>
<defs>
<clipPath id="clip0_1_2674">
<rect width="260.002" height="200" fill="white"/>
</clipPath>
</defs>
</svg>
