<svg width="57" height="79" viewBox="0 0 57 79" fill="none" xmlns="http://www.w3.org/2000/svg">
<path d="M38.3958 10.7916C38.3958 13.4161 37.3532 15.9332 35.4974 17.789C33.6416 19.6448 31.1245 20.6874 28.5 20.6874C25.8755 20.6874 23.3584 19.6448 21.5026 17.789C19.6468 15.9332 18.6042 13.4161 18.6042 10.7916C18.6042 8.16705 19.6468 5.65 21.5026 3.79417C23.3584 1.93835 25.8755 0.895752 28.5 0.895752C31.1245 0.895752 33.6416 1.93835 35.4974 3.79417C37.3532 5.65 38.3958 8.16705 38.3958 10.7916ZM42.3542 76.1041C42.3542 76.629 42.1457 77.1324 41.7745 77.5036C41.4033 77.8747 40.8999 78.0833 40.375 78.0833H6.44417C5.21549 78.0832 4.02027 77.6828 3.0395 76.9427C2.05873 76.2026 1.34582 75.1631 1.00871 73.9816C0.671611 72.8 0.728676 71.5408 1.17127 70.3946C1.61386 69.2484 2.41787 68.2776 3.46157 67.6293L13.9195 61.1337C14.7772 60.6009 15.4848 59.8582 15.9755 58.9758C16.4662 58.0934 16.7238 57.1004 16.724 56.0908V54.3333H21.4225C23.522 54.3328 25.5353 53.4984 27.0196 52.0137L28.5 50.5352L29.9784 52.0137C30.7139 52.7493 31.5871 53.3328 32.5481 53.7308C33.5092 54.1288 34.5393 54.3335 35.5795 54.3333H40.375V56.0987C40.3753 57.1054 40.6316 58.0955 41.1198 58.9759C41.6079 59.8563 42.312 60.5981 43.1656 61.1317L53.5483 67.6214C54.5913 68.2725 55.3939 69.2456 55.8347 70.3934C56.2756 71.5412 56.3307 72.8014 55.9917 73.9833C55.6527 75.1652 54.9381 76.2046 53.956 76.9443C52.9738 77.6841 51.7775 78.0838 50.5479 78.0833H45.9761C46.1938 77.4638 46.3125 76.7968 46.3125 76.1041V75.6093C46.3123 74.1712 45.7901 72.782 44.843 71.6998C43.8958 70.6177 42.5881 69.916 41.1627 69.7252L15.008 66.2261C14.4919 66.1647 13.9725 66.3089 13.5618 66.6274C13.1511 66.9458 12.8821 67.4131 12.813 67.9282C12.7438 68.4432 12.8801 68.9649 13.1923 69.3803C13.5045 69.7958 13.9676 70.0718 14.4816 70.1488L40.6382 73.6479C41.1132 73.7117 41.549 73.9456 41.8646 74.3063C42.1801 74.667 42.3541 75.13 42.3542 75.6093V76.1041ZM32.779 49.2151L30.4792 46.9153V39.5093C30.7747 39.6795 31.0479 39.8893 31.2985 40.1387L35.0174 43.8595C35.3888 44.23 35.8921 44.4378 36.4167 44.4374H42.3542C42.6914 44.4372 43.023 44.3509 43.3175 44.1866C43.612 44.0223 43.8596 43.7854 44.0368 43.4985C44.2141 43.2116 44.3151 42.8842 44.3303 42.5473C44.3455 42.2104 44.2743 41.8752 44.1235 41.5736L42.1444 37.6152C42.0332 37.3746 41.8749 37.1588 41.6787 36.9805C41.4826 36.8022 41.2526 36.6652 41.0025 36.5775C40.7523 36.4898 40.4871 36.4533 40.2226 36.47C39.9581 36.4867 39.6996 36.5565 39.4625 36.675C39.2255 36.7935 39.0146 36.9585 38.8425 37.1601C38.6704 37.3616 38.5405 37.5957 38.4606 37.8484C38.3807 38.1012 38.3523 38.3674 38.3772 38.6312C38.4022 38.8951 38.4798 39.1513 38.6056 39.3846L39.1519 40.4791H37.236L34.0971 37.3401C32.6125 35.856 30.5992 35.0222 28.5 35.0222C26.4008 35.0222 24.3875 35.856 22.9029 37.3401L19.764 40.4791H17.8481L18.3944 39.3846C18.5202 39.1513 18.5979 38.8951 18.6228 38.6312C18.6477 38.3674 18.6193 38.1012 18.5394 37.8484C18.4595 37.5957 18.3296 37.3616 18.1575 37.1601C17.9854 36.9585 17.7745 36.7935 17.5375 36.675C17.3004 36.5565 17.0419 36.4867 16.7774 36.47C16.5129 36.4533 16.2477 36.4898 15.9975 36.5775C15.7474 36.6652 15.5175 36.8022 15.3213 36.9805C15.1251 37.1588 14.9668 37.3746 14.8556 37.6152L12.8765 41.5736C12.7257 41.8752 12.6546 42.2104 12.6697 42.5473C12.6849 42.8842 12.7859 43.2116 12.9632 43.4985C13.1404 43.7854 13.388 44.0223 13.6825 44.1866C13.977 44.3509 14.3086 44.4372 14.6458 44.4374H20.5833C21.1082 44.4373 21.6115 44.2287 21.9826 43.8575L25.7015 40.1387C25.9535 39.8893 26.2266 39.6795 26.5208 39.5093V46.9153L24.221 49.2151C23.4789 49.9575 22.4722 50.3747 21.4225 50.3749H9.47229C8.82862 50.3749 8.19465 50.218 7.62534 49.9176C7.05602 49.6173 6.56854 49.1827 6.20513 48.6514C5.84172 48.1201 5.61335 47.5083 5.53981 46.8688C5.46628 46.2293 5.5498 45.5816 5.78313 44.9817L11.7285 29.6926C12.3068 28.206 13.3206 26.9287 14.6372 26.0281C15.9538 25.1276 17.5117 24.6457 19.1069 24.6458H37.8931C39.4883 24.6457 41.0462 25.1276 42.3628 26.0281C43.6794 26.9287 44.6932 28.206 45.2715 29.6926L51.2189 44.9817C51.4523 45.5819 51.5358 46.23 51.4621 46.8698C51.3883 47.5095 51.1596 48.1217 50.7957 48.653C50.4319 49.1844 49.9439 49.619 49.374 49.919C48.8042 50.2191 48.1697 50.3756 47.5257 50.3749H35.5755C34.5258 50.3747 33.5191 49.9575 32.777 49.2151" fill="black"/>
</svg>
